STARTFONT 2.1
COMMENT
COMMENT Converted from OpenType font "BeVietnam-Bold.ttf" by "otf2bdf 3.0".
COMMENT
FONT -FreeType-Be Vietnam-Bold-R-Normal--66-480-100-100-P-326-ISO10646-1
SIZE 48 100 100
FONTBOUNDINGBOX 105 93 -31 -17
STARTPROPERTIES 19
FOUNDRY "FreeType"
FAMILY_NAME "Be Vietnam"
WEIGHT_NAME "Bold"
SLANT "R"
SETWIDTH_NAME "Normal"
ADD_STYLE_NAME ""
PIXEL_SIZE 66
POINT_SIZE 480
RESOLUTION_X 100
RESOLUTION_Y 100
SPACING "P"
AVERAGE_WIDTH 326
CHARSET_REGISTRY "ISO10646"
CHARSET_ENCODING "1"
FONT_ASCENT 80
FONT_DESCENT 17
COPYRIGHT "Copyright 2019 The Bevietnam Project Authors (https://github.com/bettergui/beVietnam)"
_OTF_FONTFILE "BeVietnam-Bold.ttf"
_OTF_PSNAME "BeVietnam-Bold"
ENDPROPERTIES
CHARS 445
STARTCHAR 000D
ENCODING 13
SWIDTH 600 0
DWIDTH 40 0
BBX 0 0 0 0
BITMAP
ENDCHAR
STARTCHAR 0020
ENCODING 32
SWIDTH 225 0
DWIDTH 15 0
BBX 0 0 0 0
BITMAP
ENDCHAR
STARTCHAR 0021
ENCODING 33
SWIDTH 270 0
DWIDTH 18 0
BBX 10 50 4 -1
BITMAP
7FC0
7FC0
7FC0
7FC0
7FC0
7FC0
7FC0
7FC0
7FC0
7FC0
7FC0
7FC0
7FC0
7FC0
7FC0
7F80
7F80
7F80
7F80
7F80
7F80
7F80
7F80
7F80
7F80
7F80
3F80
3F80
3F80
3F80
3F80
3F80
3F80
3F80
0000
0000
0000
0000
0000
0000
3F00
7F80
7FC0
FFC0
FFC0
FFC0
7FC0
7F80
3F80
0C00
ENDCHAR
STARTCHAR 0022
ENCODING 34
SWIDTH 525 0
DWIDTH 35 0
BBX 27 20 4 32
BITMAP
03000380
0F000F80
1F001F80
3C003E00
78003C00
78007800
F0007800
F000F000
F000F000
F000F800
FE00FE00
FFC0FFC0
FFC0FFE0
FFE0FFE0
FFE0FFE0
FFE0FFE0
FFC07FE0
7FC07FC0
3F803F80
04000000
ENDCHAR
STARTCHAR 0023
ENCODING 35
SWIDTH 870 0
DWIDTH 58 0
BBX 49 47 5 0
BITMAP
00007F801FC000
00007F801FC000
00007F803FC000
00007F803FC000
00007F003FC000
0000FF003F8000
0000FF003F8000
0000FF007F8000
0000FF007F8000
0000FE007F8000
0001FE007F0000
0001FE00FF0000
07FFFFFFFFFF80
07FFFFFFFFFF80
07FFFFFFFFFF80
07FFFFFFFFFF80
07FFFFFFFFFF00
0FFFFFFFFFFF00
0FFFFFFFFFFF00
0007F801FC0000
0007F803FC0000
0007F803FC0000
0007F003FC0000
0007F003FC0000
000FF003F80000
000FF007F80000
000FF007F80000
000FE007F80000
001FE007F00000
001FE007F00000
7FFFFFFFFFF800
7FFFFFFFFFF800
7FFFFFFFFFF800
7FFFFFFFFFF800
FFFFFFFFFFF000
FFFFFFFFFFF000
003F801FE00000
003F801FE00000
007F801FC00000
007F803FC00000
007F803FC00000
007F003FC00000
00FF003F800000
00FF003F800000
00FF007F800000
00FF007F800000
00FE007F800000
ENDCHAR
STARTCHAR 0024
ENCODING 36
SWIDTH 585 0
DWIDTH 39 0
BBX 35 57 3 -6
BITMAP
0000E00000
0000E00000
0000E00000
0000E00000
0000E00000
001FFF0000
00FFFFC000
03FFFFF000
07FFFFF800
0FFFFFFC00
1FFFFFFE00
3FFFFFFF00
3FFCEFFF00
7FF0E3FF80
7FE0E1FF80
7FC0E0FF80
7FC0E0FFC0
7FC0E07FC0
7FC0E07FC0
7FC0E07FC0
7FE0E00000
7FF0E00000
7FF8E00000
3FFFE00000
3FFFF80000
1FFFFF0000
0FFFFFE000
07FFFFF800
01FFFFFC00
007FFFFE00
000FFFFF00
0001FFFF80
0000EFFFC0
0000E1FFC0
0000E0FFC0
0000E07FE0
FF80E07FE0
FF80E03FE0
FFC0E03FE0
FFC0E07FE0
FFE0E07FC0
7FF0E0FFC0
7FF8E1FFC0
3FFFEFFF80
3FFFFFFF80
1FFFFFFF00
0FFFFFFE00
07FFFFFC00
03FFFFF800
00FFFFE000
003FFF8000
0001F00000
0000E00000
0000E00000
0000E00000
0000E00000
0000E00000
ENDCHAR
STARTCHAR 0025
ENCODING 37
SWIDTH 795 0
DWIDTH 53 0
BBX 48 48 3 -1
BITMAP
0FF80000FE00
1FFC0001FE00
3FFE0001FC00
7FFF0003FC00
7FFF8003F800
FE1F8007F800
FC1F8007F000
FC0F800FF000
FC0F800FE000
FC0F801FE000
FC0F801FC000
FC1F803FC000
FE1F807F8000
FF3F807F8000
7FFF00FF0000
7FFF00FF0000
3FFE01FE0000
1FFC01FE0000
07F003FC0000
000003FC0000
000007F80000
000007F80000
00000FF00000
00000FF00000
00001FE00000
00001FE00000
00003FC00000
00003F800000
00007F800300
00007F003FF0
0000FF007FF8
0000FE00FFFC
0001FE01FFFC
0001FC01FFFE
0003FC03F87E
0003F803F07E
0007F803F03E
0007F003F03F
000FF003F03F
000FE003F03E
001FE003F07E
001FC003F87E
003FC001FFFE
003F8001FFFC
007F8000FFFC
00FF00007FF8
00FF00003FF0
000000000780
ENDCHAR
STARTCHAR 0026
ENCODING 38
SWIDTH 660 0
DWIDTH 44 0
BBX 41 48 3 0
BITMAP
0007FF800000
001FFFE00000
007FFFF80000
00FFFFFC0000
01FFFFFE0000
03FFFFFF0000
03FFFFFF0000
07FF8FFF8000
07FE03FF8000
07FC01FF8000
07FC00FF8000
07FC00FFC000
07FC00FFC000
07FC00FFC000
07FC00000000
07FE00000000
03FE00000000
03FF00000000
01FF80000000
00FFC0000000
00FFE0000000
007FF00FF800
003FF01FF000
01FFF81FF000
07FFFC3FE000
0FFFFE3FC000
1FFFFF7FC000
3FFFFFFF8000
7FF1FFFF8000
7FC0FFFF0000
FF807FFE0000
FF803FFE0000
FF801FFC0000
FF000FFC0000
FF000FFE0000
FF000FFF0000
FF800FFF8000
FF801FFFC000
FFC03FFFC000
FFF9FFFFE000
7FFFFFBFF000
7FFFFF9FF800
3FFFFF1FFC00
3FFFFE0FFE00
1FFFFC07FF00
07FFF003FF80
01FFC001FF80
000C00000000
ENDCHAR
STARTCHAR 0027
ENCODING 39
SWIDTH 285 0
DWIDTH 19 0
BBX 11 19 5 34
BITMAP
3F80
7FC0
FFC0
FFE0
FFE0
FFE0
FFE0
7FE0
1FE0
03E0
01E0
01E0
01C0
03C0
03C0
0F80
1F00
3E00
3800
ENDCHAR
STARTCHAR 0028
ENCODING 40
SWIDTH 480 0
DWIDTH 32 0
BBX 20 69 7 -15
BITMAP
000040
0001E0
0003F0
000FE0
001FC0
003F80
003F00
007F00
00FE00
01FE00
01FC00
03FC00
07F800
07F800
0FF000
0FF000
0FF000
1FE000
1FE000
3FE000
3FE000
3FC000
7FC000
7FC000
7FC000
7FC000
7F8000
FF8000
FF8000
FF8000
FF8000
FF8000
FF8000
FF8000
FF8000
FF8000
FF8000
FF8000
FF8000
FF8000
FF8000
7F8000
7F8000
7FC000
7FC000
7FC000
3FC000
3FC000
3FE000
1FE000
1FE000
1FF000
0FF000
0FF000
07F800
07F800
03F800
03FC00
01FC00
00FE00
00FE00
007F00
003F80
001F80
000FC0
0007E0
0003F0
0000E0
000040
ENDCHAR
STARTCHAR 0029
ENCODING 41
SWIDTH 540 0
DWIDTH 36 0
BBX 20 68 10 -15
BITMAP
200000
780000
FC0000
7E0000
3F0000
1F8000
1FC000
0FE000
07F000
07F000
03F800
03FC00
03FC00
01FE00
01FE00
00FF00
00FF00
00FF80
007F80
007F80
007FC0
007FC0
003FC0
003FC0
003FE0
003FE0
003FE0
003FE0
001FE0
001FE0
001FF0
001FF0
001FF0
001FF0
001FF0
001FF0
001FF0
001FF0
001FE0
001FE0
003FE0
003FE0
003FE0
003FE0
003FE0
003FC0
007FC0
007FC0
007F80
007F80
00FF80
00FF00
00FF00
01FF00
01FE00
01FE00
03FC00
03F800
07F800
07F000
0FE000
0FE000
1FC000
3F8000
3F0000
7E0000
F80000
700000
ENDCHAR
STARTCHAR 002A
ENCODING 42
SWIDTH 510 0
DWIDTH 34 0
BBX 23 24 6 27
BITMAP
007C00
007C00
007C00
007C00
207C08
707838
7C787C
FE79FC
FFFBFC
3FFFF8
0FFFE0
07FF80
03FF00
0FFFC0
1FFFF0
7FFFFC
FF7BFE
FC78FC
78783C
607818
007C00
007C00
007C00
007C00
ENDCHAR
STARTCHAR 002B
ENCODING 43
SWIDTH 585 0
DWIDTH 39 0
BBX 28 28 6 7
BITMAP
003FC000
003FC000
003FC000
003FC000
003FC000
003FC000
003FC000
003FC000
003FC000
003FC000
FFFFFFF0
FFFFFFF0
FFFFFFF0
FFFFFFF0
FFFFFFF0
FFFFFFF0
FFFFFFF0
FFFFFFF0
003FC000
003FC000
003FC000
003FC000
003FC000
003FC000
003FC000
003FC000
003FC000
003FC000
ENDCHAR
STARTCHAR 002C
ENCODING 44
SWIDTH 315 0
DWIDTH 21 0
BBX 11 21 5 -12
BITMAP
1E00
7F80
FFC0
FFE0
FFE0
FFE0
FFE0
FFE0
7FE0
1FE0
03E0
01E0
01E0
01E0
01E0
03C0
07C0
0F80
3F00
3C00
3000
ENDCHAR
STARTCHAR 002D
ENCODING 45
SWIDTH 585 0
DWIDTH 39 0
BBX 24 7 8 17
BITMAP
FFFFFF
FFFFFF
FFFFFF
FFFFFF
FFFFFF
FFFFFF
FFFFFF
ENDCHAR
STARTCHAR 002E
ENCODING 46
SWIDTH 315 0
DWIDTH 21 0
BBX 11 10 5 -1
BITMAP
0F00
3F80
7FC0
7FE0
7FE0
FFE0
7FE0
7FC0
7FC0
3F80
ENDCHAR
STARTCHAR 002F
ENCODING 47
SWIDTH 525 0
DWIDTH 35 0
BBX 32 66 2 -13
BITMAP
000001FF
000001FF
000001FE
000003FE
000003FE
000007FC
000007FC
000007F8
00000FF8
00000FF8
00000FF0
00001FF0
00001FF0
00001FE0
00003FE0
00003FE0
00003FC0
00007FC0
00007FC0
00007F80
0000FF80
0000FF00
0001FF00
0001FF00
0001FE00
0003FE00
0003FE00
0003FC00
0007FC00
0007FC00
0007F800
000FF800
000FF800
000FF000
001FF000
001FF000
003FE000
003FE000
003FC000
007FC000
007FC000
007F8000
00FF8000
00FF8000
00FF0000
01FF0000
01FF0000
01FE0000
03FE0000
03FE0000
03FC0000
07FC0000
07F80000
0FF80000
0FF80000
0FF00000
1FF00000
1FF00000
1FE00000
3FE00000
3FE00000
3FC00000
7FC00000
7FC00000
7F800000
FF800000
ENDCHAR
STARTCHAR 0030
ENCODING 48
SWIDTH 615 0
DWIDTH 41 0
BBX 36 49 3 -1
BITMAP
0000E00000
001FFF8000
00FFFFE000
01FFFFF000
03FFFFFC00
07FFFFFE00
0FFFFFFE00
1FFFFFFF00
1FFF9FFF80
3FFC07FF80
3FF801FFC0
7FF001FFC0
7FE000FFC0
7FE000FFE0
FFE000FFE0
FFE0007FE0
FFC0007FE0
FFC0007FE0
FFC0007FE0
FFC0007FF0
FFC0007FF0
FFC0007FF0
FFC0007FF0
FFC0007FF0
FFC0007FF0
FFC0007FF0
FFC0007FF0
FFC0007FF0
FFC0007FF0
FFC0007FF0
FFC0007FE0
FFC0007FE0
FFC0007FE0
FFC0007FE0
FFE0007FE0
7FE000FFE0
7FE000FFC0
7FF001FFC0
3FF001FFC0
3FF803FF80
3FFE0FFF80
1FFFFFFF00
0FFFFFFE00
0FFFFFFE00
07FFFFFC00
03FFFFF800
00FFFFE000
003FFF8000
0007FC0000
ENDCHAR
STARTCHAR 0031
ENCODING 49
SWIDTH 510 0
DWIDTH 34 0
BBX 28 47 5 0
BITMAP
003FE000
007FE000
01FFE000
03FFE000
07FFE000
0FFFE000
1FFFE000
3FFFE000
7FFFE000
FFFFE000
FFFFE000
FFFFE000
FFBFE000
FE3FE000
FC3FE000
F83FE000
F03FE000
E03FE000
C03FE000
803FE000
003FE000
003FE000
003FE000
003FE000
003FE000
003FE000
003FE000
003FE000
003FE000
003FE000
003FE000
003FE000
003FE000
003FE000
003FE000
003FE000
003FE000
003FE000
003FE000
FFFFFFF0
FFFFFFF0
FFFFFFF0
FFFFFFF0
FFFFFFF0
FFFFFFF0
FFFFFFF0
FFFFFFF0
ENDCHAR
STARTCHAR 0032
ENCODING 50
SWIDTH 585 0
DWIDTH 39 0
BBX 32 48 4 0
BITMAP
0007C000
007FFE00
01FFFF80
03FFFFC0
0FFFFFF0
1FFFFFF8
1FFFFFF8
3FFFFFFC
7FFC3FFC
7FE00FFE
7FC007FE
FFC003FE
FF8001FF
FF8001FF
FF8001FF
FF8001FF
FF8001FF
000001FE
000003FE
000003FE
000007FE
000007FC
00000FFC
00001FF8
00003FF0
00007FF0
0000FFE0
0001FFC0
0003FF80
000FFF00
001FFE00
003FFC00
007FF000
00FFE000
03FFC000
07FF8000
0FFF0000
1FFE0000
3FF80000
7FF00000
FFFFFFFF
FFFFFFFF
FFFFFFFF
FFFFFFFF
FFFFFFFF
FFFFFFFF
FFFFFFFF
FFFFFFFF
ENDCHAR
STARTCHAR 0033
ENCODING 51
SWIDTH 585 0
DWIDTH 39 0
BBX 34 49 3 -1
BITMAP
0007F80000
007FFF8000
01FFFFE000
03FFFFF000
07FFFFF800
0FFFFFFC00
1FFFFFFE00
3FFFFFFF00
3FF80FFF00
3FF003FF00
7FE001FF80
7FC001FF80
7FC000FF80
000000FF80
000000FF80
000000FF80
000001FF80
000001FF00
000003FF00
00000FFE00
0007FFFE00
0007FFFC00
0007FFF000
0007FFC000
0007FFE000
0007FFF800
0007FFFC00
00000FFE00
000003FF00
000001FF80
000000FF80
000000FF80
0000007F80
0000007FC0
0000007FC0
FF8000FFC0
FFC000FF80
FFC000FF80
FFE001FF80
7FF807FF80
7FFFFFFF00
3FFFFFFF00
1FFFFFFE00
1FFFFFFC00
0FFFFFF800
03FFFFF000
01FFFFE000
007FFF0000
0001D00000
ENDCHAR
STARTCHAR 0034
ENCODING 52
SWIDTH 600 0
DWIDTH 40 0
BBX 36 47 2 0
BITMAP
00003FFC00
00003FFC00
00007FFC00
0000FFFC00
0000FFFC00
0001FFFC00
0001FFFC00
0003FFFC00
0007FFFC00
0007FFFC00
000FFFFC00
001FFFFC00
001FF7FC00
003FF7FC00
007FE7FC00
007FC7FC00
00FFC7FC00
00FF87FC00
01FF07FC00
03FF07FC00
03FE07FC00
07FC07FC00
0FFC07FC00
0FF807FC00
1FF007FC00
1FF007FC00
3FE007FC00
7FC007FC00
7FC007FC00
FFFFFFFFF0
FFFFFFFFF0
FFFFFFFFF0
FFFFFFFFF0
FFFFFFFFF0
FFFFFFFFF0
FFFFFFFFF0
000007FC00
000007FC00
000007FC00
000007FC00
000007FC00
000007FC00
000007FC00
000007FC00
000007FC00
000007FC00
000007FC00
ENDCHAR
STARTCHAR 0035
ENCODING 53
SWIDTH 585 0
DWIDTH 39 0
BBX 34 47 3 0
BITMAP
3FFFFFFE00
3FFFFFFE00
3FFFFFFE00
3FFFFFFE00
3FFFFFFE00
3FFFFFFE00
3FFFFFFE00
3FFFFFFE00
3FFFFFFE00
3FC0000000
3FC0000000
3FC0000000
3FC0000000
3F80000000
3F80000000
7F80000000
7F83FF0000
7F8FFFE000
7F9FFFF000
7FBFFFFC00
7FFFFFFE00
7FFFFFFE00
7FFF1FFF00
7FF807FF00
7FF001FF80
7FE001FF80
7FC000FF80
000000FFC0
000000FFC0
0000007FC0
0000007FC0
0000007FC0
0000007FC0
FFC000FFC0
7FC000FFC0
7FC000FF80
7FE001FF80
7FF003FF80
3FFC07FF00
3FFFFFFF00
1FFFFFFE00
0FFFFFFC00
07FFFFFC00
03FFFFF800
01FFFFE000
007FFFC000
001FFF0000
ENDCHAR
STARTCHAR 0036
ENCODING 54
SWIDTH 585 0
DWIDTH 39 0
BBX 34 48 3 -1
BITMAP
0003FE0000
0003FE0000
0007FC0000
000FF80000
000FF80000
001FF00000
003FE00000
003FE00000
007FC00000
00FF800000
00FF800000
01FF000000
03FE000000
03FE000000
07FC000000
07F8000000
0FF83C0000
0FF3FF8000
1FE7FFE000
3FFFFFF800
3FFFFFFC00
3FFFFFFC00
7FFFFFFE00
7FFC0FFF00
7FF007FF00
FFE003FF80
FFC001FF80
FFC000FF80
FF8000FF80
FF8000FFC0
FF80007FC0
FF80007FC0
FF80007FC0
FF8000FFC0
FF8000FF80
FF8000FF80
7FC001FF80
7FE001FF80
7FF003FF00
3FF80FFF00
3FFFFFFE00
1FFFFFFE00
0FFFFFFC00
07FFFFF800
03FFFFF000
00FFFFC000
003FFF0000
0000C00000
ENDCHAR
STARTCHAR 0037
ENCODING 55
SWIDTH 525 0
DWIDTH 35 0
BBX 32 47 1 0
BITMAP
FFFFFFFF
FFFFFFFF
FFFFFFFF
FFFFFFFF
FFFFFFFF
FFFFFFFF
FFFFFFFF
FFFFFFFF
FFFFFFFF
000001FF
000001FF
000003FE
000003FE
000007FC
000007FC
00000FF8
00000FF8
00001FF8
00001FF0
00003FF0
00003FE0
00007FE0
00007FC0
0000FFC0
0000FF80
0001FF80
0001FF00
0003FF00
0003FF00
0007FE00
0007FE00
0007FC00
000FFC00
000FF800
001FF800
001FF000
003FF000
003FE000
007FE000
007FE000
00FFC000
00FFC000
01FF8000
01FF8000
03FF0000
03FF0000
07FE0000
ENDCHAR
STARTCHAR 0038
ENCODING 56
SWIDTH 600 0
DWIDTH 40 0
BBX 35 48 3 -1
BITMAP
001FFF0000
00FFFFE000
01FFFFF000
03FFFFFC00
07FFFFFE00
0FFFFFFE00
1FFFFFFF00
1FFC07FF00
3FF801FF80
3FF001FF80
3FE000FF80
3FE000FF80
3FC0007FC0
3FC0007FC0
3FC0007F80
3FE0007F80
3FE000FF80
1FF000FF80
1FF001FF00
0FFC07FE00
07FFFFFE00
03FFFFFC00
01FFFFF000
01FFFFF000
07FFFFFC00
0FFFFFFE00
1FFC03FF00
3FF001FF80
3FE000FFC0
7FC0007FC0
7FC0007FC0
7FC0007FE0
FFC0003FE0
FFC0003FE0
FFC0007FE0
FFC0007FE0
7FC0007FE0
7FE000FFC0
7FF001FFC0
7FF803FFC0
3FFFFFFF80
1FFFFFFF80
1FFFFFFF00
0FFFFFFE00
07FFFFFC00
01FFFFF000
007FFFC000
000FFE0000
ENDCHAR
STARTCHAR 0039
ENCODING 57
SWIDTH 585 0
DWIDTH 39 0
BBX 34 48 3 0
BITMAP
0000C00000
003FFE0000
00FFFF8000
03FFFFE000
07FFFFF000
0FFFFFF800
1FFFFFFC00
3FFFFFFE00
3FF80FFF00
7FF003FF00
7FE001FF80
FFC001FF80
FFC000FF80
FF8000FF80
FF80007FC0
FF80007FC0
FF80007FC0
FF80007FC0
FF80007FC0
FF8000FFC0
FFC000FF80
FFC001FF80
7FE001FF80
7FF003FF80
3FFC0FFF80
3FFFFFFF00
1FFFFFFF00
0FFFFFFE00
07FFFDFE00
03FFFBFC00
00FFE7FC00
000607F800
00000FF800
00001FF000
00001FF000
00003FE000
00007FC000
0000FFC000
0000FF8000
0001FF0000
0003FF0000
0003FE0000
0007FC0000
000FFC0000
001FF80000
001FF80000
003FF00000
007FE00000
ENDCHAR
STARTCHAR 003A
ENCODING 58
SWIDTH 330 0
DWIDTH 22 0
BBX 11 36 5 -1
BITMAP
1F00
3F80
7FC0
FFE0
FFE0
FFE0
FFE0
7FC0
7FC0
1F00
0000
0000
0000
0000
0000
0000
0000
0000
0000
0000
0000
0000
0000
0000
0000
1F00
3F80
7FC0
7FC0
FFE0
FFE0
FFE0
7FC0
7FC0
3F80
0600
ENDCHAR
STARTCHAR 003B
ENCODING 59
SWIDTH 345 0
DWIDTH 23 0
BBX 12 47 6 -12
BITMAP
1F00
3FC0
7FC0
7FE0
7FE0
7FE0
7FE0
7FE0
3FC0
1F80
0000
0000
0000
0000
0000
0000
0000
0000
0000
0000
0000
0000
0000
0000
0000
0000
0F80
3FC0
7FE0
7FE0
FFF0
FFF0
7FF0
7FF0
7FF0
0FF0
01F0
00F0
00F0
00F0
01E0
01E0
03C0
0F80
1F00
1E00
1800
ENDCHAR
STARTCHAR 003C
ENCODING 60
SWIDTH 570 0
DWIDTH 38 0
BBX 25 32 7 6
BITMAP
00000080
00000380
00000F80
00003F80
0000FF80
0003FF80
000FFF80
001FFF80
007FFF80
01FFFE00
07FFF800
1FFFE000
7FFF0000
FFFC0000
FFF00000
FFC00000
FF800000
FFE00000
FFF80000
FFFE0000
3FFF8000
1FFFE000
07FFF800
01FFFE00
007FFF80
001FFF80
0007FF80
0001FF80
00007F80
00001F80
00000780
00000180
ENDCHAR
STARTCHAR 003D
ENCODING 61
SWIDTH 705 0
DWIDTH 47 0
BBX 31 22 8 9
BITMAP
FFFFFFFE
FFFFFFFE
FFFFFFFE
FFFFFFFE
FFFFFFFE
FFFFFFFE
FFFFFFFE
00000000
00000000
00000000
00000000
00000000
00000000
00000000
FFFFFFFE
FFFFFFFE
FFFFFFFE
FFFFFFFE
FFFFFFFE
FFFFFFFE
FFFFFFFE
FFFFFFFE
ENDCHAR
STARTCHAR 003E
ENCODING 62
SWIDTH 570 0
DWIDTH 38 0
BBX 25 32 7 6
BITMAP
80000000
E0000000
F0000000
FC000000
FF000000
FFC00000
FFF00000
FFFC0000
FFFF0000
3FFFC000
0FFFF000
03FFFC00
00FFFF00
003FFF80
000FFF80
0003FF80
0000FF80
0003FF80
000FFF80
007FFF80
01FFFE00
07FFF800
1FFFE000
7FFF8000
FFFE0000
FFF80000
FFF00000
FFC00000
FF000000
FC000000
F0000000
C0000000
ENDCHAR
STARTCHAR 003F
ENCODING 63
SWIDTH 570 0
DWIDTH 38 0
BBX 33 49 3 -1
BITMAP
0001C00000
003FFE0000
00FFFFC000
03FFFFE000
07FFFFF800
0FFFFFF800
1FFFFFFC00
1FFFFFFE00
3FFFFFFE00
3FF80FFF00
7FF003FF00
7FE003FF00
7FE001FF80
7FC001FF80
FFC001FF80
FFC001FF80
FFC001FF00
000001FF00
000003FF00
000007FE00
00000FFE00
00000FFC00
00001FFC00
00003FF800
00007FF000
0000FFE000
0001FFC000
0003FF8000
0007FF0000
000FFE0000
000FFC0000
000FF80000
001FF80000
001FF80000
001FF80000
0000000000
0000000000
0000000000
0000000000
0007E00000
000FF00000
000FF80000
001FF80000
001FF80000
001FF80000
001FF80000
000FF00000
0007E00000
0001C00000
ENDCHAR
STARTCHAR 0040
ENCODING 64
SWIDTH 1005 0
DWIDTH 67 0
BBX 58 58 5 -11
BITMAP
000007FFF8000000
00003FFFFF000000
0001FFFFFFE00000
0007FFFFFFF80000
000FFFFFFFFC0000
003FFFFFFFFF0000
007FFF807FFF8000
00FFF00003FFC000
01FFC00000FFE000
03FF0000003FF000
07FC0000001FF000
07F800000007F800
0FF000000003FC00
1FE000000001FC00
1FE000000001FE00
3FC003FC3F80FE00
3F800FFE3F807F00
3F801FFFBF807F00
7F003FFFBF803F80
7F007FFFFF803F80
7F00FFFFFF803F80
FE00FF81FF803F80
FE01FF00FF801F80
FE01FE007F801FC0
FE01FE007F801FC0
FE01FC007F801FC0
FE03FC003F801FC0
FE03FC003F801FC0
FE03FC003F801FC0
FE03FC003F801FC0
FE03FC003F801F80
FE01FC003F801F80
FE01FE007F801F80
FE01FE007F803F80
FE01FE00FFC03F00
FE00FF01FFC07F00
FF00FFC3FFE0FE00
7F007FFFEFFFFE00
7F007FFFCFFFFC00
7F803FFF87FFF800
3F801FFF03FFE000
3FC007FE00FF8000
1FE0006000000000
1FE0000000000000
0FF0000000000000
0FF8000000000000
07FC000000000000
03FF000000000000
03FFC00000000000
01FFF00000000000
00FFFE0000000000
007FFFFFFFF00000
001FFFFFFFF00000
000FFFFFFFF00000
0003FFFFFFF00000
0000FFFFFFF00000
00001FFFFFF00000
000001FFFFF00000
ENDCHAR
STARTCHAR 0041
ENCODING 65
SWIDTH 675 0
DWIDTH 45 0
BBX 42 47 2 0
BITMAP
0000FF800000
0000FF800000
0000FFC00000
0001FFC00000
0001FFE00000
0003FFE00000
0003FFE00000
0003FFF00000
0007FFF00000
0007FFF00000
0007FFF80000
000FFFF80000
000FF7F80000
000FF7FC0000
001FE3FC0000
001FE3FC0000
003FE3FE0000
003FC1FE0000
003FC1FF0000
007FC1FF0000
007FC0FF0000
007F80FF8000
00FF80FF8000
00FF807F8000
00FF007FC000
01FF007FC000
01FF003FC000
01FE003FE000
03FFFFFFE000
03FFFFFFE000
07FFFFFFF000
07FFFFFFF000
07FFFFFFF800
0FFFFFFFF800
0FFFFFFFF800
0FFFFFFFFC00
1FF00007FC00
1FF00007FC00
1FF00003FE00
3FE00003FE00
3FE00003FE00
3FE00001FF00
7FC00001FF00
7FC00001FF00
FFC00000FF80
FF800000FF80
FF800000FFC0
ENDCHAR
STARTCHAR 0042
ENCODING 66
SWIDTH 615 0
DWIDTH 41 0
BBX 35 47 4 0
BITMAP
FFFFF80000
FFFFFFC000
FFFFFFF000
FFFFFFF800
FFFFFFFC00
FFFFFFFE00
FFFFFFFE00
FFFFFFFF00
FF8007FF00
FF8003FF00
FF8001FF80
FF8000FF80
FF8000FF80
FF8000FF80
FF8000FF80
FF8000FF00
FF8001FF00
FF8001FE00
FF8007FE00
FF801FFC00
FFFFFFF800
FFFFFFE000
FFFFFFC000
FFFFFFF800
FFFFFFFE00
FFFFFFFF00
FF800FFF80
FF8000FFC0
FF80007FC0
FF80003FE0
FF80003FE0
FF80003FE0
FF80001FE0
FF80003FE0
FF80003FE0
FF80003FE0
FF80003FE0
FF80007FE0
FF8000FFC0
FF800FFFC0
FFFFFFFF80
FFFFFFFF80
FFFFFFFF00
FFFFFFFE00
FFFFFFFC00
FFFFFFF000
FFFFFFC000
ENDCHAR
STARTCHAR 0043
ENCODING 67
SWIDTH 690 0
DWIDTH 46 0
BBX 41 49 3 -1
BITMAP
00001F000000
0003FFF00000
000FFFFE0000
003FFFFF0000
00FFFFFFC000
01FFFFFFE000
03FFFFFFF000
07FFFFFFF800
07FFFBFFF800
0FFF003FFC00
1FFE000FFE00
1FF80007FE00
3FF80003FF00
3FF00001FF00
7FE00001FF00
7FE00000FF80
7FE00000FF80
7FC000000000
FFC000000000
FFC000000000
FFC000000000
FFC000000000
FF8000000000
FF8000000000
FF8000000000
FF8000000000
FF8000000000
FFC000000000
FFC000000000
FFC000000000
FFC000000000
7FC000000000
7FE00000FF80
7FE00000FF80
7FE00001FF00
3FF00003FF00
3FF80003FF00
1FFC0007FE00
1FFE000FFE00
0FFF003FFC00
07FFFFFFF800
07FFFFFFF800
03FFFFFFF000
01FFFFFFE000
007FFFFFC000
003FFFFF0000
000FFFFC0000
0003FFF00000
000012000000
ENDCHAR
STARTCHAR 0044
ENCODING 68
SWIDTH 675 0
DWIDTH 45 0
BBX 39 47 4 0
BITMAP
FFFFF80000
FFFFFFC000
FFFFFFF000
FFFFFFFC00
FFFFFFFE00
FFFFFFFF00
FFFFFFFF80
FFFFFFFFC0
FF807FFFE0
FF8003FFE0
FF8000FFF0
FF80007FF0
FF80003FF8
FF80001FF8
FF80001FFC
FF80000FFC
FF80000FFC
FF80000FFC
FF800007FC
FF800007FE
FF800007FE
FF800007FE
FF800007FE
FF800007FE
FF800007FE
FF800007FE
FF800007FE
FF800007FE
FF800007FE
FF80000FFC
FF80000FFC
FF80000FFC
FF80001FFC
FF80001FF8
FF80003FF8
FF80007FF8
FF8000FFF0
FF8003FFE0
FF803FFFE0
FFFFFFFFC0
FFFFFFFF80
FFFFFFFF00
FFFFFFFE00
FFFFFFFC00
FFFFFFF000
FFFFFFC000
FFFFFC0000
ENDCHAR
STARTCHAR 0045
ENCODING 69
SWIDTH 555 0
DWIDTH 37 0
BBX 31 47 4 0
BITMAP
FFFFFFFE
FFFFFFFE
FFFFFFFE
FFFFFFFE
FFFFFFFE
FFFFFFFE
FFFFFFFE
FFFFFFFE
FF800000
FF800000
FF800000
FF800000
FF800000
FF800000
FF800000
FF800000
FF800000
FF800000
FF800000
FF800000
FFFFFFE0
FFFFFFE0
FFFFFFE0
FFFFFFE0
FFFFFFE0
FFFFFFE0
FFFFFFE0
FF800000
FF800000
FF800000
FF800000
FF800000
FF800000
FF800000
FF800000
FF800000
FF800000
FF800000
FF800000
FFFFFFFE
FFFFFFFE
FFFFFFFE
FFFFFFFE
FFFFFFFE
FFFFFFFE
FFFFFFFE
FFFFFFFE
ENDCHAR
STARTCHAR 0046
ENCODING 70
SWIDTH 510 0
DWIDTH 34 0
BBX 30 47 4 0
BITMAP
FFFFFFFC
FFFFFFFC
FFFFFFFC
FFFFFFFC
FFFFFFFC
FFFFFFFC
FFFFFFFC
FFFFFFFC
FF800000
FF800000
FF800000
FF800000
FF800000
FF800000
FF800000
FF800000
FF800000
FF800000
FF800000
FF800000
FFFFFFE0
FFFFFFE0
FFFFFFE0
FFFFFFE0
FFFFFFE0
FFFFFFE0
FFFFFFE0
FF800000
FF800000
FF800000
FF800000
FF800000
FF800000
FF800000
FF800000
FF800000
FF800000
FF800000
FF800000
FF800000
FF800000
FF800000
FF800000
FF800000
FF800000
FF800000
FF800000
ENDCHAR
STARTCHAR 0047
ENCODING 71
SWIDTH 705 0
DWIDTH 47 0
BBX 41 49 3 -1
BITMAP
00001E000000
0003FFF00000
000FFFFE0000
003FFFFF0000
00FFFFFFC000
01FFFFFFE000
03FFFFFFF000
07FFFFFFF800
07FFFFFFF800
0FFF003FFC00
1FFE000FFE00
1FFC0007FE00
3FF80003FF00
3FF00003FF00
3FE00001FF80
7FE00001FF80
7FE000000000
7FC000000000
7FC000000000
FFC000000000
FFC000000000
FF8000000000
FF8000000000
FF8003FFFF80
FF8003FFFF80
FF8003FFFF80
FF8003FFFF80
FF8003FFFF80
FF8003FFFF80
FFC00000FF80
FFC00000FF80
7FC00000FF80
7FC00000FF80
7FE00000FF80
7FE00001FF80
3FF00001FF80
3FF00003FF80
1FF80003FF80
1FFC0007FF80
0FFE000FFF80
0FFFC03FFF80
07FFFFFFFF80
03FFFFFFBF80
01FFFFFF3F80
00FFFFFE3F80
007FFFFC3F80
001FFFF83F80
0007FFE03F80
000004000000
ENDCHAR
STARTCHAR 0048
ENCODING 72
SWIDTH 675 0
DWIDTH 45 0
BBX 37 47 4 0
BITMAP
FF80000FF8
FF80000FF8
FF80000FF8
FF80000FF8
FF80000FF8
FF80000FF8
FF80000FF8
FF80000FF8
FF80000FF8
FF80000FF8
FF80000FF8
FF80000FF8
FF80000FF8
FF80000FF8
FF80000FF8
FF80000FF8
FF80000FF8
FF80000FF8
FF80000FF8
FF80000FF8
FFFFFFFFF8
FFFFFFFFF8
FFFFFFFFF8
FFFFFFFFF8
FFFFFFFFF8
FFFFFFFFF8
FFFFFFFFF8
FF80000FF8
FF80000FF8
FF80000FF8
FF80000FF8
FF80000FF8
FF80000FF8
FF80000FF8
FF80000FF8
FF80000FF8
FF80000FF8
FF80000FF8
FF80000FF8
FF80000FF8
FF80000FF8
FF80000FF8
FF80000FF8
FF80000FF8
FF80000FF8
FF80000FF8
FF80000FF8
ENDCHAR
STARTCHAR 0049
ENCODING 73
SWIDTH 255 0
DWIDTH 17 0
BBX 10 47 4 0
BITMAP
FFC0
FFC0
FFC0
FFC0
FFC0
FFC0
FFC0
FFC0
FFC0
FFC0
FFC0
FFC0
FFC0
FFC0
FFC0
FFC0
FFC0
FFC0
FFC0
FFC0
FFC0
FFC0
FFC0
FFC0
FFC0
FFC0
FFC0
FFC0
FFC0
FFC0
FFC0
FFC0
FFC0
FFC0
FFC0
FFC0
FFC0
FFC0
FFC0
FFC0
FFC0
FFC0
FFC0
FFC0
FFC0
FFC0
FFC0
ENDCHAR
STARTCHAR 004A
ENCODING 74
SWIDTH 360 0
DWIDTH 24 0
BBX 17 47 3 0
BITMAP
00FF80
00FF80
00FF80
00FF80
00FF80
00FF80
00FF80
00FF80
00FF80
00FF80
00FF80
00FF80
00FF80
00FF80
00FF80
00FF80
00FF80
00FF80
00FF80
00FF80
00FF80
00FF80
00FF80
00FF80
00FF80
00FF80
00FF80
00FF80
00FF80
00FF80
00FF80
00FF80
00FF80
00FF80
00FF80
00FF80
00FF80
01FF80
01FF80
03FF80
FFFF00
FFFF00
FFFF00
FFFE00
FFFC00
FFF800
FFE000
ENDCHAR
STARTCHAR 004B
ENCODING 75
SWIDTH 645 0
DWIDTH 43 0
BBX 36 47 4 0
BITMAP
FF80007FF0
FF80007FE0
FF8000FFC0
FF8001FF80
FF8003FF80
FF8007FF00
FF800FFE00
FF801FFC00
FF803FF800
FF803FF000
FF807FE000
FF80FFE000
FF81FFC000
FF83FF8000
FF87FF0000
FF8FFE0000
FF8FFC0000
FF9FF80000
FFBFF00000
FFFFF00000
FFFFE00000
FFFFF00000
FFFFF00000
FFFFF80000
FFFFFC0000
FFFFFC0000
FFFFFE0000
FFF3FF0000
FFF3FF0000
FFE1FF8000
FFC0FFC000
FF80FFC000
FF807FE000
FF803FF000
FF803FF000
FF801FF800
FF800FFC00
FF800FFC00
FF8007FE00
FF8007FF00
FF8003FF00
FF8001FF80
FF8001FFC0
FF8000FFC0
FF80007FE0
FF80007FF0
FF80003FF0
ENDCHAR
STARTCHAR 004C
ENCODING 76
SWIDTH 525 0
DWIDTH 35 0
BBX 29 47 4 0
BITMAP
FF800000
FF800000
FF800000
FF800000
FF800000
FF800000
FF800000
FF800000
FF800000
FF800000
FF800000
FF800000
FF800000
FF800000
FF800000
FF800000
FF800000
FF800000
FF800000
FF800000
FF800000
FF800000
FF800000
FF800000
FF800000
FF800000
FF800000
FF800000
FF800000
FF800000
FF800000
FF800000
FF800000
FF800000
FF800000
FF800000
FF800000
FF800000
FF800000
FFFFFFF8
FFFFFFF8
FFFFFFF8
FFFFFFF8
FFFFFFF8
FFFFFFF8
FFFFFFF8
FFFFFFF8
ENDCHAR
STARTCHAR 004D
ENCODING 77
SWIDTH 825 0
DWIDTH 55 0
BBX 48 47 4 0
BITMAP
FFFC00003FFF
FFFC00003FFF
FFFC00003FFF
FFFE00007FFF
FFFE00007FFF
FFFE00007FFF
FFFF0000FFFF
FFFF0000FFFF
FFFF0001FFFF
FFFF8001FFFF
FFFF8001FFFF
FFFFC003FFFF
FFFFC003FFFF
FFFFC003FFFF
FFBFE007FDFF
FFBFE007FDFF
FFBFE007FDFF
FF9FF00FF9FF
FF9FF00FF9FF
FF9FF01FF9FF
FF8FF81FF1FF
FF8FF81FF1FF
FF8FFC3FF1FF
FF87FC3FE1FF
FF87FC3FE1FF
FF87FE7FE1FF
FF83FE7FC1FF
FF83FE7FC1FF
FF83FFFF81FF
FF81FFFF81FF
FF81FFFF81FF
FF80FFFF01FF
FF80FFFF01FF
FF80FFFF01FF
FF807FFE01FF
FF807FFE01FF
FF807FFE01FF
FF803FFC01FF
FF803FFC01FF
FF803FFC01FF
FF801FF801FF
FF801FF801FF
FF801FF801FF
FF800FF001FF
FF800FF001FF
FF800FF001FF
FF8007E001FF
ENDCHAR
STARTCHAR 004E
ENCODING 78
SWIDTH 690 0
DWIDTH 46 0
BBX 39 47 4 0
BITMAP
FFE00003FE
FFE00003FE
FFF00003FE
FFF00003FE
FFF80003FE
FFFC0003FE
FFFC0003FE
FFFE0003FE
FFFE0003FE
FFFF0003FE
FFFF8003FE
FFFF8003FE
FFFFC003FE
FFFFC003FE
FFFFE003FE
FFFFE003FE
FFBFF003FE
FFBFF803FE
FF9FF803FE
FF8FFC03FE
FF8FFC03FE
FF87FE03FE
FF87FF03FE
FF83FF03FE
FF81FF83FE
FF81FF83FE
FF80FFC3FE
FF80FFE3FE
FF807FE3FE
FF803FF3FE
FF803FF3FE
FF801FFBFE
FF801FFBFE
FF800FFFFE
FF8007FFFE
FF8007FFFE
FF8003FFFE
FF8003FFFE
FF8001FFFE
FF8000FFFE
FF8000FFFE
FF80007FFE
FF80007FFE
FF80003FFE
FF80001FFE
FF80001FFE
FF80000FFE
ENDCHAR
STARTCHAR 004F
ENCODING 79
SWIDTH 720 0
DWIDTH 48 0
BBX 42 49 3 -1
BITMAP
00001F000000
0003FFF00000
000FFFFE0000
003FFFFF8000
00FFFFFFC000
01FFFFFFE000
03FFFFFFF000
07FFFFFFF800
0FFFFFFFFC00
0FFF807FFC00
1FFE001FFE00
1FFC000FFF00
3FF80007FF00
3FF00003FF00
7FF00003FF80
7FE00001FF80
7FE00001FF80
FFE00000FFC0
FFC00000FFC0
FFC00000FFC0
FFC00000FFC0
FFC00000FFC0
FFC000007FC0
FFC000007FC0
FFC000007FC0
FFC000007FC0
FFC000007FC0
FFC00000FFC0
FFC00000FFC0
FFC00000FFC0
FFC00000FFC0
FFC00000FFC0
7FE00001FFC0
7FE00001FF80
7FF00003FF80
3FF00003FF80
3FF80007FF00
3FFC000FFF00
1FFE001FFE00
0FFF807FFE00
0FFFFFFFFC00
07FFFFFFF800
03FFFFFFF000
01FFFFFFE000
00FFFFFFC000
003FFFFF8000
001FFFFE0000
0003FFF00000
000016000000
ENDCHAR
STARTCHAR 0050
ENCODING 80
SWIDTH 585 0
DWIDTH 39 0
BBX 34 47 4 0
BITMAP
FFFFF00000
FFFFFF0000
FFFFFFC000
FFFFFFF000
FFFFFFF800
FFFFFFFC00
FFFFFFFE00
FFFFFFFE00
FF80FFFF00
FF8007FF80
FF8001FF80
FF8000FF80
FF8000FF80
FF80007FC0
FF80007FC0
FF80007FC0
FF80007FC0
FF80007FC0
FF80007FC0
FF8000FFC0
FF8000FF80
FF8001FF80
FF8003FF80
FF8007FF00
FF80FFFF00
FFFFFFFE00
FFFFFFFE00
FFFFFFFC00
FFFFFFF800
FFFFFFE000
FFFFFF8000
FFFFFE0000
FF80000000
FF80000000
FF80000000
FF80000000
FF80000000
FF80000000
FF80000000
FF80000000
FF80000000
FF80000000
FF80000000
FF80000000
FF80000000
FF80000000
FF80000000
ENDCHAR
STARTCHAR 0051
ENCODING 81
SWIDTH 720 0
DWIDTH 48 0
BBX 42 51 3 -3
BITMAP
00001F000000
0003FFF00000
000FFFFE0000
003FFFFF8000
00FFFFFFC000
01FFFFFFE000
03FFFFFFF000
07FFFFFFF800
0FFFFFFFFC00
0FFF807FFC00
1FFE001FFE00
1FFC000FFF00
3FF80007FF00
3FF00003FF00
7FF00003FF80
7FE00001FF80
7FE00001FF80
FFE00000FFC0
FFC00000FFC0
FFC00000FFC0
FFC00000FFC0
FFC00000FFC0
FFC000007FC0
FFC000007FC0
FFC000007FC0
FFC000007FC0
FFC000007FC0
FFC00000FFC0
FFC00000FFC0
FFC00000FFC0
FFC07FC0FFC0
FFC03FE0FFC0
7FE01FE1FFC0
7FE00FF1FF80
7FF007FBFF80
3FF007FFFF80
3FF803FFFF00
3FFC01FFFF00
1FFE00FFFE00
0FFF80FFFE00
0FFFFFFFFC00
07FFFFFFF800
03FFFFFFF000
01FFFFFFF000
00FFFFFFF000
003FFFFFF800
001FFFFFFC00
0003FFF3FE00
00001201FE00
00000000FF00
000000007F80
ENDCHAR
STARTCHAR 0052
ENCODING 82
SWIDTH 600 0
DWIDTH 40 0
BBX 34 47 4 0
BITMAP
FFFFF00000
FFFFFF0000
FFFFFFE000
FFFFFFF000
FFFFFFF800
FFFFFFFC00
FFFFFFFE00
FFFFFFFF00
FF807FFF00
FF8007FF80
FF8001FF80
FF8000FF80
FF8000FFC0
FF80007FC0
FF80007FC0
FF80007FC0
FF80007FC0
FF80007FC0
FF8000FFC0
FF8000FF80
FF8001FF80
FF8007FF80
FF80FFFF00
FFFFFFFF00
FFFFFFFE00
FFFFFFFC00
FFFFFFF800
FFFFFFE000
FFFFFFC000
FFFFFF8000
FF81FF8000
FF80FFC000
FF807FC000
FF807FE000
FF803FE000
FF803FF000
FF801FF800
FF801FF800
FF800FFC00
FF8007FC00
FF8007FE00
FF8003FF00
FF8003FF00
FF8001FF80
FF8000FF80
FF8000FFC0
FF80007FC0
ENDCHAR
STARTCHAR 0053
ENCODING 83
SWIDTH 600 0
DWIDTH 40 0
BBX 35 49 3 -1
BITMAP
0000E00000
003FFF0000
00FFFFC000
03FFFFF000
07FFFFF800
0FFFFFFC00
1FFFFFFE00
1FFFFFFF00
3FFE1FFF80
3FF007FF80
7FE003FF80
7FE001FFC0
7FC000FFC0
7FC000FFC0
7FC000FFC0
7FE0000000
7FE0000000
7FF0000000
3FF8000000
3FFF000000
3FFFF00000
1FFFFF0000
0FFFFFE000
07FFFFF800
03FFFFFC00
00FFFFFE00
003FFFFF00
0003FFFF80
00001FFFC0
000003FFC0
000001FFC0
000000FFE0
0000007FE0
FFC0007FE0
FFC0007FE0
FFC0007FE0
FFE0007FE0
7FE000FFC0
7FF001FFC0
7FFC03FFC0
3FFFFFFF80
3FFFFFFF80
1FFFFFFF00
0FFFFFFE00
07FFFFFC00
01FFFFF800
00FFFFE000
001FFF8000
0000E00000
ENDCHAR
STARTCHAR 0054
ENCODING 84
SWIDTH 585 0
DWIDTH 39 0
BBX 35 47 2 0
BITMAP
FFFFFFFFE0
FFFFFFFFE0
FFFFFFFFE0
FFFFFFFFE0
FFFFFFFFE0
FFFFFFFFE0
FFFFFFFFE0
FFFFFFFFE0
0007FC0000
0007FC0000
0007FC0000
0007FC0000
0007FC0000
0007FC0000
0007FC0000
0007FC0000
0007FC0000
0007FC0000
0007FC0000
0007FC0000
0007FC0000
0007FC0000
0007FC0000
0007FC0000
0007FC0000
0007FC0000
0007FC0000
0007FC0000
0007FC0000
0007FC0000
0007FC0000
0007FC0000
0007FC0000
0007FC0000
0007FC0000
0007FC0000
0007FC0000
0007FC0000
0007FC0000
0007FC0000
0007FC0000
0007FC0000
0007FC0000
0007FC0000
0007FC0000
0007FC0000
0007FC0000
ENDCHAR
STARTCHAR 0055
ENCODING 85
SWIDTH 675 0
DWIDTH 45 0
BBX 38 48 4 -1
BITMAP
FF800007FC
FF800007FC
FF800007FC
FF800007FC
FF800007FC
FF800007FC
FF800007FC
FF800007FC
FF800007FC
FF800007FC
FF800007FC
FF800007FC
FF800007FC
FF800007FC
FF800007FC
FF800007FC
FF800007FC
FF800007FC
FF800007FC
FF800007FC
FF800007FC
FF800007FC
FF800007FC
FF800007FC
FF800007FC
FF800007FC
FF800007FC
FF800007FC
FF800007FC
FF800007FC
FF80000FFC
FFC0000FFC
FFC0000FF8
FFC0001FF8
7FE0001FF8
7FE0003FF8
7FF0003FF0
3FF800FFF0
3FFF03FFF0
1FFFFFFFE0
1FFFFFFFC0
0FFFFFFFC0
07FFFFFF80
03FFFFFF00
01FFFFFC00
007FFFF000
001FFFC000
0000780000
ENDCHAR
STARTCHAR 0056
ENCODING 86
SWIDTH 645 0
DWIDTH 43 0
BBX 42 47 1 0
BITMAP
FF8000007FC0
FF800000FFC0
FFC00000FF80
7FC00000FF80
7FC00000FF80
7FE00001FF00
3FE00001FF00
3FE00001FF00
3FF00003FE00
1FF00003FE00
1FF00003FE00
1FF80007FE00
0FF80007FC00
0FF80007FC00
0FF8000FFC00
07FC000FF800
07FC000FF800
07FC001FF800
03FE001FF000
03FE001FF000
03FE003FF000
01FF003FE000
01FF003FE000
01FF007FE000
00FF807FC000
00FF807FC000
00FF807FC000
007FC0FF8000
007FC0FF8000
007FC0FF8000
003FE1FF0000
003FE1FF0000
003FE1FF0000
001FF3FE0000
001FF3FE0000
001FF3FE0000
001FFFFC0000
000FFFFC0000
000FFFFC0000
000FFFF80000
0007FFF80000
0007FFF80000
0007FFF00000
0003FFF00000
0003FFF00000
0003FFE00000
0001FFE00000
ENDCHAR
STARTCHAR 0057
ENCODING 87
SWIDTH 990 0
DWIDTH 66 0
BBX 65 47 1 0
BITMAP
FF80000FF00001FF80
FF80000FF80001FF00
FFC0001FF80001FF00
7FC0001FF80001FF00
7FC0001FF80003FF00
7FC0001FFC0003FE00
7FC0003FFC0003FE00
3FE0003FFC0003FE00
3FE0003FFE0007FE00
3FE0007FFE0007FC00
3FE0007FFE0007FC00
1FF0007FFF0007FC00
1FF000FFFF0007FC00
1FF000FFFF000FF800
1FF000FFFF800FF800
0FF801FFFF800FF800
0FF801FFFF800FF800
0FF801FF7FC01FF000
0FF801FF7FC01FF000
07F803FE7FC01FF000
07FC03FE3FC01FF000
07FC03FE3FE03FE000
07FC07FC3FE03FE000
03FC07FC3FE03FE000
03FE07FC1FF03FC000
03FE0FF81FF07FC000
03FE0FF81FF07FC000
01FE0FF80FF87FC000
01FF1FF80FF87F8000
01FF1FF00FF87F8000
01FF1FF007FCFF8000
00FF1FF007FCFF8000
00FFBFE007FCFF0000
00FFBFE007FCFF0000
007FBFE003FFFF0000
007FFFC003FFFF0000
007FFFC003FFFE0000
007FFFC001FFFE0000
003FFF8001FFFE0000
003FFF8001FFFE0000
003FFF8000FFFC0000
003FFF8000FFFC0000
001FFF0000FFFC0000
001FFF0000FFFC0000
001FFF00007FF80000
001FFE00007FF80000
000FFE00007FF80000
ENDCHAR
STARTCHAR 0058
ENCODING 88
SWIDTH 675 0
DWIDTH 45 0
BBX 41 47 2 0
BITMAP
FFC00001FF80
7FE00001FF80
7FE00003FF00
3FF00007FE00
1FF80007FE00
1FF8000FFC00
0FFC001FF800
0FFC001FF800
07FE003FF000
03FF003FE000
03FF007FE000
01FF80FFC000
00FF80FF8000
00FFC1FF8000
007FE3FF0000
003FE3FF0000
003FF7FE0000
001FFFFC0000
000FFFFC0000
000FFFF80000
0007FFF00000
0003FFF00000
0003FFE00000
0001FFC00000
0003FFE00000
0003FFE00000
0007FFF00000
000FFFF80000
000FFFF80000
001FFFFC0000
001FF7FE0000
003FF3FE0000
007FE3FF0000
007FC1FF8000
00FFC0FF8000
01FF80FFC000
01FF007FE000
03FF007FE000
07FE003FF000
07FE001FF800
0FFC001FF800
1FF8000FFC00
1FF8000FFE00
3FF00007FE00
7FF00003FF00
7FE00003FF00
FFC00001FF80
ENDCHAR
STARTCHAR 0059
ENCODING 89
SWIDTH 630 0
DWIDTH 42 0
BBX 39 47 2 0
BITMAP
FF800003FE
FFC00007FE
7FC00007FC
7FE0000FFC
3FE0000FF8
3FF0001FF8
1FF0001FF0
1FF8003FF0
0FF8003FE0
0FFC007FE0
07FC007FC0
07FE00FFC0
03FE00FF80
03FF00FF80
01FF01FF00
01FF81FF00
00FF83FE00
00FFC3FE00
007FC7FC00
007FC7FC00
003FEFF800
003FFFF800
001FFFF000
001FFFF000
000FFFE000
000FFFE000
0007FFC000
0007FFC000
0003FF8000
0003FF8000
0001FF0000
0001FF0000
0001FF0000
0001FF0000
0001FF0000
0001FF0000
0001FF0000
0001FF0000
0001FF0000
0001FF0000
0001FF0000
0001FF0000
0001FF0000
0001FF0000
0001FF0000
0001FF0000
0001FF0000
ENDCHAR
STARTCHAR 005A
ENCODING 90
SWIDTH 615 0
DWIDTH 41 0
BBX 35 47 3 0
BITMAP
FFFFFFFFE0
FFFFFFFFE0
FFFFFFFFE0
FFFFFFFFE0
FFFFFFFFE0
FFFFFFFFE0
FFFFFFFFE0
FFFFFFFFE0
FFFFFFFFE0
000001FFC0
000001FF80
000003FF80
000007FF00
00000FFE00
00001FFC00
00001FF800
00003FF800
00007FF000
0000FFE000
0001FFC000
0001FF8000
0003FF8000
0007FF0000
000FFE0000
001FFC0000
001FF80000
003FF80000
007FF00000
00FFE00000
01FFC00000
01FF800000
03FF800000
07FF000000
0FFE000000
1FFC000000
1FF8000000
3FF8000000
7FF0000000
FFE0000000
FFFFFFFFE0
FFFFFFFFE0
FFFFFFFFE0
FFFFFFFFE0
FFFFFFFFE0
FFFFFFFFE0
FFFFFFFFE0
FFFFFFFFE0
ENDCHAR
STARTCHAR 005B
ENCODING 91
SWIDTH 465 0
DWIDTH 31 0
BBX 22 68 5 -13
BITMAP
FFFFFC
FFFFFC
FFFFFC
FFFFFC
FFFFFC
FFFFFC
FFFFFC
FF0000
FF0000
FF0000
FF0000
FF0000
FF0000
FF0000
FF0000
FF0000
FF0000
FF0000
FF0000
FF0000
FF0000
FF0000
FF0000
FF0000
FF0000
FF0000
FF0000
FF0000
FF0000
FF0000
FF0000
FF0000
FF0000
FF0000
FF0000
FF0000
FF0000
FF0000
FF0000
FF0000
FF0000
FF0000
FF0000
FF0000
FF0000
FF0000
FF0000
FF0000
FF0000
FF0000
FF0000
FF0000
FF0000
FF0000
FF0000
FF0000
FF0000
FF0000
FF0000
FF0000
FF0000
FFFFFC
FFFFFC
FFFFFC
FFFFFC
FFFFFC
FFFFFC
FFFFFC
ENDCHAR
STARTCHAR 005C
ENCODING 92
SWIDTH 525 0
DWIDTH 35 0
BBX 32 66 2 -13
BITMAP
FF000000
FF800000
7F800000
7FC00000
7FC00000
3FC00000
3FE00000
3FE00000
1FE00000
1FF00000
1FF00000
0FF00000
0FF80000
0FF80000
07F80000
07FC0000
07FC0000
03FE0000
03FE0000
01FE0000
01FF0000
01FF0000
00FF0000
00FF8000
00FF8000
007F8000
007FC000
007FC000
003FC000
003FE000
003FE000
001FE000
001FF000
001FF000
000FF800
000FF800
0007F800
0007FC00
0007FC00
0003FC00
0003FE00
0003FE00
0001FE00
0001FF00
0001FF00
0000FF00
0000FF80
0000FF80
00007FC0
00007FC0
00003FC0
00003FE0
00003FE0
00001FE0
00001FF0
00001FF0
00000FF0
00000FF8
00000FF8
000007F8
000007FC
000007FC
000003FC
000003FE
000003FE
000001FF
ENDCHAR
STARTCHAR 005D
ENCODING 93
SWIDTH 450 0
DWIDTH 30 0
BBX 21 68 4 -13
BITMAP
FFFFF8
FFFFF8
FFFFF8
FFFFF8
FFFFF8
FFFFF8
FFFFF8
0003F8
0003F8
0003F8
0003F8
0003F8
0003F8
0003F8
0003F8
0003F8
0003F8
0003F8
0003F8
0003F8
0003F8
0003F8
0003F8
0003F8
0003F8
0003F8
0003F8
0003F8
0003F8
0003F8
0003F8
0003F8
0003F8
0003F8
0003F8
0003F8
0003F8
0003F8
0003F8
0003F8
0003F8
0003F8
0003F8
0003F8
0003F8
0003F8
0003F8
0003F8
0003F8
0003F8
0003F8
0003F8
0003F8
0003F8
0003F8
0003F8
0003F8
0003F8
0003F8
0003F8
0003F8
FFFFF8
FFFFF8
FFFFF8
FFFFF8
FFFFF8
FFFFF8
FFFFF8
ENDCHAR
STARTCHAR 005E
ENCODING 94
SWIDTH 420 0
DWIDTH 28 0
BBX 26 13 1 38
BITMAP
01FFE000
03FFE000
03FFF000
07FFF000
07FFF800
0FF7FC00
1FF3FC00
1FE3FE00
3FE1FE00
3FC1FF00
7FC0FF80
FF80FF80
FF807FC0
ENDCHAR
STARTCHAR 005F
ENCODING 95
SWIDTH 690 0
DWIDTH 46 0
BBX 33 7 7 0
BITMAP
FFFFFFFF80
FFFFFFFF80
FFFFFFFF80
FFFFFFFF80
FFFFFFFF80
FFFFFFFF80
FFFFFFFF80
ENDCHAR
STARTCHAR 0060
ENCODING 96
SWIDTH 285 0
DWIDTH 19 0
BBX 16 13 2 41
BITMAP
FFC0
7FC0
3FE0
3FE0
1FF0
0FF0
0FF8
07F8
03FC
03FC
01FE
00FE
00FF
ENDCHAR
STARTCHAR 0061
ENCODING 97
SWIDTH 615 0
DWIDTH 41 0
BBX 35 37 2 -1
BITMAP
003FE00000
00FFF83FE0
03FFFC3FE0
07FFFE3FE0
0FFFFF3FE0
0FFFFFBFE0
1FFFFFFFE0
1FFFBFFFE0
3FFC03FFE0
3FF801FFE0
7FF000FFE0
7FE000FFE0
7FE0007FE0
7FC0007FE0
7FC0007FE0
FFC0007FE0
FFC0003FE0
FFC0003FE0
FFC0003FE0
FFC0003FE0
FFC0007FE0
7FC0007FE0
7FC0007FE0
7FE0007FE0
7FE000FFE0
7FF000FFE0
3FF001FFE0
3FF803FFE0
3FFE07FFE0
1FFFFFFFE0
1FFFFFBFE0
0FFFFF3FE0
07FFFE3FE0
03FFFC3FE0
01FFF83FE0
007FF03FE0
0002000000
ENDCHAR
STARTCHAR 0062
ENCODING 98
SWIDTH 600 0
DWIDTH 40 0
BBX 34 51 4 -1
BITMAP
FF80000000
FF80000000
FF80000000
FF80000000
FF80000000
FF80000000
FF80000000
FF80000000
FF80000000
FF80000000
FF80000000
FF80000000
FF80000000
FF80000000
FF80FF0000
FF83FFE000
FF87FFF000
FF8FFFF800
FF9FFFFC00
FFBFFFFE00
FFFFFFFF00
FFFFFFFF00
FFF807FF80
FFF003FF80
FFE001FF80
FFE001FFC0
FFC000FFC0
FFC000FFC0
FFC0007FC0
FF80007FC0
FF80007FC0
FF80007FC0
FF80007FC0
FF80007FC0
FF80007FC0
FF80007FC0
FFC000FFC0
FFC000FFC0
FFC000FFC0
FFE001FF80
FFE001FF80
FFF003FF80
FFFC0FFF00
FFFFFFFF00
FFBFFFFE00
FFBFFFFE00
FF9FFFFC00
FF8FFFF800
FF87FFF000
FF81FFC000
00000C0000
ENDCHAR
STARTCHAR 0063
ENCODING 99
SWIDTH 570 0
DWIDTH 38 0
BBX 33 37 3 -1
BITMAP
000FF80000
007FFF0000
01FFFFC000
03FFFFE000
07FFFFF000
0FFFFFF800
1FFFFFFC00
3FFF7FFE00
3FF80FFE00
7FE003FE00
7FE003FF00
7FC001FF00
FFC001FF00
FF8000FF80
FF80000000
FF80000000
FF80000000
FF80000000
FF80000000
FF80000000
FF80000000
FF80000000
FF8000FF80
FFC001FF80
7FC001FF00
7FC001FF00
7FE003FF00
3FF007FE00
3FFC0FFE00
1FFFFFFC00
1FFFFFFC00
0FFFFFF800
07FFFFF000
03FFFFE000
00FFFF8000
003FFE0000
0001C00000
ENDCHAR
STARTCHAR 0064
ENCODING 100
SWIDTH 600 0
DWIDTH 40 0
BBX 34 51 3 -1
BITMAP
0000007FC0
0000007FC0
0000007FC0
0000007FC0
0000007FC0
0000007FC0
0000007FC0
0000007FC0
0000007FC0
0000007FC0
0000007FC0
0000007FC0
0000007FC0
0000007FC0
003FC07FC0
01FFF07FC0
03FFF87FC0
0FFFFC7FC0
0FFFFE7FC0
1FFFFF7FC0
3FFFFFFFC0
3FFFFFFFC0
7FF807FFC0
7FF003FFC0
7FE001FFC0
FFE001FFC0
FFC000FFC0
FFC000FFC0
FF8000FFC0
FF80007FC0
FF80007FC0
FF80007FC0
FF80007FC0
FF80007FC0
FF80007FC0
FF80007FC0
FF8000FFC0
FFC000FFC0
FFC000FFC0
7FE001FFC0
7FE001FFC0
7FF003FFC0
3FFC0FFFC0
3FFFFFFFC0
1FFFFF7FC0
1FFFFE7FC0
0FFFFE7FC0
07FFFC7FC0
03FFF87FC0
00FFE07FC0
0006000000
ENDCHAR
STARTCHAR 0065
ENCODING 101
SWIDTH 570 0
DWIDTH 38 0
BBX 33 37 3 -1
BITMAP
000FF80000
007FFF0000
01FFFFC000
03FFFFE000
07FFFFF000
0FFFFFF800
1FFFFFFC00
3FF80FFC00
3FE003FE00
7FE003FE00
7FC001FF00
7F8001FF00
FF8000FF00
FF8000FF00
FF8000FF00
FFFFFFFF80
FFFFFFFF80
FFFFFFFF80
FFFFFFFF80
FFFFFFFF80
FFFFFFFF80
FF80000000
FF80000000
FF80000000
7F80000000
7FC001FF00
7FC003FF00
3FE007FE00
3FF80FFE00
1FFFFFFC00
1FFFFFFC00
0FFFFFF800
07FFFFF000
01FFFFE000
00FFFF8000
003FFE0000
0000800000
ENDCHAR
STARTCHAR 0066
ENCODING 102
SWIDTH 375 0
DWIDTH 25 0
BBX 21 49 3 0
BITMAP
003FF8
00FFF8
01FFF8
03FFF8
07FFF8
07FFF8
07FF00
0FFC00
0FFC00
0FF800
0FF800
0FF800
0FF800
0FF800
FFFFF8
FFFFF8
FFFFF8
FFFFF8
FFFFF8
FFFFF8
FFFFF8
0FF800
0FF800
0FF800
0FF800
0FF800
0FF800
0FF800
0FF800
0FF800
0FF800
0FF800
0FF800
0FF800
0FF800
0FF800
0FF800
0FF800
0FF800
0FF800
0FF800
0FF800
0FF800
0FF800
0FF800
0FF800
0FF800
0FF800
0FF800
ENDCHAR
STARTCHAR 0067
ENCODING 103
SWIDTH 615 0
DWIDTH 41 0
BBX 34 51 3 -15
BITMAP
003FC00000
01FFF07FC0
03FFF87FC0
07FFFC7FC0
0FFFFE7FC0
1FFFFF7FC0
3FFFFF7FC0
3FFF3FFFC0
7FF807FFC0
7FF003FFC0
7FE001FFC0
FFE000FFC0
FFC000FFC0
FFC000FFC0
FF80007FC0
FF80007FC0
FF80007FC0
FF80007FC0
FF80007FC0
FF80007FC0
FF80007FC0
FFC000FFC0
FFC000FFC0
FFC000FFC0
FFE001FFC0
7FE001FFC0
7FF003FFC0
3FFC0FFFC0
3FFFFFFFC0
1FFFFF7FC0
1FFFFF7FC0
0FFFFE7FC0
07FFFC7FC0
03FFF87FC0
00FFE07FC0
001F007FC0
0000007FC0
000000FFC0
000000FFC0
000000FF80
000001FF80
000003FF80
00100FFF00
001FFFFF00
001FFFFE00
001FFFFC00
001FFFFC00
001FFFF800
001FFFE000
001FFF8000
0003FC0000
ENDCHAR
STARTCHAR 0068
ENCODING 104
SWIDTH 600 0
DWIDTH 40 0
BBX 32 50 4 0
BITMAP
FF800000
FF800000
FF800000
FF800000
FF800000
FF800000
FF800000
FF800000
FF800000
FF800000
FF800000
FF800000
FF800000
FF800000
FF80FF00
FF83FFE0
FF8FFFF0
FF9FFFF8
FF9FFFFC
FFBFFFFC
FFFFFFFE
FFFFFFFE
FFF80FFF
FFE007FF
FFE003FF
FFC003FF
FFC001FF
FF8001FF
FF8001FF
FF8001FF
FF8001FF
FF8001FF
FF8001FF
FF8001FF
FF8001FF
FF8001FF
FF8001FF
FF8001FF
FF8001FF
FF8001FF
FF8001FF
FF8001FF
FF8001FF
FF8001FF
FF8001FF
FF8001FF
FF8001FF
FF8001FF
FF8001FF
FF8001FF
ENDCHAR
STARTCHAR 0069
ENCODING 105
SWIDTH 270 0
DWIDTH 18 0
BBX 11 52 4 0
BITMAP
0400
3F80
7FC0
7FC0
FFC0
FFE0
FFC0
7FC0
7FC0
3F80
0E00
0000
0000
0000
0000
0000
0000
7FC0
7FC0
7FC0
7FC0
7FC0
7FC0
7FC0
7FC0
7FC0
7FC0
7FC0
7FC0
7FC0
7FC0
7FC0
7FC0
7FC0
7FC0
7FC0
7FC0
7FC0
7FC0
7FC0
7FC0
7FC0
7FC0
7FC0
7FC0
7FC0
7FC0
7FC0
7FC0
7FC0
7FC0
7FC0
ENDCHAR
STARTCHAR 006A
ENCODING 106
SWIDTH 270 0
DWIDTH 18 0
BBX 18 67 -3 -15
BITMAP
000C00
003F00
007F80
00FFC0
00FFC0
00FFC0
00FFC0
00FFC0
007F80
003F00
000C00
000000
000000
000000
000000
000000
00FF80
00FF80
00FF80
00FF80
00FF80
00FF80
00FF80
00FF80
00FF80
00FF80
00FF80
00FF80
00FF80
00FF80
00FF80
00FF80
00FF80
00FF80
00FF80
00FF80
00FF80
00FF80
00FF80
00FF80
00FF80
00FF80
00FF80
00FF80
00FF80
00FF80
00FF80
00FF80
00FF80
00FF80
00FF80
00FF80
00FF80
00FF80
00FF80
00FF80
00FF80
00FF80
01FF80
03FF80
FFFF80
FFFF00
FFFF00
FFFE00
FFFE00
FFF800
FFE000
ENDCHAR
STARTCHAR 006B
ENCODING 107
SWIDTH 555 0
DWIDTH 37 0
BBX 31 50 4 0
BITMAP
FFC00000
FFC00000
FFC00000
FFC00000
FFC00000
FFC00000
FFC00000
FFC00000
FFC00000
FFC00000
FFC00000
FFC00000
FFC00000
FFC00000
FFC00000
FFC00FFC
FFC01FF8
FFC03FF8
FFC03FF0
FFC07FE0
FFC0FFC0
FFC1FF80
FFC3FF80
FFC7FF00
FFC7FE00
FFCFFC00
FFDFFC00
FFFFF800
FFFFF000
FFFFE000
FFFFC000
FFFFE000
FFFFE000
FFFFF000
FFDFF800
FFDFF800
FFCFFC00
FFC7FE00
FFC7FE00
FFC3FF00
FFC1FF80
FFC1FF80
FFC0FFC0
FFC07FE0
FFC07FE0
FFC03FF0
FFC01FF8
FFC01FF8
FFC00FFC
FFC007FE
ENDCHAR
STARTCHAR 006C
ENCODING 108
SWIDTH 330 0
DWIDTH 22 0
BBX 16 50 4 0
BITMAP
FF80
FF80
FF80
FF80
FF80
FF80
FF80
FF80
FF80
FF80
FF80
FF80
FF80
FF80
FF80
FF80
FF80
FF80
FF80
FF80
FF80
FF80
FF80
FF80
FF80
FF80
FF80
FF80
FF80
FF80
FF80
FF80
FF80
FF80
FF80
FF80
FF80
FF80
FF80
FFC0
FFC0
FFC0
FFE0
7FF8
7FFF
7FFF
7FFF
3FFF
1FFF
07FF
ENDCHAR
STARTCHAR 006D
ENCODING 109
SWIDTH 915 0
DWIDTH 61 0
BBX 54 36 4 0
BITMAP
0000FE0007FC00
FF83FF801FFF00
FF8FFFC03FFF80
FF9FFFF07FFFC0
FF9FFFF0FFFFE0
FFBFFFF9FFFFE0
FFFFFFFDFFFFF0
FFFFFFFFFFFFF0
FFF83FFFE07FF8
FFE00FFFC03FF8
FFC007FF801FF8
FFC007FF000FF8
FF8003FF000FFC
FF8003FF000FFC
FF8003FE000FFC
FF8003FE000FFC
FF8003FE000FFC
FF8003FE000FFC
FF8003FE000FFC
FF8003FE000FFC
FF8003FE000FFC
FF8003FE000FFC
FF8003FE000FFC
FF8003FE000FFC
FF8003FE000FFC
FF8003FE000FFC
FF8003FE000FFC
FF8003FE000FFC
FF8003FE000FFC
FF8003FE000FFC
FF8003FE000FFC
FF8003FE000FFC
FF8003FE000FFC
FF8003FE000FFC
FF8003FE000FFC
FF8003FE000FFC
ENDCHAR
STARTCHAR 006E
ENCODING 110
SWIDTH 600 0
DWIDTH 40 0
BBX 32 36 4 0
BITMAP
0000FF00
FF83FFE0
FF8FFFF0
FF9FFFF8
FF9FFFFC
FFBFFFFC
FFFFFFFE
FFFFFFFE
FFF80FFF
FFE007FF
FFE003FF
FFC003FF
FFC001FF
FF8001FF
FF8001FF
FF8001FF
FF8001FF
FF8001FF
FF8001FF
FF8001FF
FF8001FF
FF8001FF
FF8001FF
FF8001FF
FF8001FF
FF8001FF
FF8001FF
FF8001FF
FF8001FF
FF8001FF
FF8001FF
FF8001FF
FF8001FF
FF8001FF
FF8001FF
FF8001FF
ENDCHAR
STARTCHAR 006F
ENCODING 111
SWIDTH 585 0
DWIDTH 39 0
BBX 33 37 3 -1
BITMAP
000FF80000
007FFF0000
01FFFFC000
03FFFFE000
07FFFFF000
0FFFFFF800
1FFFFFFC00
3FFF7FFE00
3FF80FFE00
7FE003FF00
7FE003FF00
7FC001FF00
FFC001FF80
FF8000FF80
FF8000FF80
FF8000FF80
FF8000FF80
FF8000FF80
FF8000FF80
FF8000FF80
FF8000FF80
FF8000FF80
FF8000FF80
FFC000FF80
7FC001FF80
7FC001FF00
7FE003FF00
3FF007FE00
3FFC1FFE00
1FFFFFFC00
1FFFFFFC00
0FFFFFF800
07FFFFF000
03FFFFE000
00FFFF8000
003FFE0000
0000800000
ENDCHAR
STARTCHAR 0070
ENCODING 112
SWIDTH 615 0
DWIDTH 41 0
BBX 34 50 4 -14
BITMAP
0000FF0000
FF83FFE000
FF87FFF000
FF8FFFF800
FF9FFFFC00
FFBFFFFE00
FFFFFFFF00
FFFFFFFF00
FFF807FF80
FFF003FF80
FFE001FF80
FFE001FFC0
FFC000FFC0
FFC000FFC0
FFC0007FC0
FF80007FC0
FF80007FC0
FF80007FC0
FF80007FC0
FF80007FC0
FF80007FC0
FF80007FC0
FFC000FFC0
FFC000FFC0
FFC000FFC0
FFE001FF80
FFE001FF80
FFF003FF80
FFFC0FFF00
FFFFFFFF00
FFBFFFFE00
FFBFFFFE00
FF9FFFFC00
FF8FFFF800
FF87FFF000
FF81FFC000
FF800C0000
FF80000000
FF80000000
FF80000000
FF80000000
FF80000000
FF80000000
FF80000000
FF80000000
FF80000000
FF80000000
FF80000000
FF80000000
FF80000000
ENDCHAR
STARTCHAR 0071
ENCODING 113
SWIDTH 615 0
DWIDTH 41 0
BBX 35 50 3 -14
BITMAP
003FC00000
00FFF07FE0
03FFFC7FE0
07FFFE7FE0
0FFFFF7FE0
1FFFFF7FE0
1FFFFFFFE0
3FFFFFFFE0
3FFC07FFE0
7FF003FFE0
7FF001FFE0
7FE000FFE0
7FC000FFE0
FFC0007FE0
FFC0007FE0
FFC0007FE0
FFC0007FE0
FF80007FE0
FF80007FE0
FF80007FE0
FFC0007FE0
FFC0007FE0
FFC0007FE0
FFC000FFE0
7FE000FFE0
7FE000FFE0
7FF001FFE0
3FF803FFE0
3FFC07FFE0
3FFFFFFFE0
1FFFFF7FE0
0FFFFF7FE0
0FFFFE7FE0
07FFFC7FE0
01FFF87FE0
007FE07FE0
0000007FE0
0000007FE0
0000007FE0
0000007FE0
0000007FE0
0000007FE0
0000007FE0
0000007FE0
0000007FE0
0000007FE0
0000007FE0
0000007FE0
0000007FE0
0000007FE0
ENDCHAR
STARTCHAR 0072
ENCODING 114
SWIDTH 375 0
DWIDTH 25 0
BBX 21 35 4 0
BITMAP
FF81F8
FF87F8
FF8FF8
FF9FF8
FFBFF8
FFFFF8
FFFFF8
FFFFF8
FFFC00
FFF000
FFE000
FFC000
FFC000
FFC000
FF8000
FF8000
FF8000
FF8000
FF8000
FF8000
FF8000
FF8000
FF8000
FF8000
FF8000
FF8000
FF8000
FF8000
FF8000
FF8000
FF8000
FF8000
FF8000
FF8000
FF8000
ENDCHAR
STARTCHAR 0073
ENCODING 115
SWIDTH 480 0
DWIDTH 32 0
BBX 28 37 3 -1
BITMAP
007FC000
03FFF800
0FFFFE00
1FFFFF00
3FFFFF80
3FFFFF80
7FFFFFC0
7FC0FFC0
7F807FE0
FF803FE0
FF803FE0
FF800000
7F800000
7FE00000
7FFC0000
3FFFE000
3FFFFC00
1FFFFE00
07FFFF80
03FFFFC0
007FFFC0
0007FFE0
00007FE0
00003FF0
FF801FF0
FF801FF0
FF801FF0
FFC03FE0
FFE07FE0
7FFFFFE0
7FFFFFC0
3FFFFFC0
1FFFFF80
0FFFFF00
07FFFC00
00FFF000
00080000
ENDCHAR
STARTCHAR 0074
ENCODING 116
SWIDTH 420 0
DWIDTH 28 0
BBX 23 47 2 0
BITMAP
03FE00
03FE00
03FE00
03FE00
03FE00
03FE00
03FE00
03FE00
03FE00
03FE00
03FE00
03FE00
FFFFFE
FFFFFE
FFFFFE
FFFFFE
FFFFFE
FFFFFE
FFFFFE
03FE00
03FE00
03FE00
03FE00
03FE00
03FE00
03FE00
03FE00
03FE00
03FE00
03FE00
03FE00
03FE00
03FE00
03FE00
03FE00
03FE00
03FE00
03FE00
03FE00
03FF00
03FFE6
03FFFE
03FFFE
01FFFE
00FFFE
007FFE
001FFE
ENDCHAR
STARTCHAR 0075
ENCODING 117
SWIDTH 585 0
DWIDTH 39 0
BBX 32 36 4 -1
BITMAP
FF8001FF
FF8001FF
FF8001FF
FF8001FF
FF8001FF
FF8001FF
FF8001FF
FF8001FF
FF8001FF
FF8001FF
FF8001FF
FF8001FF
FF8001FF
FF8001FF
FF8001FF
FF8001FF
FF8001FF
FF8001FF
FF8001FF
FF8001FF
FF8003FF
FF8003FF
FF8003FF
FFC003FF
FFC003FF
FFE007FF
FFE00FFF
7FF83FFF
7FFFFFFF
3FFFFDFF
3FFFF9FF
1FFFF9FF
1FFFF1FF
07FFE1FF
03FF81FF
00380000
ENDCHAR
STARTCHAR 0076
ENCODING 118
SWIDTH 555 0
DWIDTH 37 0
BBX 35 35 1 0
BITMAP
FF80003FE0
7FC0003FC0
7FC0007FC0
7FC0007FC0
3FE0007F80
3FE000FF80
3FE000FF80
1FF000FF00
1FF001FF00
1FF001FF00
0FF001FE00
0FF803FE00
0FF803FE00
07F803FC00
07FC07FC00
07FC07FC00
03FC07F800
03FE0FF800
03FE0FF800
01FE0FF000
01FF1FF000
01FF1FF000
00FF1FE000
00FFBFE000
00FFBFE000
007FBFC000
007FFFC000
007FFFC000
003FFF8000
003FFF8000
003FFF8000
001FFF0000
001FFF0000
001FFF0000
000FFE0000
ENDCHAR
STARTCHAR 0077
ENCODING 119
SWIDTH 810 0
DWIDTH 54 0
BBX 51 35 2 0
BITMAP
FF0007FC001FE0
FF0007FC001FE0
FF8007FC003FE0
FF800FFE003FE0
7F800FFE003FC0
7F800FFE003FC0
7FC01FFE007FC0
7FC01FFF007FC0
3FC01FFF007F80
3FC01FFF007F80
3FC03FFF80FF80
3FE03FFF80FF80
1FE03FFF80FF00
1FE03FFF80FF00
1FE07FBFC0FF00
1FF07FBFC1FF00
0FF07FBFC1FE00
0FF0FF1FE1FE00
0FF0FF1FE1FE00
0FF8FF1FE3FE00
07F8FF0FE3FC00
07F9FE0FF3FC00
07F9FE0FF3FC00
03FDFE0FF7F800
03FFFC07FFF800
03FFFC07FFF800
03FFFC07FFF800
01FFFC07FFF000
01FFF803FFF000
01FFF803FFF000
01FFF803FFF000
00FFF803FFE000
00FFF001FFE000
00FFF001FFE000
00FFF001FFE000
ENDCHAR
STARTCHAR 0078
ENCODING 120
SWIDTH 570 0
DWIDTH 38 0
BBX 33 35 2 0
BITMAP
FFC001FF80
7FE001FF00
7FE003FF00
3FF007FE00
1FF007FE00
1FF80FFC00
0FFC0FF800
0FFC1FF800
07FE1FF000
03FE3FF000
03FF3FE000
01FF7FC000
01FFFFC000
00FFFF8000
007FFF0000
007FFF0000
003FFE0000
003FFE0000
003FFE0000
007FFF0000
007FFF8000
00FFFF8000
01FFFFC000
01FF7FC000
03FF3FE000
03FE3FF000
07FE1FF000
0FFC1FF800
0FF80FFC00
1FF80FFC00
1FF007FE00
3FF003FE00
7FE003FF00
7FE001FF80
FFC001FF80
ENDCHAR
STARTCHAR 0079
ENCODING 121
SWIDTH 540 0
DWIDTH 36 0
BBX 34 50 2 -15
BITMAP
FF8000FFC0
FF8000FF80
FFC000FF80
7FC000FF80
7FC001FF00
7FE001FF00
3FE001FE00
3FE003FE00
1FE003FE00
1FF003FC00
1FF007FC00
0FF007FC00
0FF807F800
0FF80FF800
07F80FF000
07FC0FF000
03FC1FF000
03FC1FE000
03FE1FE000
01FE3FC000
01FE3FC000
01FF3FC000
00FF7F8000
00FF7F8000
00FFFF8000
007FFF0000
007FFF0000
003FFE0000
003FFE0000
003FFE0000
001FFC0000
001FFC0000
001FF80000
000FF80000
000FF80000
000FF00000
001FF00000
001FF00000
003FE00000
003FE00000
007FC00000
00FFC00000
01FF800000
7FFF800000
7FFF000000
7FFF000000
7FFE000000
7FFC000000
7FF0000000
3F80000000
ENDCHAR
STARTCHAR 007A
ENCODING 122
SWIDTH 495 0
DWIDTH 33 0
BBX 27 35 3 0
BITMAP
7FFFFFE0
7FFFFFE0
7FFFFFE0
7FFFFFE0
7FFFFFE0
7FFFFFE0
7FFFFFE0
00007FE0
0000FFC0
0001FF80
0001FF00
0003FF00
0007FE00
000FFC00
001FF800
001FF000
003FE000
007FE000
00FFC000
01FF8000
03FF0000
03FE0000
07FC0000
0FFC0000
1FF80000
3FF00000
7FE00000
7FC00000
FFFFFFE0
FFFFFFE0
FFFFFFE0
FFFFFFE0
FFFFFFE0
FFFFFFE0
FFFFFFE0
ENDCHAR
STARTCHAR 007B
ENCODING 123
SWIDTH 435 0
DWIDTH 29 0
BBX 21 73 5 -16
BITMAP
0000F8
001FF8
007FF8
00FFF8
01FFF8
01FFF8
03FFF8
03FE00
03FC00
03FC00
07F800
07F800
07F800
07F800
07F800
07F800
07F800
07F800
07F800
07F800
07F800
07F800
07F800
07F800
07F800
07F800
07F800
07F800
07F800
07F800
07F800
07F800
07F800
07F000
7FF000
FFE000
FF8000
FF8000
FFE000
1FF000
07F000
07F800
07F800
07F800
07F800
07F800
07F800
07F800
07F800
07F800
07F800
07F800
07F800
07F800
07F800
07F800
07F800
07F800
07F800
07F800
07F800
07F800
07F800
07F800
03FC00
03FC00
03FE00
03FFF8
01FFF8
01FFF8
00FFF8
007FF8
001FF8
ENDCHAR
STARTCHAR 007C
ENCODING 124
SWIDTH 300 0
DWIDTH 20 0
BBX 8 80 6 -17
BITMAP
FF
FF
FF
FF
FF
FF
FF
FF
FF
FF
FF
FF
FF
FF
FF
FF
FF
FF
FF
FF
FF
FF
FF
FF
FF
FF
FF
FF
FF
FF
FF
FF
FF
FF
FF
FF
FF
FF
FF
FF
FF
FF
FF
FF
FF
FF
FF
FF
FF
FF
FF
FF
FF
FF
FF
FF
FF
FF
FF
FF
FF
FF
FF
FF
FF
FF
FF
FF
FF
FF
FF
FF
FF
FF
FF
FF
FF
FF
FF
FF
ENDCHAR
STARTCHAR 007D
ENCODING 125
SWIDTH 450 0
DWIDTH 30 0
BBX 21 73 6 -16
BITMAP
FC0000
FFC000
FFF000
FFF800
FFFC00
FFFC00
FFFE00
03FE00
01FE00
01FE00
01FE00
01FE00
01FE00
01FE00
01FE00
01FE00
01FE00
01FE00
01FE00
01FE00
01FE00
01FE00
01FE00
01FE00
01FE00
01FE00
01FE00
01FE00
00FE00
00FE00
00FF00
00FF00
00FF00
00FF00
007FF0
003FF8
000FF8
000FF8
003FF8
007FC0
00FF00
00FF00
00FF00
00FF00
00FE00
00FE00
01FE00
01FE00
01FE00
01FE00
01FE00
01FE00
01FE00
01FE00
01FE00
01FE00
01FE00
01FE00
01FE00
01FE00
01FE00
01FE00
01FE00
01FE00
01FE00
01FE00
03FE00
FFFC00
FFFC00
FFF800
FFF800
FFE000
FFC000
ENDCHAR
STARTCHAR 007E
ENCODING 126
SWIDTH 600 0
DWIDTH 40 0
BBX 26 9 7 21
BITMAP
018007C0
0FF807C0
3FFE0FC0
3FFFFFC0
7FFFFF80
7FFFFF80
FE3FFF00
FC0FFE00
F801F800
ENDCHAR
STARTCHAR 00A0
ENCODING 160
SWIDTH 225 0
DWIDTH 15 0
BBX 0 0 0 0
BITMAP
ENDCHAR
STARTCHAR 00A1
ENCODING 161
SWIDTH 270 0
DWIDTH 18 0
BBX 10 50 4 -17
BITMAP
0E00
3F80
7F80
7FC0
FFC0
FFC0
FFC0
7FC0
3F80
1F00
0000
0000
0000
0000
0000
0000
3F80
3F80
3F80
3F80
3F80
3F80
3F80
3F80
7F80
7F80
7F80
7F80
7F80
7F80
7F80
7F80
7F80
7F80
7F80
7F80
7FC0
7FC0
7FC0
7FC0
7FC0
7FC0
7FC0
7FC0
7FC0
7FC0
7FC0
7FC0
7FC0
7FC0
ENDCHAR
STARTCHAR 00A2
ENCODING 162
SWIDTH 600 0
DWIDTH 40 0
BBX 33 46 3 -5
BITMAP
0001C00000
0001C00000
0001C00000
0001C00000
0001C00000
000FFC0000
007FFF0000
01FFFFC000
03FFFFE000
07FFFFF000
0FFFFFF800
1FFFFFFC00
3FFFFFFE00
3FF9C7FE00
7FF1C3FF00
7FE1C3FF00
7FC1C1FF00
FFC1C1FF00
FF81C0FF80
FF81C00000
FF81C00000
FF81C00000
FF81C00000
FF81C00000
FF81C00000
FF81C00000
FF81C00000
FF81C0FF80
FFC1C1FF80
7FC1C1FF00
7FC1C1FF00
7FE1C3FF00
3FF1C7FE00
3FFDCFFE00
1FFFFFFC00
1FFFFFFC00
0FFFFFF800
07FFFFF000
03FFFFE000
00FFFF8000
003FFE0000
0001C00000
0001C00000
0001C00000
0001C00000
0001C00000
ENDCHAR
STARTCHAR 00A3
ENCODING 163
SWIDTH 615 0
DWIDTH 41 0
BBX 35 48 3 0
BITMAP
0003F80000
003FFF8000
00FFFFF000
03FFFFF800
07FFFFFC00
0FFFFFFE00
1FFFFFFF00
1FFFFFFF80
3FFC07FF80
3FF803FFC0
3FF001FFC0
7FF000FFC0
7FF000FFC0
7FE000FFE0
7FE000FFE0
7FF0000000
3FF0000000
3FF8000000
3FF8000000
3FFC000000
1FFE000000
0FFE000000
0FFF000000
07FF800000
03FF800000
FFFFFFE000
FFFFFFE000
FFFFFFE000
FFFFFFE000
FFFFFFE000
FFFFFFE000
007FC00000
007FC00000
007FC00000
007FC00000
007F800000
00FF000000
00FE000000
01FC000000
07F8000000
FFFFFFFFE0
FFFFFFFFE0
FFFFFFFFE0
FFFFFFFFE0
FFFFFFFFE0
FFFFFFFFE0
FFFFFFFFE0
FFFFFFFFE0
ENDCHAR
STARTCHAR 00A4
ENCODING 164
SWIDTH 615 0
DWIDTH 41 0
BBX 34 37 4 6
BITMAP
1800000600
3C00000F00
7E07F81F80
FF3FFF3FC0
FFFFFFFFC0
7FFFFFFF80
3FFFFFFF00
1FFFFFFE00
0FFFFFFC00
1FFC0FFE00
1FF003FE00
3FC001FF00
3F8000FF00
7F80007F80
7F00003F80
7F00003F80
7F00003F80
7E00003F80
7E00003F80
7E00003F80
7F00003F80
7F00003F80
7F00003F80
7F80007F80
3FC000FF00
3FC001FF00
1FF003FE00
1FFC0FFE00
1FFFFFFE00
3FFFFFFF00
7FFFFFFF80
FFFFFFFF80
FF7FFFFFC0
FE3FFF3FC0
7E03F01F80
3C00000F00
1800000600
ENDCHAR
STARTCHAR 00A5
ENCODING 165
SWIDTH 645 0
DWIDTH 43 0
BBX 39 47 2 0
BITMAP
FF800003FE
FFC00007FE
7FC00007FC
7FE0000FFC
3FE0000FF8
3FF0001FF8
1FF0001FF0
1FF8003FF0
0FF8003FE0
0FFC007FE0
07FC007FC0
07FE00FFC0
03FE00FF80
03FF00FF80
01FF01FF00
01FF81FF00
00FF83FE00
00FFC3FE00
007FC7FC00
007FC7FC00
003FEFF800
003FFFF800
001FFFF000
001FFFF000
000FFFE000
000FFFE000
0007FFC000
0007FFC000
01FFFFFF00
01FFFFFF00
01FFFFFF00
01FFFFFF00
01FFFFFF00
0001FF0000
0001FF0000
0001FF0000
01FFFFFF00
01FFFFFF00
01FFFFFF00
01FFFFFF00
01FFFFFF00
0001FF0000
0001FF0000
0001FF0000
0001FF0000
0001FF0000
0001FF0000
ENDCHAR
STARTCHAR 00A6
ENCODING 166
SWIDTH 300 0
DWIDTH 20 0
BBX 8 80 6 -17
BITMAP
FF
FF
FF
FF
FF
FF
FF
FF
FF
FF
FF
FF
FF
FF
FF
FF
FF
FF
FF
FF
FF
FF
FF
FF
FF
FF
FF
FF
FF
FF
FF
FF
FF
FF
FF
00
00
00
00
00
00
00
00
00
00
00
FF
FF
FF
FF
FF
FF
FF
FF
FF
FF
FF
FF
FF
FF
FF
FF
FF
FF
FF
FF
FF
FF
FF
FF
FF
FF
FF
FF
FF
FF
FF
FF
FF
FF
ENDCHAR
STARTCHAR 00A7
ENCODING 167
SWIDTH 555 0
DWIDTH 37 0
BBX 32 49 3 -1
BITMAP
00074000
00FFFC00
03FFFF00
07FFFF80
0FFFFFC0
1FFFFFE0
1FFFFFF0
3FF03FF8
3FE01FF8
3FE00FF8
3FC00FFC
3FE00000
3FF00000
1FFC0000
1FFFE000
0FFFFE00
0FFFFF80
3FFFFFE0
7FFFFFF0
7FFFFFFC
FFC7FFFC
FF803FFE
FF000FFE
FF0003FE
FF8003FF
FF8001FF
7FF003FF
7FFF03FE
3FFFFFFE
1FFFFFFC
0FFFFFFC
03FFFFF8
00FFFFE0
003FFFF0
0003FFF8
00003FF8
00000FF8
7FC00FF8
7FC007FC
7FE00FF8
7FF01FF8
3FFEFFF8
3FFFFFF8
1FFFFFF0
0FFFFFE0
07FFFFC0
01FFFF80
007FFE00
0003C000
ENDCHAR
STARTCHAR 00A8
ENCODING 168
SWIDTH 465 0
DWIDTH 31 0
BBX 28 11 2 41
BITMAP
04000200
3F801FC0
7FC03FE0
7FC03FE0
7FE07FF0
FFE07FF0
7FE07FF0
7FC03FE0
7FC03FE0
3F801FC0
0E000700
ENDCHAR
STARTCHAR 00A9
ENCODING 169
SWIDTH 795 0
DWIDTH 53 0
BBX 48 48 3 -1
BITMAP
00007FFE0000
0003FFFFC000
000FFFFFF000
003FFFFFFC00
007FFFFFFE00
00FFF81FFF00
01FF8001FF80
03FE00003FC0
07F800001FE0
0FF000000FF0
1FE0000007F0
1FC01FF803F8
3F807FFE01FC
3F00FFFF80FC
3F01FFFFC0FC
7E03FFFFE07E
7E07F00FE07E
7C0FE007F07E
FC0FC003F03E
FC0F8001F83F
FC1F8001803F
FC1F8000003F
F81F8000003F
F81F0000003F
F81F0000003F
F81F8000003F
FC1F8000003F
FC1F8001E03F
FC0FC001F83F
FC0FC003F03E
7E07E007F07E
7E07F81FE07E
7E03FFFFE0FC
3F01FFFFC0FC
3F80FFFF01FC
1F807FFE01F8
1FC00FF803F8
0FE0000007F0
0FF000000FF0
07FC00003FE0
03FE00007FC0
01FFC003FF80
00FFFFFFFF00
007FFFFFFE00
001FFFFFF800
0007FFFFE000
0001FFFF8000
00001FF80000
ENDCHAR
STARTCHAR 00AA
ENCODING 170
SWIDTH 165 0
DWIDTH 11 0
BBX 10 10 0 25
BITMAP
3DC0
7FC0
7BC0
71C0
F1C0
F1C0
7BC0
7FC0
3DC0
1800
ENDCHAR
STARTCHAR 00AB
ENCODING 171
SWIDTH 690 0
DWIDTH 46 0
BBX 41 29 3 6
BITMAP
000FF800FF80
001FF001FF00
003FE003FE00
007FC007FC00
00FF800FF800
01FF001FF000
01FF003FE000
03FE007FE000
07FC007FC000
0FF800FF8000
1FF001FF0000
3FE003FE0000
7FC007FC0000
FF800FF80000
FF800FF80000
7FC00FFC0000
3FE007FE0000
3FE003FE0000
1FF001FF0000
0FF800FF8000
07FC007FC000
03FE003FE000
01FF001FF000
00FF800FF800
007FC007FC00
003FE003FC00
001FE003FE00
001FF001FF00
000FF800FF80
ENDCHAR
STARTCHAR 00AC
ENCODING 172
SWIDTH 645 0
DWIDTH 43 0
BBX 33 18 5 17
BITMAP
FFFFFFFF80
FFFFFFFF80
FFFFFFFF80
FFFFFFFF80
FFFFFFFF80
FFFFFFFF80
FFFFFFFF80
0000003F80
0000003F80
0000003F80
0000003F80
0000003F80
0000003F80
0000003F80
0000003F80
0000003F80
0000003F80
0000003F80
ENDCHAR
STARTCHAR 00AD
ENCODING 173
SWIDTH 600 0
DWIDTH 40 0
BBX 24 7 8 17
BITMAP
FFFFFF
FFFFFF
FFFFFF
FFFFFF
FFFFFF
FFFFFF
FFFFFF
ENDCHAR
STARTCHAR 00AE
ENCODING 174
SWIDTH 330 0
DWIDTH 22 0
BBX 17 17 3 30
BITMAP
01C000
0FF800
1FFC00
380E00
700700
67E300
E67300
C63380
C7E380
C7C380
E66300
E66300
763700
780E00
3E7E00
1FF800
07F000
ENDCHAR
STARTCHAR 00AF
ENCODING 175
SWIDTH 375 0
DWIDTH 25 0
BBX 21 4 2 43
BITMAP
FFFFF8
FFFFF8
FFFFF8
FFFFF8
ENDCHAR
STARTCHAR 00B0
ENCODING 176
SWIDTH 315 0
DWIDTH 21 0
BBX 14 15 4 44
BITMAP
0300
1FE0
3FF0
7FF8
FFF8
F87C
F03C
F03C
F03C
F07C
FCFC
7FF8
3FF0
1FE0
0FC0
ENDCHAR
STARTCHAR 00B1
ENCODING 177
SWIDTH 600 0
DWIDTH 40 0
BBX 28 40 6 0
BITMAP
003FC000
003FC000
003FC000
003FC000
003FC000
003FC000
003FC000
003FC000
003FC000
003FC000
FFFFFFF0
FFFFFFF0
FFFFFFF0
FFFFFFF0
FFFFFFF0
FFFFFFF0
FFFFFFF0
FFFFFFF0
003FC000
003FC000
003FC000
003FC000
003FC000
003FC000
003FC000
003FC000
003FC000
003FC000
00000000
00000000
00000000
00000000
00000000
00000000
FFFFFFF0
FFFFFFF0
FFFFFFF0
FFFFFFF0
FFFFFFF0
FFFFFFF0
ENDCHAR
STARTCHAR 00B2
ENCODING 178
SWIDTH 300 0
DWIDTH 20 0
BBX 17 25 2 26
BITMAP
07F000
1FFC00
3FFE00
7FFF00
7FFF00
FC1F00
F81F80
F80F80
F81F80
001F80
001F00
003F00
007E00
00FC00
01FC00
03F000
0FE000
1FC000
3F8000
7F0000
FE0000
FFFF80
FFFF80
FFFF80
FFFF80
ENDCHAR
STARTCHAR 00B3
ENCODING 179
SWIDTH 315 0
DWIDTH 21 0
BBX 18 26 2 25
BITMAP
07F800
1FFE00
3FFF00
7FFF80
7FFF80
FC0FC0
FC0FC0
000FC0
000FC0
000FC0
01FF80
01FF00
01FE00
01FF00
01FF80
000FC0
000FC0
0007C0
FC07C0
FC0FC0
FF1FC0
FFFF80
7FFF80
3FFF00
1FFE00
03F000
ENDCHAR
STARTCHAR 00B4
ENCODING 180
SWIDTH 285 0
DWIDTH 19 0
BBX 15 13 2 41
BITMAP
03FE
03FE
07FC
07F8
0FF8
0FF0
1FF0
1FE0
3FC0
3FC0
7F80
7F00
FF00
ENDCHAR
STARTCHAR 00B5
ENCODING 181
SWIDTH 660 0
DWIDTH 44 0
BBX 37 49 4 -14
BITMAP
FF8007FC00
FF8007FC00
FF8007FC00
FF8007FC00
FF8007FC00
FF8007FC00
FF8007FC00
FF8007FC00
FF8007FC00
FF8007FC00
FF8007FC00
FF8007FC00
FF8007FC00
FF8007FC00
FF8007FC00
FF8007FC00
FF8007FC00
FF8007FC00
FF8007FC00
FF8007FC00
FF8007FC00
FF8007FC00
FF8007FC00
FF800FFC00
FF800FFC00
FFC01FFC00
FFC03FFE00
FFE07FFE00
FFFFFFFFC0
FFFFFBFFF8
FFFFF3FFF8
FFFFF1FFF8
FFFFE1FFF8
FFFFC0FFF8
FF7F003FF8
FF00000000
FF00000000
FF80000000
FF80000000
FF80000000
FF80000000
FF80000000
FF80000000
FF80000000
FF80000000
FF80000000
FF80000000
FF80000000
FF80000000
ENDCHAR
STARTCHAR 00B6
ENCODING 182
SWIDTH 570 0
DWIDTH 38 0
BBX 33 47 1 0
BITMAP
000FFFFF80
01FFFFFF80
07FFFFFF80
0FFFFFFF80
1FFFFFFF80
3FFFFFFF80
3FFFFFFF80
7FFFFFFF80
7FFFFE0F80
FFFFFE0F80
FFFFFE0F80
FFFFFE0F80
FFFFFE0F80
FFFFFE0F80
FFFFFE0F80
FFFFFE0F80
FFFFFE0F80
7FFFFE0F80
7FFFFE0F80
7FFFFE0F80
3FFFFE0F80
1FFFFE0F80
0FFFFE0F80
07FFFE0F80
01FFFE0F80
003FFE0F80
00003E0F80
00003E0F80
00003E0F80
00003E0F80
00003E0F80
00003E0F80
00003E0F80
00003E0F80
00003E0F80
00003E0F80
00003E0F80
00003E0F80
00003E0F80
00003E0F80
00003E0F80
00003E0F80
00003E0F80
00003E0F80
00003E0F80
00003E0F80
00003E0F80
ENDCHAR
STARTCHAR 00B7
ENCODING 183
SWIDTH 300 0
DWIDTH 20 0
BBX 11 10 5 19
BITMAP
3F00
7F80
7FC0
FFC0
FFE0
FFE0
FFC0
7FC0
3F80
1F00
ENDCHAR
STARTCHAR 00B8
ENCODING 184
SWIDTH 255 0
DWIDTH 17 0
BBX 13 17 2 -17
BITMAP
3C00
7C00
7C00
7FC0
7FE0
FFF0
FFF8
00F8
0078
0078
00F8
41F8
FFF8
FFF0
FFE0
FFC0
0C00
ENDCHAR
STARTCHAR 00B9
ENCODING 185
SWIDTH 270 0
DWIDTH 18 0
BBX 15 25 2 26
BITMAP
0FC0
1FC0
3FC0
7FC0
FFC0
FFC0
FFC0
F7C0
E7C0
C7C0
87C0
07C0
07C0
07C0
07C0
07C0
07C0
07C0
07C0
07C0
FFFE
FFFE
FFFE
FFFE
FFFE
ENDCHAR
STARTCHAR 00BA
ENCODING 186
SWIDTH 165 0
DWIDTH 11 0
BBX 9 11 1 25
BITMAP
1C00
7F00
7F80
E380
E380
E380
E380
E380
7F80
7F00
0C00
ENDCHAR
STARTCHAR 00BB
ENCODING 187
SWIDTH 690 0
DWIDTH 46 0
BBX 41 29 3 6
BITMAP
FF800FF80000
7FC007FC0000
3FE003FE0000
1FF001FF0000
0FF801FF0000
0FF800FF8000
07FC007FC000
03FE003FE000
01FF001FF000
00FF800FF800
007FC007FC00
003FE003FE00
001FF003FF00
001FF801FF80
000FF800FF80
001FF001FF00
003FE003FE00
007FC007FC00
007FC00FF800
00FF800FF800
01FF001FF000
03FE003FE000
07FC007FC000
0FF800FF8000
1FF001FF0000
3FE003FE0000
7FC007FC0000
7F800FF80000
FF800FF00000
ENDCHAR
STARTCHAR 00BC
ENCODING 188
SWIDTH 840 0
DWIDTH 56 0
BBX 52 47 2 0
BITMAP
07F0000007F800
0FF0000007F800
1FF000000FF000
3FF000000FF000
7FF000001FE000
FFF000003FE000
FFF000003FC000
FFF000007F8000
FBF000007F8000
F3F00000FF0000
C3F00001FF0000
83F00001FE0000
03F00003FC0000
03F00003FC0000
03F00007F80000
03F0000FF80000
03F0000FF00000
03F0001FE00000
FFFF001FE00000
FFFF003FC00000
FFFF007FC00000
FFFF007F800000
FFFF00FF000000
FFFF00FF000000
000001FE007F80
000003FE00FF80
000003FC00FF80
000007F801FF80
000007F803FF80
00000FF003FF80
00001FF007DF80
00001FE0079F80
00003FC00F9F80
00003FC01F1F80
00007F801F1F80
0000FF803E1F80
0000FF003C1F80
0001FE007FFFF0
0001FE007FFFF0
0003FC007FFFF0
0007FC007FFFF0
0007F8007FFFF0
000FF000001F80
000FF000001F80
001FE000001F80
003FE000001F80
003FC000001F80
ENDCHAR
STARTCHAR 00BD
ENCODING 189
SWIDTH 885 0
DWIDTH 59 0
BBX 55 47 2 0
BITMAP
07F0000001FE00
0FF0000001FE00
1FF0000003FC00
3FF0000007FC00
7FF0000007F800
FFF000000FF000
FFF000000FF000
FFF000001FE000
FBF000003FE000
F3F000003FC000
C3F000007F8000
83F000007F8000
03F00000FF0000
03F00001FF0000
03F00001FE0000
03F00003FE0000
03F00003FC0000
03F00007F80000
FFFF000FF80000
FFFF000FF00000
FFFF001FF00000
FFFF001FE00000
FFFF003FC00000
FFFF007FC00F80
0000007F803FF0
000000FF80FFF8
000000FF00FFFC
000001FE01FFFC
000003FE01FFFC
000003FC03F0FE
000007FC03F07E
000007F803F07E
00000FF000007C
00000FF00000FC
00001FE00001FC
00003FE00003F8
00003FC00007F0
00007F80000FE0
00007F80003FC0
0000FF00007F00
0001FF0000FE00
0001FE0003FC00
0003FC0003FFFE
0003FC0003FFFE
0007F80003FFFE
000FF80003FFFE
000FF00003FFFE
ENDCHAR
STARTCHAR 00BE
ENCODING 190
SWIDTH 840 0
DWIDTH 56 0
BBX 52 47 2 0
BITMAP
03FC000003FC00
0FFF000007FC00
1FFF800007F800
3FFF80000FF000
3FFFC0000FF000
7F1FC0001FE000
7E0FC0003FE000
000FC0003FC000
000FC0007F8000
00FFC0007F8000
00FF8000FF0000
00FF0001FF0000
00FF0001FE0000
00FF8003FE0000
001FC003FC0000
000FC007F80000
0007C00FF80000
FE0FE00FF00000
7F1FC01FF00000
7FFFC01FE00000
7FFFC03FC00000
3FFF807FC00000
1FFF007F800000
07FE00FF800000
000000FF007FC0
000001FE007FC0
000003FE00FFC0
000003FC00FFC0
000007FC01FFC0
000007F803EFC0
00000FF003EFC0
00000FF007CFC0
00001FE0078FC0
00003FE00F8FC0
00003FC01F0FC0
00007F801F0FC0
00007F803E0FC0
0000FF003FFFF0
0001FF003FFFF0
0001FE003FFFF0
0003FC003FFFF0
0003FC003FFFF0
0007F800000FC0
000FF800000FC0
000FF000000FC0
001FE000000FC0
001FE000000FC0
ENDCHAR
STARTCHAR 00BF
ENCODING 191
SWIDTH 570 0
DWIDTH 38 0
BBX 33 48 3 -16
BITMAP
0001E00000
0007F00000
0007F80000
000FFC0000
000FFC0000
000FFC0000
000FFC0000
000FF80000
0007F80000
0003E00000
0000000000
0000000000
0000000000
0000000000
000FFC0000
000FFC0000
000FF80000
000FF80000
001FF80000
003FF00000
007FF00000
00FFE00000
01FFC00000
03FF800000
07FF000000
0FFE000000
1FFC000000
3FF8000000
3FF0000000
7FE0000000
7FE0000000
7FC0000000
FFC001FF80
FFC001FF80
FFC001FF00
FFC001FF00
FFC003FF00
7FE003FF00
7FF007FF00
7FF81FFE00
3FFFFFFE00
3FFFFFFC00
1FFFFFFC00
0FFFFFF800
07FFFFF000
03FFFFC000
00FFFF8000
003FFC0000
ENDCHAR
STARTCHAR 00C0
ENCODING 192
SWIDTH 675 0
DWIDTH 45 0
BBX 42 65 2 0
BITMAP
00FF80000000
007FC0000000
003FC0000000
003FE0000000
001FF0000000
000FF0000000
000FF8000000
0007F8000000
0003FC000000
0003FC000000
0001FE000000
0000FE000000
0000FF000000
000000000000
000000000000
000000000000
000000000000
000000000000
0000FF800000
0000FF800000
0000FFC00000
0001FFC00000
0001FFE00000
0003FFE00000
0003FFE00000
0003FFF00000
0007FFF00000
0007FFF00000
0007FFF80000
000FFFF80000
000FF7F80000
000FF7FC0000
001FE3FC0000
001FE3FC0000
003FE3FE0000
003FC1FE0000
003FC1FF0000
007FC1FF0000
007FC0FF0000
007F80FF8000
00FF80FF8000
00FF807F8000
00FF007FC000
01FF007FC000
01FF003FC000
01FE003FE000
03FFFFFFE000
03FFFFFFE000
07FFFFFFF000
07FFFFFFF000
07FFFFFFF800
0FFFFFFFF800
0FFFFFFFF800
0FFFFFFFFC00
1FF00007FC00
1FF00007FC00
1FF00003FE00
3FE00003FE00
3FE00003FE00
3FE00001FF00
7FC00001FF00
7FC00001FF00
FFC00000FF80
FF800000FF80
FF800000FFC0
ENDCHAR
STARTCHAR 00C1
ENCODING 193
SWIDTH 675 0
DWIDTH 45 0
BBX 42 65 2 0
BITMAP
000000FF8000
000001FF0000
000003FE0000
000003FE0000
000007FC0000
000007F80000
00000FF80000
00000FF00000
00001FE00000
00001FE00000
00003FC00000
00003F800000
00007F800000
000000000000
000000000000
000000000000
000000000000
000000000000
0000FF800000
0000FF800000
0000FFC00000
0001FFC00000
0001FFE00000
0003FFE00000
0003FFE00000
0003FFF00000
0007FFF00000
0007FFF00000
0007FFF80000
000FFFF80000
000FF7F80000
000FF7FC0000
001FE3FC0000
001FE3FC0000
003FE3FE0000
003FC1FE0000
003FC1FF0000
007FC1FF0000
007FC0FF0000
007F80FF8000
00FF80FF8000
00FF807F8000
00FF007FC000
01FF007FC000
01FF003FC000
01FE003FE000
03FFFFFFE000
03FFFFFFE000
07FFFFFFF000
07FFFFFFF000
07FFFFFFF800
0FFFFFFFF800
0FFFFFFFF800
0FFFFFFFFC00
1FF00007FC00
1FF00007FC00
1FF00003FE00
3FE00003FE00
3FE00003FE00
3FE00001FF00
7FC00001FF00
7FC00001FF00
FFC00000FF80
FF800000FF80
FF800000FFC0
ENDCHAR
STARTCHAR 00C2
ENCODING 194
SWIDTH 675 0
DWIDTH 45 0
BBX 42 61 2 0
BITMAP
0000FF800000
0001FFC00000
0001FFE00000
0003FFF00000
0007FFF80000
000FF7F80000
001FE3FC0000
003FC1FE0000
007F80FF0000
00FF807F8000
000000000000
000000000000
000000000000
000000000000
0000FF800000
0000FF800000
0000FFC00000
0001FFC00000
0001FFE00000
0003FFE00000
0003FFE00000
0003FFF00000
0007FFF00000
0007FFF00000
0007FFF80000
000FFFF80000
000FF7F80000
000FF7FC0000
001FE3FC0000
001FE3FC0000
003FE3FE0000
003FC1FE0000
003FC1FF0000
007FC1FF0000
007FC0FF0000
007F80FF8000
00FF80FF8000
00FF807F8000
00FF007FC000
01FF007FC000
01FF003FC000
01FE003FE000
03FFFFFFE000
03FFFFFFE000
07FFFFFFF000
07FFFFFFF000
07FFFFFFF800
0FFFFFFFF800
0FFFFFFFF800
0FFFFFFFFC00
1FF00007FC00
1FF00007FC00
1FF00003FE00
3FE00003FE00
3FE00003FE00
3FE00001FF00
7FC00001FF00
7FC00001FF00
FFC00000FF80
FF800000FF80
FF800000FFC0
ENDCHAR
STARTCHAR 00C3
ENCODING 195
SWIDTH 675 0
DWIDTH 45 0
BBX 42 61 2 0
BITMAP
0007F03E0000
000FFC3E0000
001FFF7E0000
001FFFFE0000
003FFFFE0000
003FFFFC0000
003E1FFC0000
003E07F00000
003E00000000
000000000000
000000000000
000000000000
000000000000
000000000000
0000FF800000
0000FF800000
0000FFC00000
0001FFC00000
0001FFE00000
0003FFE00000
0003FFE00000
0003FFF00000
0007FFF00000
0007FFF00000
0007FFF80000
000FFFF80000
000FF7F80000
000FF7FC0000
001FE3FC0000
001FE3FC0000
003FE3FE0000
003FC1FE0000
003FC1FF0000
007FC1FF0000
007FC0FF0000
007F80FF8000
00FF80FF8000
00FF807F8000
00FF007FC000
01FF007FC000
01FF003FC000
01FE003FE000
03FFFFFFE000
03FFFFFFE000
07FFFFFFF000
07FFFFFFF000
07FFFFFFF800
0FFFFFFFF800
0FFFFFFFF800
0FFFFFFFFC00
1FF00007FC00
1FF00007FC00
1FF00003FE00
3FE00003FE00
3FE00003FE00
3FE00001FF00
7FC00001FF00
7FC00001FF00
FFC00000FF80
FF800000FF80
FF800000FFC0
ENDCHAR
STARTCHAR 00C4
ENCODING 196
SWIDTH 675 0
DWIDTH 45 0
BBX 42 63 2 0
BITMAP
003E001F0000
007F003F8000
00FF807FC000
00FF80FFC000
01FFC0FFC000
01FFC0FFE000
01FF80FFC000
00FF807FC000
007F007F8000
003E001F0000
000000000000
000000000000
000000000000
000000000000
000000000000
000000000000
0000FF800000
0000FF800000
0000FFC00000
0001FFC00000
0001FFE00000
0003FFE00000
0003FFE00000
0003FFF00000
0007FFF00000
0007FFF00000
0007FFF80000
000FFFF80000
000FF7F80000
000FF7FC0000
001FE3FC0000
001FE3FC0000
003FE3FE0000
003FC1FE0000
003FC1FF0000
007FC1FF0000
007FC0FF0000
007F80FF8000
00FF80FF8000
00FF807F8000
00FF007FC000
01FF007FC000
01FF003FC000
01FE003FE000
03FFFFFFE000
03FFFFFFE000
07FFFFFFF000
07FFFFFFF000
07FFFFFFF800
0FFFFFFFF800
0FFFFFFFF800
0FFFFFFFFC00
1FF00007FC00
1FF00007FC00
1FF00003FE00
3FE00003FE00
3FE00003FE00
3FE00001FF00
7FC00001FF00
7FC00001FF00
FFC00000FF80
FF800000FF80
FF800000FFC0
ENDCHAR
STARTCHAR 00C5
ENCODING 197
SWIDTH 675 0
DWIDTH 45 0
BBX 42 65 2 0
BITMAP
00001C000000
00007F000000
0001FF800000
0001FFC00000
0003E3E00000
0003C1E00000
0003C1E00000
0003C1E00000
0003C1E00000
0003F7E00000
0001FFC00000
0000FF800000
00007F000000
000000000000
000000000000
000000000000
000000000000
000000000000
0000FF800000
0000FF800000
0000FFC00000
0001FFC00000
0001FFE00000
0003FFE00000
0003FFE00000
0003FFF00000
0007FFF00000
0007FFF00000
0007FFF80000
000FFFF80000
000FF7F80000
000FF7FC0000
001FE3FC0000
001FE3FC0000
003FE3FE0000
003FC1FE0000
003FC1FF0000
007FC1FF0000
007FC0FF0000
007F80FF8000
00FF80FF8000
00FF807F8000
00FF007FC000
01FF007FC000
01FF003FC000
01FE003FE000
03FFFFFFE000
03FFFFFFE000
07FFFFFFF000
07FFFFFFF000
07FFFFFFF800
0FFFFFFFF800
0FFFFFFFF800
0FFFFFFFFC00
1FF00007FC00
1FF00007FC00
1FF00003FE00
3FE00003FE00
3FE00003FE00
3FE00001FF00
7FC00001FF00
7FC00001FF00
FFC00000FF80
FF800000FF80
FF800000FFC0
ENDCHAR
STARTCHAR 00C6
ENCODING 198
SWIDTH 960 0
DWIDTH 64 0
BBX 60 47 1 0
BITMAP
000001FFFFFFFFF0
000003FFFFFFFFF0
000003FFFFFFFFF0
000007FFFFFFFFF0
000007FFFFFFFFF0
00000FFFFFFFFFF0
00000FFFFFFFFFF0
00001FFFFFFFFFF0
00001FFFFE000000
00003FF7FE000000
00003FF7FE000000
00007FE7FE000000
00007FE7FE000000
0000FFC7FE000000
0000FFC7FE000000
0001FF87FE000000
0001FF87FE000000
0003FF07FE000000
0003FF07FE000000
0007FE07FE000000
0007FE07FFFFFF80
000FFC07FFFFFF80
000FFC07FFFFFF80
001FF807FFFFFF80
001FF807FFFFFF80
003FF007FFFFFF80
003FF007FFFFFF80
007FE007FE000000
007FFFFFFE000000
00FFFFFFFE000000
00FFFFFFFE000000
01FFFFFFFE000000
01FFFFFFFE000000
03FFFFFFFE000000
03FFFFFFFE000000
07FFFFFFFE000000
07FE0007FE000000
0FFE0007FE000000
0FFC0007FE000000
1FFC0007FFFFFFF0
1FF80007FFFFFFF0
3FF80007FFFFFFF0
3FF00007FFFFFFF0
7FF00007FFFFFFF0
7FE00007FFFFFFF0
FFE00007FFFFFFF0
FFC00007FFFFFFF0
ENDCHAR
STARTCHAR 00C7
ENCODING 199
SWIDTH 690 0
DWIDTH 46 0
BBX 41 65 3 -17
BITMAP
00001F000000
0003FFF00000
000FFFFE0000
003FFFFF0000
00FFFFFFC000
01FFFFFFE000
03FFFFFFF000
07FFFFFFF800
07FFFBFFF800
0FFF003FFC00
1FFE000FFE00
1FF80007FE00
3FF80003FF00
3FF00001FF00
7FE00001FF00
7FE00000FF80
7FE00000FF80
7FC000000000
FFC000000000
FFC000000000
FFC000000000
FFC000000000
FF8000000000
FF8000000000
FF8000000000
FF8000000000
FF8000000000
FFC000000000
FFC000000000
FFC000000000
FFC000000000
7FC000000000
7FE00000FF80
7FE00000FF80
7FE00001FF00
3FF00003FF00
3FF80003FF00
1FFC0007FE00
1FFE000FFE00
0FFF003FFC00
07FFFFFFF800
07FFFFFFF800
03FFFFFFF000
01FFFFFFE000
007FFFFFC000
003FFFFF0000
000FFFFC0000
0003FFF00000
00003E000000
00003C000000
00007C000000
00007FC00000
00007FF00000
00007FF00000
0000FFF80000
000000F80000
0000007C0000
0000007C0000
0000007C0000
000041F80000
00007FF80000
00007FF00000
00007FE00000
00007FC00000
00000F000000
ENDCHAR
STARTCHAR 00C8
ENCODING 200
SWIDTH 555 0
DWIDTH 37 0
BBX 31 65 4 0
BITMAP
1FF00000
0FF80000
0FF80000
07FC0000
03FC0000
03FE0000
01FE0000
00FF0000
00FF0000
007F8000
003F8000
003FC000
001FC000
00000000
00000000
00000000
00000000
00000000
FFFFFFFE
FFFFFFFE
FFFFFFFE
FFFFFFFE
FFFFFFFE
FFFFFFFE
FFFFFFFE
FFFFFFFE
FF800000
FF800000
FF800000
FF800000
FF800000
FF800000
FF800000
FF800000
FF800000
FF800000
FF800000
FF800000
FFFFFFE0
FFFFFFE0
FFFFFFE0
FFFFFFE0
FFFFFFE0
FFFFFFE0
FFFFFFE0
FF800000
FF800000
FF800000
FF800000
FF800000
FF800000
FF800000
FF800000
FF800000
FF800000
FF800000
FF800000
FFFFFFFE
FFFFFFFE
FFFFFFFE
FFFFFFFE
FFFFFFFE
FFFFFFFE
FFFFFFFE
FFFFFFFE
ENDCHAR
STARTCHAR 00C9
ENCODING 201
SWIDTH 555 0
DWIDTH 37 0
BBX 31 65 4 0
BITMAP
00003FE0
00003FE0
00007FC0
00007F80
0000FF80
0000FF00
0001FE00
0001FE00
0003FC00
0003F800
0007F800
000FF000
000FF000
00000000
00000000
00000000
00000000
00000000
FFFFFFFE
FFFFFFFE
FFFFFFFE
FFFFFFFE
FFFFFFFE
FFFFFFFE
FFFFFFFE
FFFFFFFE
FF800000
FF800000
FF800000
FF800000
FF800000
FF800000
FF800000
FF800000
FF800000
FF800000
FF800000
FF800000
FFFFFFE0
FFFFFFE0
FFFFFFE0
FFFFFFE0
FFFFFFE0
FFFFFFE0
FFFFFFE0
FF800000
FF800000
FF800000
FF800000
FF800000
FF800000
FF800000
FF800000
FF800000
FF800000
FF800000
FF800000
FFFFFFFE
FFFFFFFE
FFFFFFFE
FFFFFFFE
FFFFFFFE
FFFFFFFE
FFFFFFFE
FFFFFFFE
ENDCHAR
STARTCHAR 00CA
ENCODING 202
SWIDTH 555 0
DWIDTH 37 0
BBX 31 61 4 0
BITMAP
001FE000
003FF000
007FF800
00FFFC00
01FFFE00
03FEFF00
07FCFF80
07F87FC0
0FF03FE0
1FE01FF0
00000000
00000000
00000000
00000000
FFFFFFFE
FFFFFFFE
FFFFFFFE
FFFFFFFE
FFFFFFFE
FFFFFFFE
FFFFFFFE
FFFFFFFE
FF800000
FF800000
FF800000
FF800000
FF800000
FF800000
FF800000
FF800000
FF800000
FF800000
FF800000
FF800000
FFFFFFE0
FFFFFFE0
FFFFFFE0
FFFFFFE0
FFFFFFE0
FFFFFFE0
FFFFFFE0
FF800000
FF800000
FF800000
FF800000
FF800000
FF800000
FF800000
FF800000
FF800000
FF800000
FF800000
FF800000
FFFFFFFE
FFFFFFFE
FFFFFFFE
FFFFFFFE
FFFFFFFE
FFFFFFFE
FFFFFFFE
FFFFFFFE
ENDCHAR
STARTCHAR 00CB
ENCODING 203
SWIDTH 555 0
DWIDTH 37 0
BBX 31 63 4 0
BITMAP
078003C0
1FE00FF0
1FF00FF0
3FF01FF8
3FF01FF8
3FF01FF8
3FF01FF8
1FF01FF8
1FE00FF0
0FC007E0
00000000
00000000
00000000
00000000
00000000
00000000
FFFFFFFE
FFFFFFFE
FFFFFFFE
FFFFFFFE
FFFFFFFE
FFFFFFFE
FFFFFFFE
FFFFFFFE
FF800000
FF800000
FF800000
FF800000
FF800000
FF800000
FF800000
FF800000
FF800000
FF800000
FF800000
FF800000
FFFFFFE0
FFFFFFE0
FFFFFFE0
FFFFFFE0
FFFFFFE0
FFFFFFE0
FFFFFFE0
FF800000
FF800000
FF800000
FF800000
FF800000
FF800000
FF800000
FF800000
FF800000
FF800000
FF800000
FF800000
FFFFFFFE
FFFFFFFE
FFFFFFFE
FFFFFFFE
FFFFFFFE
FFFFFFFE
FFFFFFFE
FFFFFFFE
ENDCHAR
STARTCHAR 00CC
ENCODING 204
SWIDTH 255 0
DWIDTH 17 0
BBX 17 65 -3 0
BITMAP
FF8000
FF8000
7FC000
3FC000
3FE000
1FF000
0FF000
0FF800
07F800
03FC00
03FC00
01FE00
00FE00
000000
000000
000000
000000
000000
01FF80
01FF80
01FF80
01FF80
01FF80
01FF80
01FF80
01FF80
01FF80
01FF80
01FF80
01FF80
01FF80
01FF80
01FF80
01FF80
01FF80
01FF80
01FF80
01FF80
01FF80
01FF80
01FF80
01FF80
01FF80
01FF80
01FF80
01FF80
01FF80
01FF80
01FF80
01FF80
01FF80
01FF80
01FF80
01FF80
01FF80
01FF80
01FF80
01FF80
01FF80
01FF80
01FF80
01FF80
01FF80
01FF80
01FF80
ENDCHAR
STARTCHAR 00CD
ENCODING 205
SWIDTH 255 0
DWIDTH 17 0
BBX 17 65 4 0
BITMAP
00FF80
01FF00
01FF00
03FE00
03FE00
07FC00
07F800
0FF800
0FF000
1FE000
1FE000
3FC000
3F8000
000000
000000
000000
000000
000000
FFC000
FFC000
FFC000
FFC000
FFC000
FFC000
FFC000
FFC000
FFC000
FFC000
FFC000
FFC000
FFC000
FFC000
FFC000
FFC000
FFC000
FFC000
FFC000
FFC000
FFC000
FFC000
FFC000
FFC000
FFC000
FFC000
FFC000
FFC000
FFC000
FFC000
FFC000
FFC000
FFC000
FFC000
FFC000
FFC000
FFC000
FFC000
FFC000
FFC000
FFC000
FFC000
FFC000
FFC000
FFC000
FFC000
FFC000
ENDCHAR
STARTCHAR 00CE
ENCODING 206
SWIDTH 255 0
DWIDTH 17 0
BBX 25 61 -3 0
BITMAP
00FF0000
01FF8000
03FFC000
07FFE000
0FFFF000
1FFFF800
3FE7FC00
7FC3FE00
FF81FF00
FF00FF80
00000000
00000000
00000000
00000000
01FF8000
01FF8000
01FF8000
01FF8000
01FF8000
01FF8000
01FF8000
01FF8000
01FF8000
01FF8000
01FF8000
01FF8000
01FF8000
01FF8000
01FF8000
01FF8000
01FF8000
01FF8000
01FF8000
01FF8000
01FF8000
01FF8000
01FF8000
01FF8000
01FF8000
01FF8000
01FF8000
01FF8000
01FF8000
01FF8000
01FF8000
01FF8000
01FF8000
01FF8000
01FF8000
01FF8000
01FF8000
01FF8000
01FF8000
01FF8000
01FF8000
01FF8000
01FF8000
01FF8000
01FF8000
01FF8000
01FF8000
ENDCHAR
STARTCHAR 00CF
ENCODING 207
SWIDTH 255 0
DWIDTH 17 0
BBX 27 63 -4 0
BITMAP
1E000F00
7F803FC0
FF807FC0
FFC07FE0
FFC07FE0
FFC07FE0
FFC07FE0
FFC07FC0
7F803FC0
3F001F80
00000000
00000000
00000000
00000000
00000000
00000000
00FFC000
00FFC000
00FFC000
00FFC000
00FFC000
00FFC000
00FFC000
00FFC000
00FFC000
00FFC000
00FFC000
00FFC000
00FFC000
00FFC000
00FFC000
00FFC000
00FFC000
00FFC000
00FFC000
00FFC000
00FFC000
00FFC000
00FFC000
00FFC000
00FFC000
00FFC000
00FFC000
00FFC000
00FFC000
00FFC000
00FFC000
00FFC000
00FFC000
00FFC000
00FFC000
00FFC000
00FFC000
00FFC000
00FFC000
00FFC000
00FFC000
00FFC000
00FFC000
00FFC000
00FFC000
00FFC000
00FFC000
ENDCHAR
STARTCHAR 00D0
ENCODING 208
SWIDTH 705 0
DWIDTH 47 0
BBX 43 47 2 0
BITMAP
0FFFFF800000
0FFFFFF80000
0FFFFFFE0000
0FFFFFFF8000
0FFFFFFFE000
0FFFFFFFF000
0FFFFFFFF800
0FFFFFFFFC00
0FF81FFFFE00
0FF8003FFE00
0FF8000FFF00
0FF80007FF00
0FF80003FF80
0FF80001FF80
0FF80001FFC0
0FF80000FFC0
0FF80000FFC0
0FF80000FFC0
0FF80000FFC0
0FF800007FE0
FFFFF0007FE0
FFFFF0007FE0
FFFFF0007FE0
FFFFF0007FE0
FFFFF0007FE0
FFFFF0007FE0
0FF800007FE0
0FF800007FE0
0FF80000FFC0
0FF80000FFC0
0FF80000FFC0
0FF80000FFC0
0FF80001FFC0
0FF80001FF80
0FF80003FF80
0FF80007FF00
0FF8000FFF00
0FF8003FFE00
0FF807FFFE00
0FFFFFFFFC00
0FFFFFFFF800
0FFFFFFFF000
0FFFFFFFE000
0FFFFFFFC000
0FFFFFFF0000
0FFFFFFC0000
0FFFFFC00000
ENDCHAR
STARTCHAR 00D1
ENCODING 209
SWIDTH 690 0
DWIDTH 46 0
BBX 39 61 4 0
BITMAP
000FC07C00
001FF87C00
003FFEFC00
007FFFFC00
007FFFF800
007FFFF800
007C3FF000
007C0FE000
007C000000
0000000000
0000000000
0000000000
0000000000
0000000000
FFE00003FE
FFE00003FE
FFF00003FE
FFF00003FE
FFF80003FE
FFFC0003FE
FFFC0003FE
FFFE0003FE
FFFE0003FE
FFFF0003FE
FFFF8003FE
FFFF8003FE
FFFFC003FE
FFFFC003FE
FFFFE003FE
FFFFE003FE
FFBFF003FE
FFBFF803FE
FF9FF803FE
FF8FFC03FE
FF8FFC03FE
FF87FE03FE
FF87FF03FE
FF83FF03FE
FF81FF83FE
FF81FF83FE
FF80FFC3FE
FF80FFE3FE
FF807FE3FE
FF803FF3FE
FF803FF3FE
FF801FFBFE
FF801FFBFE
FF800FFFFE
FF8007FFFE
FF8007FFFE
FF8003FFFE
FF8003FFFE
FF8001FFFE
FF8000FFFE
FF8000FFFE
FF80007FFE
FF80007FFE
FF80003FFE
FF80001FFE
FF80001FFE
FF80000FFE
ENDCHAR
STARTCHAR 00D2
ENCODING 210
SWIDTH 720 0
DWIDTH 48 0
BBX 42 66 3 -1
BITMAP
007FC0000000
003FE0000000
003FE0000000
001FF0000000
000FF0000000
000FF8000000
0007F8000000
0003FC000000
0003FC000000
0001FE000000
0000FE000000
0000FF000000
00007F000000
000000000000
000000000000
000000000000
000000000000
00001F000000
0003FFF00000
000FFFFE0000
003FFFFF8000
00FFFFFFC000
01FFFFFFE000
03FFFFFFF000
07FFFFFFF800
0FFFFFFFFC00
0FFF807FFC00
1FFE001FFE00
1FFC000FFF00
3FF80007FF00
3FF00003FF00
7FF00003FF80
7FE00001FF80
7FE00001FF80
FFE00000FFC0
FFC00000FFC0
FFC00000FFC0
FFC00000FFC0
FFC00000FFC0
FFC000007FC0
FFC000007FC0
FFC000007FC0
FFC000007FC0
FFC000007FC0
FFC00000FFC0
FFC00000FFC0
FFC00000FFC0
FFC00000FFC0
FFC00000FFC0
7FE00001FFC0
7FE00001FF80
7FF00003FF80
3FF00003FF80
3FF80007FF00
3FFC000FFF00
1FFE001FFE00
0FFF807FFE00
0FFFFFFFFC00
07FFFFFFF800
03FFFFFFF000
01FFFFFFE000
00FFFFFFC000
003FFFFF8000
001FFFFE0000
0003FFF00000
000016000000
ENDCHAR
STARTCHAR 00D3
ENCODING 211
SWIDTH 720 0
DWIDTH 48 0
BBX 42 66 3 -1
BITMAP
000000FF8000
000000FF8000
000001FF0000
000001FE0000
000003FE0000
000003FC0000
000007F80000
000007F80000
00000FF00000
00000FE00000
00001FE00000
00003FC00000
00003FC00000
000000000000
000000000000
000000000000
000000000000
00001F000000
0003FFF00000
000FFFFE0000
003FFFFF8000
00FFFFFFC000
01FFFFFFE000
03FFFFFFF000
07FFFFFFF800
0FFFFFFFFC00
0FFF807FFC00
1FFE001FFE00
1FFC000FFF00
3FF80007FF00
3FF00003FF00
7FF00003FF80
7FE00001FF80
7FE00001FF80
FFE00000FFC0
FFC00000FFC0
FFC00000FFC0
FFC00000FFC0
FFC00000FFC0
FFC000007FC0
FFC000007FC0
FFC000007FC0
FFC000007FC0
FFC000007FC0
FFC00000FFC0
FFC00000FFC0
FFC00000FFC0
FFC00000FFC0
FFC00000FFC0
7FE00001FFC0
7FE00001FF80
7FF00003FF80
3FF00003FF80
3FF80007FF00
3FFC000FFF00
1FFE001FFE00
0FFF807FFE00
0FFFFFFFFC00
07FFFFFFF800
03FFFFFFF000
01FFFFFFE000
00FFFFFFC000
003FFFFF8000
001FFFFE0000
0003FFF00000
000016000000
ENDCHAR
STARTCHAR 00D4
ENCODING 212
SWIDTH 720 0
DWIDTH 48 0
BBX 42 62 3 -1
BITMAP
00007F800000
0000FFC00000
0001FFE00000
0003FFF00000
0007FFF80000
000FFBFC0000
001FF3FE0000
001FE1FF0000
003FC0FF8000
007F807FC000
000000000000
000000000000
000000000000
00001F000000
0003FFF00000
000FFFFE0000
003FFFFF8000
00FFFFFFC000
01FFFFFFE000
03FFFFFFF000
07FFFFFFF800
0FFFFFFFFC00
0FFF807FFC00
1FFE001FFE00
1FFC000FFF00
3FF80007FF00
3FF00003FF00
7FF00003FF80
7FE00001FF80
7FE00001FF80
FFE00000FFC0
FFC00000FFC0
FFC00000FFC0
FFC00000FFC0
FFC00000FFC0
FFC000007FC0
FFC000007FC0
FFC000007FC0
FFC000007FC0
FFC000007FC0
FFC00000FFC0
FFC00000FFC0
FFC00000FFC0
FFC00000FFC0
FFC00000FFC0
7FE00001FFC0
7FE00001FF80
7FF00003FF80
3FF00003FF80
3FF80007FF00
3FFC000FFF00
1FFE001FFE00
0FFF807FFE00
0FFFFFFFFC00
07FFFFFFF800
03FFFFFFF000
01FFFFFFE000
00FFFFFFC000
003FFFFF8000
001FFFFE0000
0003FFF00000
000016000000
ENDCHAR
STARTCHAR 00D5
ENCODING 213
SWIDTH 720 0
DWIDTH 48 0
BBX 42 62 3 -1
BITMAP
0003F01F0000
000FFC1F0000
000FFFBF0000
001FFFFE0000
001FFFFE0000
001FFFFE0000
003E0FFC0000
003E03F80000
001E00000000
000000000000
000000000000
000000000000
000000000000
00001F000000
0003FFF00000
000FFFFE0000
003FFFFF8000
00FFFFFFC000
01FFFFFFE000
03FFFFFFF000
07FFFFFFF800
0FFFFFFFFC00
0FFF807FFC00
1FFE001FFE00
1FFC000FFF00
3FF80007FF00
3FF00003FF00
7FF00003FF80
7FE00001FF80
7FE00001FF80
FFE00000FFC0
FFC00000FFC0
FFC00000FFC0
FFC00000FFC0
FFC00000FFC0
FFC000007FC0
FFC000007FC0
FFC000007FC0
FFC000007FC0
FFC000007FC0
FFC00000FFC0
FFC00000FFC0
FFC00000FFC0
FFC00000FFC0
FFC00000FFC0
7FE00001FFC0
7FE00001FF80
7FF00003FF80
3FF00003FF80
3FF80007FF00
3FFC000FFF00
1FFE001FFE00
0FFF807FFE00
0FFFFFFFFC00
07FFFFFFF800
03FFFFFFF000
01FFFFFFE000
00FFFFFFC000
003FFFFF8000
001FFFFE0000
0003FFF00000
000016000000
ENDCHAR
STARTCHAR 00D6
ENCODING 214
SWIDTH 720 0
DWIDTH 48 0
BBX 42 64 3 -1
BITMAP
001E000F0000
007F803FC000
007FC03FC000
00FFC07FE000
00FFC07FE000
00FFC07FE000
00FFC07FE000
007FC07FE000
007F803FC000
003F001F8000
000000000000
000000000000
000000000000
000000000000
000000000000
00001F000000
0003FFF00000
000FFFFE0000
003FFFFF8000
00FFFFFFC000
01FFFFFFE000
03FFFFFFF000
07FFFFFFF800
0FFFFFFFFC00
0FFF807FFC00
1FFE001FFE00
1FFC000FFF00
3FF80007FF00
3FF00003FF00
7FF00003FF80
7FE00001FF80
7FE00001FF80
FFE00000FFC0
FFC00000FFC0
FFC00000FFC0
FFC00000FFC0
FFC00000FFC0
FFC000007FC0
FFC000007FC0
FFC000007FC0
FFC000007FC0
FFC000007FC0
FFC00000FFC0
FFC00000FFC0
FFC00000FFC0
FFC00000FFC0
FFC00000FFC0
7FE00001FFC0
7FE00001FF80
7FF00003FF80
3FF00003FF80
3FF80007FF00
3FFC000FFF00
1FFE001FFE00
0FFF807FFE00
0FFFFFFFFC00
07FFFFFFF800
03FFFFFFF000
01FFFFFFE000
00FFFFFFC000
003FFFFF8000
001FFFFE0000
0003FFF00000
000016000000
ENDCHAR
STARTCHAR 00D7
ENCODING 215
SWIDTH 570 0
DWIDTH 38 0
BBX 25 25 7 9
BITMAP
0C001800
1E003C00
3F007E00
7F80FF00
FFC1FF80
FFE3FF80
7FF7FF00
3FFFFE00
1FFFFC00
0FFFF800
07FFF000
03FFE000
01FFC000
03FFE000
07FFF000
0FFFF800
1FFFFC00
3FFFFE00
7FF7FF00
FFE3FF80
7FC1FF00
3F80FE00
1F007C00
0E003800
04001000
ENDCHAR
STARTCHAR 00D8
ENCODING 216
SWIDTH 735 0
DWIDTH 49 0
BBX 43 53 3 -3
BITMAP
000000003FE0
000000003FC0
00001F007F80
0003FFF8FF80
000FFFFEFF00
003FFFFFFE00
007FFFFFFE00
00FFFFFFFC00
01FFFFFFFC00
03FFFFFFF800
07FFFFFFFC00
0FFF803FFE00
0FFF001FFF00
1FFE003FFF00
1FFC007FFF80
3FF8007FFF80
3FF000FFFF80
3FF001FFFFC0
7FE001FEFFC0
7FE003FCFFC0
7FE007FCFFC0
7FE007F87FE0
FFC00FF87FE0
FFC01FF07FE0
FFC01FE07FE0
FFC03FE07FE0
FFC03FC07FE0
FFC07F807FE0
FFC0FF807FE0
FFC0FF007FE0
FFC1FE007FE0
7FE3FE007FE0
7FE3FC00FFC0
7FE7F800FFC0
7FEFF800FFC0
7FFFF001FFC0
3FFFF001FF80
3FFFE003FF80
1FFFC003FF80
1FFFC007FF00
0FFF800FFF00
0FFFC03FFE00
07FFFFFFFC00
03FFFFFFFC00
03FFFFFFF800
07FFFFFFF000
07FFFFFFE000
0FFFFFFF8000
1FFFFFFE0000
1FE1FFF80000
3FE004000000
3FC000000000
7F8000000000
ENDCHAR
STARTCHAR 00D9
ENCODING 217
SWIDTH 675 0
DWIDTH 45 0
BBX 38 66 4 -1
BITMAP
01FF000000
01FF000000
00FF800000
007F800000
007FC00000
003FC00000
001FE00000
001FE00000
000FF00000
0007F00000
0007F80000
0003F80000
0001FC0000
0000000000
0000000000
0000000000
0000000000
0000000000
FF800007FC
FF800007FC
FF800007FC
FF800007FC
FF800007FC
FF800007FC
FF800007FC
FF800007FC
FF800007FC
FF800007FC
FF800007FC
FF800007FC
FF800007FC
FF800007FC
FF800007FC
FF800007FC
FF800007FC
FF800007FC
FF800007FC
FF800007FC
FF800007FC
FF800007FC
FF800007FC
FF800007FC
FF800007FC
FF800007FC
FF800007FC
FF800007FC
FF800007FC
FF800007FC
FF80000FFC
FFC0000FFC
FFC0000FF8
FFC0001FF8
7FE0001FF8
7FE0003FF8
7FF0003FF0
3FF800FFF0
3FFF03FFF0
1FFFFFFFE0
1FFFFFFFC0
0FFFFFFFC0
07FFFFFF80
03FFFFFF00
01FFFFFC00
007FFFF000
001FFFC000
0000780000
ENDCHAR
STARTCHAR 00DA
ENCODING 218
SWIDTH 675 0
DWIDTH 45 0
BBX 38 66 4 -1
BITMAP
000003FE00
000007FC00
000007FC00
00000FF800
00000FF000
00001FF000
00001FE000
00003FC000
00003FC000
00007F8000
00007F0000
0000FF0000
0000FE0000
0000000000
0000000000
0000000000
0000000000
0000000000
FF800007FC
FF800007FC
FF800007FC
FF800007FC
FF800007FC
FF800007FC
FF800007FC
FF800007FC
FF800007FC
FF800007FC
FF800007FC
FF800007FC
FF800007FC
FF800007FC
FF800007FC
FF800007FC
FF800007FC
FF800007FC
FF800007FC
FF800007FC
FF800007FC
FF800007FC
FF800007FC
FF800007FC
FF800007FC
FF800007FC
FF800007FC
FF800007FC
FF800007FC
FF800007FC
FF80000FFC
FFC0000FFC
FFC0000FF8
FFC0001FF8
7FE0001FF8
7FE0003FF8
7FF0003FF0
3FF800FFF0
3FFF03FFF0
1FFFFFFFE0
1FFFFFFFC0
0FFFFFFFC0
07FFFFFF80
03FFFFFF00
01FFFFFC00
007FFFF000
001FFFC000
0000780000
ENDCHAR
STARTCHAR 00DB
ENCODING 219
SWIDTH 675 0
DWIDTH 45 0
BBX 38 62 4 -1
BITMAP
0001FE0000
0003FF0000
0007FF8000
000FFFC000
001FFFE000
003FDFF000
007FCFF800
00FF87FC00
01FF03FC00
03FE01FE00
0000000000
0000000000
0000000000
0000000000
FF800007FC
FF800007FC
FF800007FC
FF800007FC
FF800007FC
FF800007FC
FF800007FC
FF800007FC
FF800007FC
FF800007FC
FF800007FC
FF800007FC
FF800007FC
FF800007FC
FF800007FC
FF800007FC
FF800007FC
FF800007FC
FF800007FC
FF800007FC
FF800007FC
FF800007FC
FF800007FC
FF800007FC
FF800007FC
FF800007FC
FF800007FC
FF800007FC
FF800007FC
FF800007FC
FF80000FFC
FFC0000FFC
FFC0000FF8
FFC0001FF8
7FE0001FF8
7FE0003FF8
7FF0003FF0
3FF800FFF0
3FFF03FFF0
1FFFFFFFE0
1FFFFFFFC0
0FFFFFFFC0
07FFFFFF80
03FFFFFF00
01FFFFFC00
007FFFF000
001FFFC000
0000780000
ENDCHAR
STARTCHAR 00DC
ENCODING 220
SWIDTH 675 0
DWIDTH 45 0
BBX 38 64 4 -1
BITMAP
0078007C00
01FC00FE00
03FE01FF00
03FF01FF80
03FF01FF80
03FF01FF80
03FF01FF80
03FE01FF00
01FE00FF00
00FC007E00
0000000000
0000000000
0000000000
0000000000
0000000000
0000000000
FF800007FC
FF800007FC
FF800007FC
FF800007FC
FF800007FC
FF800007FC
FF800007FC
FF800007FC
FF800007FC
FF800007FC
FF800007FC
FF800007FC
FF800007FC
FF800007FC
FF800007FC
FF800007FC
FF800007FC
FF800007FC
FF800007FC
FF800007FC
FF800007FC
FF800007FC
FF800007FC
FF800007FC
FF800007FC
FF800007FC
FF800007FC
FF800007FC
FF800007FC
FF800007FC
FF80000FFC
FFC0000FFC
FFC0000FF8
FFC0001FF8
7FE0001FF8
7FE0003FF8
7FF0003FF0
3FF800FFF0
3FFF03FFF0
1FFFFFFFE0
1FFFFFFFC0
0FFFFFFFC0
07FFFFFF80
03FFFFFF00
01FFFFFC00
007FFFF000
001FFFC000
0000780000
ENDCHAR
STARTCHAR 00DD
ENCODING 221
SWIDTH 630 0
DWIDTH 42 0
BBX 39 65 2 0
BITMAP
000001FF00
000003FE00
000007FC00
000007FC00
00000FF800
00000FF000
00001FF000
00001FE000
00003FC000
00003FC000
00007F8000
00007F0000
0000FF0000
0000000000
0000000000
0000000000
0000000000
0000000000
FF800003FE
FFC00007FE
7FC00007FC
7FE0000FFC
3FE0000FF8
3FF0001FF8
1FF0001FF0
1FF8003FF0
0FF8003FE0
0FFC007FE0
07FC007FC0
07FE00FFC0
03FE00FF80
03FF00FF80
01FF01FF00
01FF81FF00
00FF83FE00
00FFC3FE00
007FC7FC00
007FC7FC00
003FEFF800
003FFFF800
001FFFF000
001FFFF000
000FFFE000
000FFFE000
0007FFC000
0007FFC000
0003FF8000
0003FF8000
0001FF0000
0001FF0000
0001FF0000
0001FF0000
0001FF0000
0001FF0000
0001FF0000
0001FF0000
0001FF0000
0001FF0000
0001FF0000
0001FF0000
0001FF0000
0001FF0000
0001FF0000
0001FF0000
0001FF0000
ENDCHAR
STARTCHAR 00DE
ENCODING 222
SWIDTH 600 0
DWIDTH 40 0
BBX 34 47 4 0
BITMAP
FF80000000
FF80000000
FF80000000
FF80000000
FF80000000
FF80000000
FF80000000
FF80000000
FFFFFE0000
FFFFFFC000
FFFFFFE000
FFFFFFF800
FFFFFFFC00
FFFFFFFE00
FFFFFFFE00
FFFFFFFF00
FF800FFF00
FF8003FF80
FF8001FF80
FF8000FF80
FF8000FFC0
FF80007FC0
FF80007FC0
FF80007FC0
FF80007FC0
FF80007FC0
FF80007FC0
FF8000FF80
FF8000FF80
FF8001FF80
FF8003FF80
FF801FFF00
FFFFFFFF00
FFFFFFFE00
FFFFFFFC00
FFFFFFF800
FFFFFFF000
FFFFFFC000
FFFFFF0000
FFFFC00000
FF80000000
FF80000000
FF80000000
FF80000000
FF80000000
FF80000000
FF80000000
ENDCHAR
STARTCHAR 00DF
ENCODING 223
SWIDTH 585 0
DWIDTH 39 0
BBX 32 49 4 -1
BITMAP
001FE000
00FFFE00
03FFFF80
0FFFFFE0
1FFFFFF0
1FFFFFF8
3FFFFFFC
3FFFFFFC
7FE00FFE
7FC003FE
FFC003FE
FFC001FE
FF8001FE
FF8001FE
FF8001FE
FF8001FE
FF8003FE
FF8003FE
FF800FFC
FF80FFF8
FF8FFFF8
FF8FFFF0
FF8FFFC0
FF8FFF80
FF8FFFE0
FF8FFFF0
FF807FF8
FF8007FC
FF8003FE
FF8001FF
FF8000FF
FF8000FF
FF8000FF
FF8000FF
FF8000FF
FF8000FF
FF8000FF
FF8001FF
FF8003FF
FF8007FF
FF803FFE
FF87FFFE
FF87FFFC
FF87FFF8
FF87FFF0
FF87FFE0
FF87FFC0
FF87FF00
0003E000
ENDCHAR
STARTCHAR 00E0
ENCODING 224
SWIDTH 615 0
DWIDTH 41 0
BBX 35 54 2 -1
BITMAP
01FF000000
01FF000000
00FF800000
007F800000
007FC00000
003FC00000
001FE00000
001FE00000
000FF00000
0007F00000
0007F80000
0003F80000
0001FC0000
0000000000
0000000000
0000000000
0000000000
003FE00000
00FFF83FE0
03FFFC3FE0
07FFFE3FE0
0FFFFF3FE0
0FFFFFBFE0
1FFFFFFFE0
1FFFBFFFE0
3FFC03FFE0
3FF801FFE0
7FF000FFE0
7FE000FFE0
7FE0007FE0
7FC0007FE0
7FC0007FE0
FFC0007FE0
FFC0003FE0
FFC0003FE0
FFC0003FE0
FFC0003FE0
FFC0007FE0
7FC0007FE0
7FC0007FE0
7FE0007FE0
7FE000FFE0
7FF000FFE0
3FF001FFE0
3FF803FFE0
3FFE07FFE0
1FFFFFFFE0
1FFFFFBFE0
0FFFFF3FE0
07FFFE3FE0
03FFFC3FE0
01FFF83FE0
007FF03FE0
0002000000
ENDCHAR
STARTCHAR 00E1
ENCODING 225
SWIDTH 615 0
DWIDTH 41 0
BBX 35 54 2 -1
BITMAP
000007FC00
000007FC00
00000FF800
00000FF000
00001FF000
00001FE000
00003FC000
00003FC000
00007F8000
00007F0000
0000FF0000
0000FE0000
0001FC0000
0000000000
0000000000
0000000000
0000000000
003FE00000
00FFF83FE0
03FFFC3FE0
07FFFE3FE0
0FFFFF3FE0
0FFFFFBFE0
1FFFFFFFE0
1FFFBFFFE0
3FFC03FFE0
3FF801FFE0
7FF000FFE0
7FE000FFE0
7FE0007FE0
7FC0007FE0
7FC0007FE0
FFC0007FE0
FFC0003FE0
FFC0003FE0
FFC0003FE0
FFC0003FE0
FFC0007FE0
7FC0007FE0
7FC0007FE0
7FE0007FE0
7FE000FFE0
7FF000FFE0
3FF001FFE0
3FF803FFE0
3FFE07FFE0
1FFFFFFFE0
1FFFFFBFE0
0FFFFF3FE0
07FFFE3FE0
03FFFC3FE0
01FFF83FE0
007FF03FE0
0002000000
ENDCHAR
STARTCHAR 00E2
ENCODING 226
SWIDTH 615 0
DWIDTH 41 0
BBX 35 51 2 -1
BITMAP
0001FC0000
0003FE0000
0007FF0000
000FFF8000
001FFFC000
003FFFE000
007FDFF000
00FF8FF800
01FF07FC00
01FE03FE00
03FC01FF00
0000000000
0000000000
0000000000
003FE00000
00FFF83FE0
03FFFC3FE0
07FFFE3FE0
0FFFFF3FE0
0FFFFFBFE0
1FFFFFFFE0
1FFFBFFFE0
3FFC03FFE0
3FF801FFE0
7FF000FFE0
7FE000FFE0
7FE0007FE0
7FC0007FE0
7FC0007FE0
FFC0007FE0
FFC0003FE0
FFC0003FE0
FFC0003FE0
FFC0003FE0
FFC0007FE0
7FC0007FE0
7FC0007FE0
7FE0007FE0
7FE000FFE0
7FF000FFE0
3FF001FFE0
3FF803FFE0
3FFE07FFE0
1FFFFFFFE0
1FFFFFBFE0
0FFFFF3FE0
07FFFE3FE0
03FFFC3FE0
01FFF83FE0
007FF03FE0
0002000000
ENDCHAR
STARTCHAR 00E3
ENCODING 227
SWIDTH 615 0
DWIDTH 41 0
BBX 35 51 2 -1
BITMAP
000F00F800
003FE0F800
007FF8F800
007FFFF800
00FFFFF800
00FFFFF000
00F8FFF000
00F83FE000
00F80F8000
0000000000
0000000000
0000000000
0000000000
0000000000
003FE00000
00FFF83FE0
03FFFC3FE0
07FFFE3FE0
0FFFFF3FE0
0FFFFFBFE0
1FFFFFFFE0
1FFFBFFFE0
3FFC03FFE0
3FF801FFE0
7FF000FFE0
7FE000FFE0
7FE0007FE0
7FC0007FE0
7FC0007FE0
FFC0007FE0
FFC0003FE0
FFC0003FE0
FFC0003FE0
FFC0003FE0
FFC0007FE0
7FC0007FE0
7FC0007FE0
7FE0007FE0
7FE000FFE0
7FF000FFE0
3FF001FFE0
3FF803FFE0
3FFE07FFE0
1FFFFFFFE0
1FFFFFBFE0
0FFFFF3FE0
07FFFE3FE0
03FFFC3FE0
01FFF83FE0
007FF03FE0
0002000000
ENDCHAR
STARTCHAR 00E4
ENCODING 228
SWIDTH 615 0
DWIDTH 41 0
BBX 35 53 2 -1
BITMAP
0020001000
01FC00FE00
03FE01FF00
03FE01FF00
07FE03FF00
07FF03FF80
07FF03FF00
03FE01FF00
03FE01FF00
01FC00FE00
0070003800
0000000000
0000000000
0000000000
0000000000
0000000000
003FE00000
00FFF83FE0
03FFFC3FE0
07FFFE3FE0
0FFFFF3FE0
0FFFFFBFE0
1FFFFFFFE0
1FFFBFFFE0
3FFC03FFE0
3FF801FFE0
7FF000FFE0
7FE000FFE0
7FE0007FE0
7FC0007FE0
7FC0007FE0
FFC0007FE0
FFC0003FE0
FFC0003FE0
FFC0003FE0
FFC0003FE0
FFC0007FE0
7FC0007FE0
7FC0007FE0
7FE0007FE0
7FE000FFE0
7FF000FFE0
3FF001FFE0
3FF803FFE0
3FFE07FFE0
1FFFFFFFE0
1FFFFFBFE0
0FFFFF3FE0
07FFFE3FE0
03FFFC3FE0
01FFF83FE0
007FF03FE0
0002000000
ENDCHAR
STARTCHAR 00E5
ENCODING 229
SWIDTH 615 0
DWIDTH 41 0
BBX 35 54 2 -1
BITMAP
0001FC0000
0003FE0000
0007FF0000
000FFF0000
000F078000
000F078000
000F078000
000F078000
000F8F8000
0007FF0000
0007FF0000
0003FE0000
0000F80000
0000000000
0000000000
0000000000
0000000000
003FE00000
00FFF83FE0
03FFFC3FE0
07FFFE3FE0
0FFFFF3FE0
0FFFFFBFE0
1FFFFFFFE0
1FFFBFFFE0
3FFC03FFE0
3FF801FFE0
7FF000FFE0
7FE000FFE0
7FE0007FE0
7FC0007FE0
7FC0007FE0
FFC0007FE0
FFC0003FE0
FFC0003FE0
FFC0003FE0
FFC0003FE0
FFC0007FE0
7FC0007FE0
7FC0007FE0
7FE0007FE0
7FE000FFE0
7FF000FFE0
3FF001FFE0
3FF803FFE0
3FFE07FFE0
1FFFFFFFE0
1FFFFFBFE0
0FFFFF3FE0
07FFFE3FE0
03FFFC3FE0
01FFF83FE0
007FF03FE0
0002000000
ENDCHAR
STARTCHAR 00E6
ENCODING 230
SWIDTH 900 0
DWIDTH 60 0
BBX 55 37 3 -1
BITMAP
001FE0001FF000
00FFFC00FFFC00
03FFFF03FFFF00
07FFFF87FFFF80
0FFFFFCFFFFFC0
1FFFFFDFFFFFE0
1FFFFFFFFFFFF0
3FFC3FFFF07FF0
3FE00FFFC01FF8
7FE007FF800FF8
7FC007FF0007FC
7FC003FF0003FC
000003FF0003FC
000003FE0003FE
000003FE0003FE
0007FFFFFFFFFE
00FFFFFFFFFFFE
07FFFFFFFFFFFE
1FFFFFFFFFFFFE
3FFFFFFFFFFFFE
7FFFFFFFFFFFFE
7FF003FE000000
FFC003FE000000
FF8003FE000000
FF8003FF000000
FF8007FF0007FC
FF8007FF8007FC
FF800FFFC00FFC
FFC01FFFE03FF8
FFF07FFFFFFFF8
7FFFFFBFFFFFF0
7FFFFF1FFFFFE0
3FFFFE0FFFFFC0
1FFFFC07FFFF80
0FFFF001FFFE00
03FFC0007FF800
000C0000000000
ENDCHAR
STARTCHAR 00E7
ENCODING 231
SWIDTH 570 0
DWIDTH 38 0
BBX 33 52 3 -16
BITMAP
000FF80000
007FFF0000
01FFFFC000
03FFFFE000
07FFFFF000
0FFFFFF800
1FFFFFFC00
3FFF7FFE00
3FF80FFE00
7FE003FE00
7FE003FF00
7FC001FF00
FFC001FF00
FF8000FF80
FF80000000
FF80000000
FF80000000
FF80000000
FF80000000
FF80000000
FF80000000
FF80000000
FF8000FF80
FFC001FF80
7FC001FF00
7FC001FF00
7FE003FF00
3FF007FE00
3FFC0FFE00
1FFFFFFC00
1FFFFFFC00
0FFFFFF800
07FFFFF000
03FFFFE000
00FFFF8000
003FFE0000
0003E00000
0003C00000
0003C00000
0007FE0000
0007FF0000
0007FF8000
0007FF8000
000007C000
000007C000
000007C000
000007C000
0007FF8000
0007FF8000
0007FF0000
0007FE0000
0007FC0000
ENDCHAR
STARTCHAR 00E8
ENCODING 232
SWIDTH 570 0
DWIDTH 38 0
BBX 33 54 3 -1
BITMAP
07FC000000
07FC000000
03FE000000
01FE000000
01FF000000
00FF000000
007F800000
007F800000
003FC00000
001FC00000
001FE00000
000FF00000
0007F00000
0000000000
0000000000
0000000000
0000000000
000FF80000
007FFF0000
01FFFFC000
03FFFFE000
07FFFFF000
0FFFFFF800
1FFFFFFC00
3FF80FFC00
3FE003FE00
7FE003FE00
7FC001FF00
7F8001FF00
FF8000FF00
FF8000FF00
FF8000FF00
FFFFFFFF80
FFFFFFFF80
FFFFFFFF80
FFFFFFFF80
FFFFFFFF80
FFFFFFFF80
FF80000000
FF80000000
FF80000000
7F80000000
7FC001FF00
7FC003FF00
3FE007FE00
3FF80FFE00
1FFFFFFC00
1FFFFFFC00
0FFFFFF800
07FFFFF000
01FFFFE000
00FFFF8000
003FFE0000
0000800000
ENDCHAR
STARTCHAR 00E9
ENCODING 233
SWIDTH 570 0
DWIDTH 38 0
BBX 33 54 3 -1
BITMAP
00001FF000
00001FF000
00003FE000
00003FC000
00007FC000
00007F8000
0000FF8000
0000FF0000
0001FE0000
0001FE0000
0003FC0000
0003F80000
0007F80000
0000000000
0000000000
0000000000
0000000000
000FF80000
007FFF0000
01FFFFC000
03FFFFE000
07FFFFF000
0FFFFFF800
1FFFFFFC00
3FF80FFC00
3FE003FE00
7FE003FE00
7FC001FF00
7F8001FF00
FF8000FF00
FF8000FF00
FF8000FF00
FFFFFFFF80
FFFFFFFF80
FFFFFFFF80
FFFFFFFF80
FFFFFFFF80
FFFFFFFF80
FF80000000
FF80000000
FF80000000
7F80000000
7FC001FF00
7FC003FF00
3FE007FE00
3FF80FFE00
1FFFFFFC00
1FFFFFFC00
0FFFFFF800
07FFFFF000
01FFFFE000
00FFFF8000
003FFE0000
0000800000
ENDCHAR
STARTCHAR 00EA
ENCODING 234
SWIDTH 570 0
DWIDTH 38 0
BBX 33 51 3 -1
BITMAP
0007F80000
000FF80000
001FFC0000
003FFE0000
007FFF0000
00FFFF8000
01FF7FC000
03FE3FE000
03FC1FF000
07F80FF800
0FF007FC00
0000000000
0000000000
0000000000
000FF80000
007FFF0000
01FFFFC000
03FFFFE000
07FFFFF000
0FFFFFF800
1FFFFFFC00
3FF80FFC00
3FE003FE00
7FE003FE00
7FC001FF00
7F8001FF00
FF8000FF00
FF8000FF00
FF8000FF00
FFFFFFFF80
FFFFFFFF80
FFFFFFFF80
FFFFFFFF80
FFFFFFFF80
FFFFFFFF80
FF80000000
FF80000000
FF80000000
7F80000000
7FC001FF00
7FC003FF00
3FE007FE00
3FF80FFE00
1FFFFFFC00
1FFFFFFC00
0FFFFFF800
07FFFFF000
01FFFFE000
00FFFF8000
003FFE0000
0000800000
ENDCHAR
STARTCHAR 00EB
ENCODING 235
SWIDTH 570 0
DWIDTH 38 0
BBX 33 53 3 -1
BITMAP
0080004000
07F003F800
0FF807FC00
0FF807FC00
0FFC0FFE00
1FFC0FFE00
0FFC0FFE00
0FF807FC00
0FF807FC00
07F003F800
01C000E000
0000000000
0000000000
0000000000
0000000000
0000000000
000FF80000
007FFF0000
01FFFFC000
03FFFFE000
07FFFFF000
0FFFFFF800
1FFFFFFC00
3FF80FFC00
3FE003FE00
7FE003FE00
7FC001FF00
7F8001FF00
FF8000FF00
FF8000FF00
FF8000FF00
FFFFFFFF80
FFFFFFFF80
FFFFFFFF80
FFFFFFFF80
FFFFFFFF80
FFFFFFFF80
FF80000000
FF80000000
FF80000000
7F80000000
7FC001FF00
7FC003FF00
3FE007FE00
3FF80FFE00
1FFFFFFC00
1FFFFFFC00
0FFFFFF800
07FFFFF000
01FFFFE000
00FFFF8000
003FFE0000
0000800000
ENDCHAR
STARTCHAR 00EC
ENCODING 236
SWIDTH 270 0
DWIDTH 18 0
BBX 16 53 -2 0
BITMAP
FF80
FF80
7FC0
3FC0
3FE0
1FE0
0FF0
0FF0
07F8
03F8
03FC
01FC
00FE
0000
0000
0000
0000
0000
01FF
01FF
01FF
01FF
01FF
01FF
01FF
01FF
01FF
01FF
01FF
01FF
01FF
01FF
01FF
01FF
01FF
01FF
01FF
01FF
01FF
01FF
01FF
01FF
01FF
01FF
01FF
01FF
01FF
01FF
01FF
01FF
01FF
01FF
01FF
ENDCHAR
STARTCHAR 00ED
ENCODING 237
SWIDTH 270 0
DWIDTH 18 0
BBX 16 53 5 0
BITMAP
01FF
01FF
03FE
03FC
07FC
07F8
0FF0
0FF0
1FE0
1FC0
3FC0
3F80
7F00
0000
0000
0000
0000
0000
FF80
FF80
FF80
FF80
FF80
FF80
FF80
FF80
FF80
FF80
FF80
FF80
FF80
FF80
FF80
FF80
FF80
FF80
FF80
FF80
FF80
FF80
FF80
FF80
FF80
FF80
FF80
FF80
FF80
FF80
FF80
FF80
FF80
FF80
FF80
ENDCHAR
STARTCHAR 00EE
ENCODING 238
SWIDTH 270 0
DWIDTH 18 0
BBX 26 50 -3 0
BITMAP
007F0000
00FF8000
01FFC000
03FFE000
07FFF000
0FFFF800
1FF7FC00
3FE3FE00
7FC1FF00
7F80FF80
FF007FC0
00000000
00000000
00000000
00000000
00FF8000
00FF8000
00FF8000
00FF8000
00FF8000
00FF8000
00FF8000
00FF8000
00FF8000
00FF8000
00FF8000
00FF8000
00FF8000
00FF8000
00FF8000
00FF8000
00FF8000
00FF8000
00FF8000
00FF8000
00FF8000
00FF8000
00FF8000
00FF8000
00FF8000
00FF8000
00FF8000
00FF8000
00FF8000
00FF8000
00FF8000
00FF8000
00FF8000
00FF8000
00FF8000
ENDCHAR
STARTCHAR 00EF
ENCODING 239
SWIDTH 270 0
DWIDTH 18 0
BBX 28 52 -4 0
BITMAP
04000200
3F801FC0
7FC03FE0
7FC03FE0
FFC07FE0
FFE07FF0
FFE07FE0
7FC03FE0
7FC03FE0
3F801FC0
0E000700
00000000
00000000
00000000
00000000
00000000
00000000
007FC000
007FC000
007FC000
007FC000
007FC000
007FC000
007FC000
007FC000
007FC000
007FC000
007FC000
007FC000
007FC000
007FC000
007FC000
007FC000
007FC000
007FC000
007FC000
007FC000
007FC000
007FC000
007FC000
007FC000
007FC000
007FC000
007FC000
007FC000
007FC000
007FC000
007FC000
007FC000
007FC000
007FC000
007FC000
ENDCHAR
STARTCHAR 00F0
ENCODING 240
SWIDTH 600 0
DWIDTH 40 0
BBX 34 55 2 -1
BITMAP
003FC00000
003FF80700
003FFE1F00
003FFFBF80
003FFFFF80
003FFFFF00
003FFFFE00
0000FFF800
00007FFC00
0001FFFE00
0003FFFE00
0003FFFF00
0003F3FF00
0001E1FF80
000081FF80
000000FF80
000000FF80
000000FFC0
003FC0FFC0
01FFF07FC0
03FFF87FC0
07FFFC7FC0
0FFFFE7FC0
1FFFFF7FC0
3FFFFFFFC0
3FFE3FFFC0
7FF807FFC0
7FF003FFC0
FFE001FFC0
FFC001FFC0
FFC000FFC0
FFC000FFC0
FF8000FFC0
FF80007FC0
FF80007FC0
FF80007FC0
FF80007FC0
FF80007FC0
FF80007FC0
FF8000FFC0
FF8000FF80
FFC000FF80
7FC001FF80
7FE001FF80
7FE003FF00
3FF007FF00
3FFC0FFE00
1FFFFFFE00
0FFFFFFC00
0FFFFFF800
07FFFFF000
01FFFFE000
00FFFF8000
003FFE0000
0000800000
ENDCHAR
STARTCHAR 00F1
ENCODING 241
SWIDTH 600 0
DWIDTH 40 0
BBX 32 50 4 0
BITMAP
003803E0
00FF03E0
01FFC7E0
03FFFFC0
03FFFFC0
03FFFFC0
07E7FF80
07C0FF80
07C03E00
00000000
00000000
00000000
00000000
00000000
0000FF00
FF83FFE0
FF8FFFF0
FF9FFFF8
FF9FFFFC
FFBFFFFC
FFFFFFFE
FFFFFFFE
FFF80FFF
FFE007FF
FFE003FF
FFC003FF
FFC001FF
FF8001FF
FF8001FF
FF8001FF
FF8001FF
FF8001FF
FF8001FF
FF8001FF
FF8001FF
FF8001FF
FF8001FF
FF8001FF
FF8001FF
FF8001FF
FF8001FF
FF8001FF
FF8001FF
FF8001FF
FF8001FF
FF8001FF
FF8001FF
FF8001FF
FF8001FF
FF8001FF
ENDCHAR
STARTCHAR 00F2
ENCODING 242
SWIDTH 585 0
DWIDTH 39 0
BBX 33 54 3 -1
BITMAP
07FC000000
07FC000000
03FE000000
01FE000000
01FF000000
00FF000000
007F800000
007F800000
003FC00000
001FC00000
001FE00000
000FE00000
0007F00000
0000000000
0000000000
0000000000
0000000000
000FF80000
007FFF0000
01FFFFC000
03FFFFE000
07FFFFF000
0FFFFFF800
1FFFFFFC00
3FFF7FFE00
3FF80FFE00
7FE003FF00
7FE003FF00
7FC001FF00
FFC001FF80
FF8000FF80
FF8000FF80
FF8000FF80
FF8000FF80
FF8000FF80
FF8000FF80
FF8000FF80
FF8000FF80
FF8000FF80
FF8000FF80
FFC000FF80
7FC001FF80
7FC001FF00
7FE003FF00
3FF007FE00
3FFC1FFE00
1FFFFFFC00
1FFFFFFC00
0FFFFFF800
07FFFFF000
03FFFFE000
00FFFF8000
003FFE0000
0000800000
ENDCHAR
STARTCHAR 00F3
ENCODING 243
SWIDTH 585 0
DWIDTH 39 0
BBX 33 54 3 -1
BITMAP
00001FF000
00001FF000
00003FE000
00003FC000
00007FC000
00007F8000
0000FF0000
0000FF0000
0001FE0000
0001FE0000
0003FC0000
0003F80000
0007F80000
0000000000
0000000000
0000000000
0000000000
000FF80000
007FFF0000
01FFFFC000
03FFFFE000
07FFFFF000
0FFFFFF800
1FFFFFFC00
3FFF7FFE00
3FF80FFE00
7FE003FF00
7FE003FF00
7FC001FF00
FFC001FF80
FF8000FF80
FF8000FF80
FF8000FF80
FF8000FF80
FF8000FF80
FF8000FF80
FF8000FF80
FF8000FF80
FF8000FF80
FF8000FF80
FFC000FF80
7FC001FF80
7FC001FF00
7FE003FF00
3FF007FE00
3FFC1FFE00
1FFFFFFC00
1FFFFFFC00
0FFFFFF800
07FFFFF000
03FFFFE000
00FFFF8000
003FFE0000
0000800000
ENDCHAR
STARTCHAR 00F4
ENCODING 244
SWIDTH 585 0
DWIDTH 39 0
BBX 33 51 3 -1
BITMAP
0007F00000
000FF80000
001FFC0000
003FFE0000
007FFF0000
00FFFF8000
01FF7FC000
03FE3FE000
07FC1FF000
07F80FF800
0FF007FC00
0000000000
0000000000
0000000000
000FF80000
007FFF0000
01FFFFC000
03FFFFE000
07FFFFF000
0FFFFFF800
1FFFFFFC00
3FFF7FFE00
3FF80FFE00
7FE003FF00
7FE003FF00
7FC001FF00
FFC001FF80
FF8000FF80
FF8000FF80
FF8000FF80
FF8000FF80
FF8000FF80
FF8000FF80
FF8000FF80
FF8000FF80
FF8000FF80
FF8000FF80
FFC000FF80
7FC001FF80
7FC001FF00
7FE003FF00
3FF007FE00
3FFC1FFE00
1FFFFFFC00
1FFFFFFC00
0FFFFFF800
07FFFFF000
03FFFFE000
00FFFF8000
003FFE0000
0000800000
ENDCHAR
STARTCHAR 00F5
ENCODING 245
SWIDTH 585 0
DWIDTH 39 0
BBX 33 51 3 -1
BITMAP
003C03E000
00FF83E000
01FFE3E000
01FFFFE000
03FFFFE000
03FFFFC000
03E3FFC000
03E0FF8000
03E03E0000
0000000000
0000000000
0000000000
0000000000
0000000000
000FF80000
007FFF0000
01FFFFC000
03FFFFE000
07FFFFF000
0FFFFFF800
1FFFFFFC00
3FFF7FFE00
3FF80FFE00
7FE003FF00
7FE003FF00
7FC001FF00
FFC001FF80
FF8000FF80
FF8000FF80
FF8000FF80
FF8000FF80
FF8000FF80
FF8000FF80
FF8000FF80
FF8000FF80
FF8000FF80
FF8000FF80
FFC000FF80
7FC001FF80
7FC001FF00
7FE003FF00
3FF007FE00
3FFC1FFE00
1FFFFFFC00
1FFFFFFC00
0FFFFFF800
07FFFFF000
03FFFFE000
00FFFF8000
003FFE0000
0000800000
ENDCHAR
STARTCHAR 00F6
ENCODING 246
SWIDTH 585 0
DWIDTH 39 0
BBX 33 53 3 -1
BITMAP
0080004000
07F003F800
0FF807FC00
0FF807FC00
1FFC0FFC00
1FFC0FFE00
1FFC0FFE00
0FF807FC00
0FF807FC00
07F003F800
01C000E000
0000000000
0000000000
0000000000
0000000000
0000000000
000FF80000
007FFF0000
01FFFFC000
03FFFFE000
07FFFFF000
0FFFFFF800
1FFFFFFC00
3FFF7FFE00
3FF80FFE00
7FE003FF00
7FE003FF00
7FC001FF00
FFC001FF80
FF8000FF80
FF8000FF80
FF8000FF80
FF8000FF80
FF8000FF80
FF8000FF80
FF8000FF80
FF8000FF80
FF8000FF80
FF8000FF80
FFC000FF80
7FC001FF80
7FC001FF00
7FE003FF00
3FF007FE00
3FFC1FFE00
1FFFFFFC00
1FFFFFFC00
0FFFFFF800
07FFFFF000
03FFFFE000
00FFFF8000
003FFE0000
0000800000
ENDCHAR
STARTCHAR 00F7
ENCODING 247
SWIDTH 600 0
DWIDTH 40 0
BBX 28 37 5 2
BITMAP
001F8000
003FC000
007FE000
007FE000
007FE000
007FE000
007FE000
007FE000
003FC000
001F8000
00000000
00000000
00000000
00000000
00000000
FFFFFFF0
FFFFFFF0
FFFFFFF0
FFFFFFF0
FFFFFFF0
FFFFFFF0
FFFFFFF0
00000000
00000000
00000000
00000000
00060000
001FC000
003FC000
007FE000
007FE000
007FE000
007FE000
007FE000
003FC000
001FC000
00060000
ENDCHAR
STARTCHAR 00F8
ENCODING 248
SWIDTH 585 0
DWIDTH 39 0
BBX 33 41 3 -2
BITMAP
0000007E00
000000FE00
000000FC00
000FF9FC00
007FFFF800
01FFFFF800
03FFFFF000
07FFFFF000
0FFFFFF800
1FFFFFFC00
3FFE7FFE00
3FF81FFE00
7FE03FFF00
7FE03FFF00
7FC07FFF00
FFC0FFFF80
FF80FCFF80
FF81FCFF80
FF81F8FF80
FF83F8FF80
FF83F0FF80
FF87F0FF80
FF8FE0FF80
FF8FC0FF80
FF9FC0FF80
FF9F80FF80
FFFF81FF80
7FFF01FF80
7FFF01FF00
7FFE03FF00
3FFC07FE00
3FFC1FFE00
1FFFFFFC00
1FFFFFFC00
0FFFFFF800
07FFFFF000
07FFFFE000
0FFFFF8000
1FFFFE0000
1F80800000
3F80000000
ENDCHAR
STARTCHAR 00F9
ENCODING 249
SWIDTH 585 0
DWIDTH 39 0
BBX 32 54 4 -1
BITMAP
1FF00000
0FF80000
07FC0000
07FC0000
03FE0000
01FE0000
01FF0000
00FF0000
007F8000
007F8000
003FC000
001FC000
001FE000
00000000
00000000
00000000
00000000
00000000
FF8001FF
FF8001FF
FF8001FF
FF8001FF
FF8001FF
FF8001FF
FF8001FF
FF8001FF
FF8001FF
FF8001FF
FF8001FF
FF8001FF
FF8001FF
FF8001FF
FF8001FF
FF8001FF
FF8001FF
FF8001FF
FF8001FF
FF8001FF
FF8003FF
FF8003FF
FF8003FF
FFC003FF
FFC003FF
FFE007FF
FFE00FFF
7FF83FFF
7FFFFFFF
3FFFFDFF
3FFFF9FF
1FFFF9FF
1FFFF1FF
07FFE1FF
03FF81FF
00380000
ENDCHAR
STARTCHAR 00FA
ENCODING 250
SWIDTH 585 0
DWIDTH 39 0
BBX 32 54 4 -1
BITMAP
00003FE0
00007FC0
00007FC0
0000FF80
0000FF00
0001FF00
0001FE00
0003FC00
0003FC00
0007F800
0007F800
000FF000
000FE000
00000000
00000000
00000000
00000000
00000000
FF8001FF
FF8001FF
FF8001FF
FF8001FF
FF8001FF
FF8001FF
FF8001FF
FF8001FF
FF8001FF
FF8001FF
FF8001FF
FF8001FF
FF8001FF
FF8001FF
FF8001FF
FF8001FF
FF8001FF
FF8001FF
FF8001FF
FF8001FF
FF8003FF
FF8003FF
FF8003FF
FFC003FF
FFC003FF
FFE007FF
FFE00FFF
7FF83FFF
7FFFFFFF
3FFFFDFF
3FFFF9FF
1FFFF9FF
1FFFF1FF
07FFE1FF
03FF81FF
00380000
ENDCHAR
STARTCHAR 00FB
ENCODING 251
SWIDTH 585 0
DWIDTH 39 0
BBX 32 51 4 -1
BITMAP
001FE000
001FF000
003FF800
007FFC00
00FFFE00
01FFFF00
03FCFF80
07F87FC0
0FF83FC0
1FF01FE0
3FE00FF0
00000000
00000000
00000000
00000000
FF8001FF
FF8001FF
FF8001FF
FF8001FF
FF8001FF
FF8001FF
FF8001FF
FF8001FF
FF8001FF
FF8001FF
FF8001FF
FF8001FF
FF8001FF
FF8001FF
FF8001FF
FF8001FF
FF8001FF
FF8001FF
FF8001FF
FF8001FF
FF8003FF
FF8003FF
FF8003FF
FFC003FF
FFC003FF
FFE007FF
FFE00FFF
7FF83FFF
7FFFFFFF
3FFFFDFF
3FFFF9FF
1FFFF9FF
1FFFF1FF
07FFE1FF
03FF81FF
00380000
ENDCHAR
STARTCHAR 00FC
ENCODING 252
SWIDTH 585 0
DWIDTH 39 0
BBX 32 52 4 0
BITMAP
0FC007E0
1FE00FF0
3FF01FF8
3FF01FF8
3FF01FF8
3FF01FF8
3FF01FF8
1FE00FF0
0FE007F0
03000380
00000000
00000000
00000000
00000000
00000000
00000000
FF8001FF
FF8001FF
FF8001FF
FF8001FF
FF8001FF
FF8001FF
FF8001FF
FF8001FF
FF8001FF
FF8001FF
FF8001FF
FF8001FF
FF8001FF
FF8001FF
FF8001FF
FF8001FF
FF8001FF
FF8001FF
FF8001FF
FF8001FF
FF8003FF
FF8003FF
FF8003FF
FFC003FF
FFC003FF
FFE007FF
FFE00FFF
7FF83FFF
7FFFFFFF
3FFFFDFF
3FFFF9FF
1FFFF9FF
1FFFF1FF
07FFE1FF
03FF81FF
00380000
ENDCHAR
STARTCHAR 00FD
ENCODING 253
SWIDTH 540 0
DWIDTH 36 0
BBX 34 68 2 -15
BITMAP
00001FF000
00001FF000
00003FE000
00003FC000
00007FC000
00007F8000
0000FF0000
0000FF0000
0001FE0000
0001FE0000
0003FC0000
0003F80000
0007F80000
0000000000
0000000000
0000000000
0000000000
0000000000
FF8000FFC0
FF8000FF80
FFC000FF80
7FC000FF80
7FC001FF00
7FE001FF00
3FE001FE00
3FE003FE00
1FE003FE00
1FF003FC00
1FF007FC00
0FF007FC00
0FF807F800
0FF80FF800
07F80FF000
07FC0FF000
03FC1FF000
03FC1FE000
03FE1FE000
01FE3FC000
01FE3FC000
01FF3FC000
00FF7F8000
00FF7F8000
00FFFF8000
007FFF0000
007FFF0000
003FFE0000
003FFE0000
003FFE0000
001FFC0000
001FFC0000
001FF80000
000FF80000
000FF80000
000FF00000
001FF00000
001FF00000
003FE00000
003FE00000
007FC00000
00FFC00000
01FF800000
7FFF800000
7FFF000000
7FFF000000
7FFE000000
7FFC000000
7FF0000000
3F80000000
ENDCHAR
STARTCHAR 00FE
ENCODING 254
SWIDTH 615 0
DWIDTH 41 0
BBX 34 66 4 -16
BITMAP
FF80000000
FF80000000
FF80000000
FF80000000
FF80000000
FF80000000
FF80000000
FF80000000
FF80000000
FF80000000
FF80000000
FF80000000
FF80000000
FF80000000
FF80FF0000
FF83FFE000
FF87FFF000
FF9FFFF800
FF9FFFFC00
FFBFFFFE00
FFFFFFFF00
FFFFFFFF00
FFF807FF80
FFF003FF80
FFE001FF80
FFE001FFC0
FFC000FFC0
FFC000FFC0
FFC0007FC0
FF80007FC0
FF80007FC0
FF80007FC0
FF80007FC0
FF80007FC0
FF80007FC0
FF80007FC0
FFC000FFC0
FFC000FFC0
FFC000FFC0
FFE001FF80
FFE001FF80
FFF003FF80
FFFC0FFF00
FFFFFFFF00
FFBFFFFE00
FFBFFFFE00
FF9FFFFC00
FF8FFFF800
FF87FFF000
FF81FFC000
FF800C0000
FF80000000
FF80000000
FF80000000
FF80000000
FF80000000
FF80000000
FF80000000
FF80000000
FF80000000
FF80000000
FF80000000
FF80000000
FF80000000
FF80000000
FF80000000
ENDCHAR
STARTCHAR 00FF
ENCODING 255
SWIDTH 540 0
DWIDTH 36 0
BBX 34 67 2 -15
BITMAP
0080004000
07F003F800
0FF807FC00
0FF807FC00
1FFC0FFC00
1FFC0FFE00
1FFC0FFE00
0FF807FC00
0FF807FC00
07F003F800
01C000E000
0000000000
0000000000
0000000000
0000000000
0000000000
0000000000
FF8000FFC0
FF8000FF80
FFC000FF80
7FC000FF80
7FC001FF00
7FE001FF00
3FE001FE00
3FE003FE00
1FE003FE00
1FF003FC00
1FF007FC00
0FF007FC00
0FF807F800
0FF80FF800
07F80FF000
07FC0FF000
03FC1FF000
03FC1FE000
03FE1FE000
01FE3FC000
01FE3FC000
01FF3FC000
00FF7F8000
00FF7F8000
00FFFF8000
007FFF0000
007FFF0000
003FFE0000
003FFE0000
003FFE0000
001FFC0000
001FFC0000
001FF80000
000FF80000
000FF80000
000FF00000
001FF00000
001FF00000
003FE00000
003FE00000
007FC00000
00FFC00000
01FF800000
7FFF800000
7FFF000000
7FFF000000
7FFE000000
7FFC000000
7FF0000000
3F80000000
ENDCHAR
STARTCHAR 0100
ENCODING 256
SWIDTH 675 0
DWIDTH 45 0
BBX 42 57 2 0
BITMAP
003FFFFE0000
003FFFFE0000
003FFFFE0000
003FFFFE0000
000000000000
000000000000
000000000000
000000000000
000000000000
000000000000
0000FF800000
0000FF800000
0000FFC00000
0001FFC00000
0001FFE00000
0003FFE00000
0003FFE00000
0003FFF00000
0007FFF00000
0007FFF00000
0007FFF80000
000FFFF80000
000FF7F80000
000FF7FC0000
001FE3FC0000
001FE3FC0000
003FE3FE0000
003FC1FE0000
003FC1FF0000
007FC1FF0000
007FC0FF0000
007F80FF8000
00FF80FF8000
00FF807F8000
00FF007FC000
01FF007FC000
01FF003FC000
01FE003FE000
03FFFFFFE000
03FFFFFFE000
07FFFFFFF000
07FFFFFFF000
07FFFFFFF800
0FFFFFFFF800
0FFFFFFFF800
0FFFFFFFFC00
1FF00007FC00
1FF00007FC00
1FF00003FE00
3FE00003FE00
3FE00003FE00
3FE00001FF00
7FC00001FF00
7FC00001FF00
FFC00000FF80
FF800000FF80
FF800000FFC0
ENDCHAR
STARTCHAR 0101
ENCODING 257
SWIDTH 615 0
DWIDTH 41 0
BBX 35 46 2 -1
BITMAP
00FFFFF800
00FFFFF800
00FFFFF800
00FFFFF800
0000000000
0000000000
0000000000
0000000000
0000000000
003FE00000
00FFF83FE0
03FFFC3FE0
07FFFE3FE0
0FFFFF3FE0
0FFFFFBFE0
1FFFFFFFE0
1FFFBFFFE0
3FFC03FFE0
3FF801FFE0
7FF000FFE0
7FE000FFE0
7FE0007FE0
7FC0007FE0
7FC0007FE0
FFC0007FE0
FFC0003FE0
FFC0003FE0
FFC0003FE0
FFC0003FE0
FFC0007FE0
7FC0007FE0
7FC0007FE0
7FE0007FE0
7FE000FFE0
7FF000FFE0
3FF001FFE0
3FF803FFE0
3FFE07FFE0
1FFFFFFFE0
1FFFFFBFE0
0FFFFF3FE0
07FFFE3FE0
03FFFC3FE0
01FFF83FE0
007FF03FE0
0002000000
ENDCHAR
STARTCHAR 0102
ENCODING 258
SWIDTH 675 0
DWIDTH 45 0
BBX 42 60 2 0
BITMAP
00FF007F8000
007F007F0000
007F81FE0000
003FFFFE0000
001FFFFC0000
000FFFF80000
0007FFE00000
0001FF800000
000000000000
000000000000
000000000000
000000000000
000000000000
0000FF800000
0000FF800000
0000FFC00000
0001FFC00000
0001FFE00000
0003FFE00000
0003FFE00000
0003FFF00000
0007FFF00000
0007FFF00000
0007FFF80000
000FFFF80000
000FF7F80000
000FF7FC0000
001FE3FC0000
001FE3FC0000
003FE3FE0000
003FC1FE0000
003FC1FF0000
007FC1FF0000
007FC0FF0000
007F80FF8000
00FF80FF8000
00FF807F8000
00FF007FC000
01FF007FC000
01FF003FC000
01FE003FE000
03FFFFFFE000
03FFFFFFE000
07FFFFFFF000
07FFFFFFF000
07FFFFFFF800
0FFFFFFFF800
0FFFFFFFF800
0FFFFFFFFC00
1FF00007FC00
1FF00007FC00
1FF00003FE00
3FE00003FE00
3FE00003FE00
3FE00001FF00
7FC00001FF00
7FC00001FF00
FFC00000FF80
FF800000FF80
FF800000FFC0
ENDCHAR
STARTCHAR 0103
ENCODING 259
SWIDTH 615 0
DWIDTH 41 0
BBX 35 49 2 -1
BITMAP
01FC01FC00
01FE03FC00
00FF8FF800
007FFFF000
003FFFE000
001FFFC000
000FFF8000
0001FC0000
0000000000
0000000000
0000000000
0000000000
003FE00000
00FFF83FE0
03FFFC3FE0
07FFFE3FE0
0FFFFF3FE0
0FFFFFBFE0
1FFFFFFFE0
1FFFBFFFE0
3FFC03FFE0
3FF801FFE0
7FF000FFE0
7FE000FFE0
7FE0007FE0
7FC0007FE0
7FC0007FE0
FFC0007FE0
FFC0003FE0
FFC0003FE0
FFC0003FE0
FFC0003FE0
FFC0007FE0
7FC0007FE0
7FC0007FE0
7FE0007FE0
7FE000FFE0
7FF000FFE0
3FF001FFE0
3FF803FFE0
3FFE07FFE0
1FFFFFFFE0
1FFFFFBFE0
0FFFFF3FE0
07FFFE3FE0
03FFFC3FE0
01FFF83FE0
007FF03FE0
0002000000
ENDCHAR
STARTCHAR 0104
ENCODING 260
SWIDTH 675 0
DWIDTH 45 0
BBX 42 59 2 -12
BITMAP
0000FF800000
0000FF800000
0000FFC00000
0001FFC00000
0001FFE00000
0003FFE00000
0003FFE00000
0003FFF00000
0007FFF00000
0007FFF00000
0007FFF80000
000FFFF80000
000FF7F80000
000FF7FC0000
001FE3FC0000
001FE3FC0000
003FE3FE0000
003FC1FE0000
003FC1FF0000
007FC1FF0000
007FC0FF0000
007F80FF8000
00FF80FF8000
00FF807F8000
00FF007FC000
01FF007FC000
01FF003FC000
01FE003FE000
03FFFFFFE000
03FFFFFFE000
07FFFFFFF000
07FFFFFFF000
07FFFFFFF800
0FFFFFFFF800
0FFFFFFFF800
0FFFFFFFFC00
1FF00007FC00
1FF00007FC00
1FF00003FE00
3FE00003FE00
3FE00003FE00
3FE00001FF00
7FC00001FF00
7FC00001FF00
FFC00000FF80
FF800000FF80
FF800000FFC0
00000000FE00
00000001F800
00000003F000
00000003F000
00000003F000
00000003F000
00000003FC40
00000003FFC0
00000001FFC0
00000000FFC0
000000007FC0
000000000B80
ENDCHAR
STARTCHAR 0105
ENCODING 261
SWIDTH 615 0
DWIDTH 41 0
BBX 37 48 2 -12
BITMAP
003FE00000
00FFF83FE0
03FFFC3FE0
07FFFE3FE0
0FFFFF3FE0
0FFFFFBFE0
1FFFFFFFE0
1FFFBFFFE0
3FFC03FFE0
3FF801FFE0
7FF000FFE0
7FE000FFE0
7FE0007FE0
7FC0007FE0
7FC0007FE0
FFC0007FE0
FFC0003FE0
FFC0003FE0
FFC0003FE0
FFC0003FE0
FFC0007FE0
7FC0007FE0
7FC0007FE0
7FE0007FE0
7FE000FFE0
7FF000FFE0
3FF001FFE0
3FF803FFE0
3FFE07FFE0
1FFFFFFFE0
1FFFFFBFE0
0FFFFF3FE0
07FFFE3FE0
03FFFC3FE0
01FFF83FE0
007FF03FE0
0002001FC0
0000003F80
0000003F00
0000007E00
0000007E00
0000007F00
0000007F80
0000003FF8
0000003FF8
0000001FF8
00000007F8
0000000070
ENDCHAR
STARTCHAR 0106
ENCODING 262
SWIDTH 690 0
DWIDTH 46 0
BBX 41 66 3 -1
BITMAP
000000FF8000
000001FF0000
000001FF0000
000003FE0000
000003FC0000
000007FC0000
000007F80000
00000FF00000
00000FF00000
00001FE00000
00001FC00000
00003FC00000
00003F800000
000000000000
000000000000
000000000000
000000000000
00001F000000
0003FFF00000
000FFFFE0000
003FFFFF0000
00FFFFFFC000
01FFFFFFE000
03FFFFFFF000
07FFFFFFF800
07FFFBFFF800
0FFF003FFC00
1FFE000FFE00
1FF80007FE00
3FF80003FF00
3FF00001FF00
7FE00001FF00
7FE00000FF80
7FE00000FF80
7FC000000000
FFC000000000
FFC000000000
FFC000000000
FFC000000000
FF8000000000
FF8000000000
FF8000000000
FF8000000000
FF8000000000
FFC000000000
FFC000000000
FFC000000000
FFC000000000
7FC000000000
7FE00000FF80
7FE00000FF80
7FE00001FF00
3FF00003FF00
3FF80003FF00
1FFC0007FE00
1FFE000FFE00
0FFF003FFC00
07FFFFFFF800
07FFFFFFF800
03FFFFFFF000
01FFFFFFE000
007FFFFFC000
003FFFFF0000
000FFFFC0000
0003FFF00000
000012000000
ENDCHAR
STARTCHAR 0107
ENCODING 263
SWIDTH 570 0
DWIDTH 38 0
BBX 33 54 3 -1
BITMAP
00001FF000
00001FF000
00003FE000
00003FC000
00007FC000
00007F8000
0000FF8000
0000FF0000
0001FE0000
0001FE0000
0003FC0000
0003F80000
0007F80000
0000000000
0000000000
0000000000
0000000000
000FF80000
007FFF0000
01FFFFC000
03FFFFE000
07FFFFF000
0FFFFFF800
1FFFFFFC00
3FFF7FFE00
3FF80FFE00
7FE003FE00
7FE003FF00
7FC001FF00
FFC001FF00
FF8000FF80
FF80000000
FF80000000
FF80000000
FF80000000
FF80000000
FF80000000
FF80000000
FF80000000
FF8000FF80
FFC001FF80
7FC001FF00
7FC001FF00
7FE003FF00
3FF007FE00
3FFC0FFE00
1FFFFFFC00
1FFFFFFC00
0FFFFFF800
07FFFFF000
03FFFFE000
00FFFF8000
003FFE0000
0001C00000
ENDCHAR
STARTCHAR 010A
ENCODING 266
SWIDTH 690 0
DWIDTH 46 0
BBX 41 64 3 -1
BITMAP
00003E000000
00007F000000
0000FF800000
0000FFC00000
0000FFC00000
0000FFC00000
0000FFC00000
0000FF800000
00007F800000
00003E000000
000000000000
000000000000
000000000000
000000000000
000000000000
00001F000000
0003FFF00000
000FFFFE0000
003FFFFF0000
00FFFFFFC000
01FFFFFFE000
03FFFFFFF000
07FFFFFFF800
07FFFBFFF800
0FFF003FFC00
1FFE000FFE00
1FF80007FE00
3FF80003FF00
3FF00001FF00
7FE00001FF00
7FE00000FF80
7FE00000FF80
7FC000000000
FFC000000000
FFC000000000
FFC000000000
FFC000000000
FF8000000000
FF8000000000
FF8000000000
FF8000000000
FF8000000000
FFC000000000
FFC000000000
FFC000000000
FFC000000000
7FC000000000
7FE00000FF80
7FE00000FF80
7FE00001FF00
3FF00003FF00
3FF80003FF00
1FFC0007FE00
1FFE000FFE00
0FFF003FFC00
07FFFFFFF800
07FFFFFFF800
03FFFFFFF000
01FFFFFFE000
007FFFFFC000
003FFFFF0000
000FFFFC0000
0003FFF00000
000012000000
ENDCHAR
STARTCHAR 010B
ENCODING 267
SWIDTH 570 0
DWIDTH 38 0
BBX 33 53 3 -1
BITMAP
0000800000
0007F00000
000FF80000
000FF80000
001FFC0000
001FFC0000
001FFC0000
000FF80000
000FF80000
0007F00000
0001C00000
0000000000
0000000000
0000000000
0000000000
0000000000
000FF80000
007FFF0000
01FFFFC000
03FFFFE000
07FFFFF000
0FFFFFF800
1FFFFFFC00
3FFF7FFE00
3FF80FFE00
7FE003FE00
7FE003FF00
7FC001FF00
FFC001FF00
FF8000FF80
FF80000000
FF80000000
FF80000000
FF80000000
FF80000000
FF80000000
FF80000000
FF80000000
FF8000FF80
FFC001FF80
7FC001FF00
7FC001FF00
7FE003FF00
3FF007FE00
3FFC0FFE00
1FFFFFFC00
1FFFFFFC00
0FFFFFF800
07FFFFF000
03FFFFE000
00FFFF8000
003FFE0000
0001C00000
ENDCHAR
STARTCHAR 010C
ENCODING 268
SWIDTH 690 0
DWIDTH 46 0
BBX 41 62 3 -1
BITMAP
00FF80FF8000
003FC1FF0000
003FE1FE0000
001FF3FC0000
000FFFF80000
0007FFF00000
0003FFE00000
0001FFC00000
0000FFC00000
00007F800000
000000000000
000000000000
000000000000
00001F000000
0003FFF00000
000FFFFE0000
003FFFFF0000
00FFFFFFC000
01FFFFFFE000
03FFFFFFF000
07FFFFFFF800
07FFFBFFF800
0FFF003FFC00
1FFE000FFE00
1FF80007FE00
3FF80003FF00
3FF00001FF00
7FE00001FF00
7FE00000FF80
7FE00000FF80
7FC000000000
FFC000000000
FFC000000000
FFC000000000
FFC000000000
FF8000000000
FF8000000000
FF8000000000
FF8000000000
FF8000000000
FFC000000000
FFC000000000
FFC000000000
FFC000000000
7FC000000000
7FE00000FF80
7FE00000FF80
7FE00001FF00
3FF00003FF00
3FF80003FF00
1FFC0007FE00
1FFE000FFE00
0FFF003FFC00
07FFFFFFF800
07FFFFFFF800
03FFFFFFF000
01FFFFFFE000
007FFFFFC000
003FFFFF0000
000FFFFC0000
0003FFF00000
000012000000
ENDCHAR
STARTCHAR 010D
ENCODING 269
SWIDTH 570 0
DWIDTH 38 0
BBX 33 51 3 -1
BITMAP
0FF007F800
07F80FF000
03FC1FE000
01FE3FC000
00FF7F8000
007FFF8000
007FFF0000
003FFE0000
001FFC0000
000FF80000
0007F00000
0000000000
0000000000
0000000000
000FF80000
007FFF0000
01FFFFC000
03FFFFE000
07FFFFF000
0FFFFFF800
1FFFFFFC00
3FFF7FFE00
3FF80FFE00
7FE003FE00
7FE003FF00
7FC001FF00
FFC001FF00
FF8000FF80
FF80000000
FF80000000
FF80000000
FF80000000
FF80000000
FF80000000
FF80000000
FF80000000
FF8000FF80
FFC001FF80
7FC001FF00
7FC001FF00
7FE003FF00
3FF007FE00
3FFC0FFE00
1FFFFFFC00
1FFFFFFC00
0FFFFFF800
07FFFFF000
03FFFFE000
00FFFF8000
003FFE0000
0001C00000
ENDCHAR
STARTCHAR 010E
ENCODING 270
SWIDTH 675 0
DWIDTH 45 0
BBX 39 61 4 0
BITMAP
07FC03FC00
01FE07F800
00FF0FF000
007F9FE000
007FFFC000
003FFF8000
001FFF8000
000FFF0000
0007FE0000
0003FC0000
0000000000
0000000000
0000000000
0000000000
FFFFF80000
FFFFFFC000
FFFFFFF000
FFFFFFFC00
FFFFFFFE00
FFFFFFFF00
FFFFFFFF80
FFFFFFFFC0
FF807FFFE0
FF8003FFE0
FF8000FFF0
FF80007FF0
FF80003FF8
FF80001FF8
FF80001FFC
FF80000FFC
FF80000FFC
FF80000FFC
FF800007FC
FF800007FE
FF800007FE
FF800007FE
FF800007FE
FF800007FE
FF800007FE
FF800007FE
FF800007FE
FF800007FE
FF800007FE
FF80000FFC
FF80000FFC
FF80000FFC
FF80001FFC
FF80001FF8
FF80003FF8
FF80007FF8
FF8000FFF0
FF8003FFE0
FF803FFFE0
FFFFFFFFC0
FFFFFFFF80
FFFFFFFF00
FFFFFFFE00
FFFFFFFC00
FFFFFFF000
FFFFFFC000
FFFFFC0000
ENDCHAR
STARTCHAR 010F
ENCODING 271
SWIDTH 780 0
DWIDTH 52 0
BBX 48 55 3 -1
BITMAP
0000000001FC
0000000003FE
0000000007FF
0000000007FF
0000007FC7FF
0000007FC7FF
0000007FC7FF
0000007FC7FF
0000007FC3FF
0000007FC03F
0000007FC00F
0000007FC00F
0000007FC00F
0000007FC00F
0000007FC01E
0000007FC01E
0000007FC03C
0000007FC0F8
003FC07FC1F0
01FFF07FC1E0
03FFF87FC100
0FFFFC7FC000
0FFFFE7FC000
1FFFFF7FC000
3FFFFFFFC000
3FFFFFFFC000
7FF807FFC000
7FF003FFC000
7FE001FFC000
FFE001FFC000
FFC000FFC000
FFC000FFC000
FF8000FFC000
FF80007FC000
FF80007FC000
FF80007FC000
FF80007FC000
FF80007FC000
FF80007FC000
FF80007FC000
FF8000FFC000
FFC000FFC000
FFC000FFC000
7FE001FFC000
7FE001FFC000
7FF003FFC000
3FFC0FFFC000
3FFFFFFFC000
1FFFFF7FC000
1FFFFE7FC000
0FFFFE7FC000
07FFFC7FC000
03FFF87FC000
00FFE07FC000
000600000000
ENDCHAR
STARTCHAR 0110
ENCODING 272
SWIDTH 705 0
DWIDTH 47 0
BBX 43 47 2 0
BITMAP
0FFFFF800000
0FFFFFF80000
0FFFFFFE0000
0FFFFFFF8000
0FFFFFFFE000
0FFFFFFFF000
0FFFFFFFF800
0FFFFFFFFC00
0FF81FFFFE00
0FF8003FFE00
0FF8000FFF00
0FF80007FF00
0FF80003FF80
0FF80001FF80
0FF80001FFC0
0FF80000FFC0
0FF80000FFC0
0FF80000FFC0
0FF80000FFC0
0FF800007FE0
FFFFF0007FE0
FFFFF0007FE0
FFFFF0007FE0
FFFFF0007FE0
FFFFF0007FE0
FFFFF0007FE0
0FF800007FE0
0FF800007FE0
0FF80000FFC0
0FF80000FFC0
0FF80000FFC0
0FF80000FFC0
0FF80001FFC0
0FF80001FF80
0FF80003FF80
0FF80007FF00
0FF8000FFF00
0FF8003FFE00
0FF807FFFE00
0FFFFFFFFC00
0FFFFFFFF800
0FFFFFFFF000
0FFFFFFFE000
0FFFFFFFC000
0FFFFFFF0000
0FFFFFFC0000
0FFFFFC00000
ENDCHAR
STARTCHAR 0111
ENCODING 273
SWIDTH 615 0
DWIDTH 41 0
BBX 38 51 3 -1
BITMAP
0000007FC0
0000007FC0
0000007FC0
0000007FC0
0000007FC0
00007FFFFC
00007FFFFC
00007FFFFC
00007FFFFC
00007FFFFC
00007FFFFC
0000007FC0
0000007FC0
0000007FC0
003FC07FC0
01FFF07FC0
03FFF87FC0
0FFFFC7FC0
0FFFFE7FC0
1FFFFF7FC0
3FFFFFFFC0
3FFFFFFFC0
7FF807FFC0
7FF003FFC0
7FE001FFC0
FFE001FFC0
FFC000FFC0
FFC000FFC0
FF8000FFC0
FF80007FC0
FF80007FC0
FF80007FC0
FF80007FC0
FF80007FC0
FF80007FC0
FF80007FC0
FF8000FFC0
FFC000FFC0
FFC000FFC0
7FE001FFC0
7FE001FFC0
7FF003FFC0
3FFC0FFFC0
3FFFFFFFC0
1FFFFF7FC0
1FFFFE7FC0
0FFFFE7FC0
07FFFC7FC0
03FFF87FC0
00FFE07FC0
0006000000
ENDCHAR
STARTCHAR 0112
ENCODING 274
SWIDTH 555 0
DWIDTH 37 0
BBX 31 57 4 0
BITMAP
0FFFFFC0
0FFFFFC0
0FFFFFC0
0FFFFFC0
00000000
00000000
00000000
00000000
00000000
00000000
FFFFFFFE
FFFFFFFE
FFFFFFFE
FFFFFFFE
FFFFFFFE
FFFFFFFE
FFFFFFFE
FFFFFFFE
FF800000
FF800000
FF800000
FF800000
FF800000
FF800000
FF800000
FF800000
FF800000
FF800000
FF800000
FF800000
FFFFFFE0
FFFFFFE0
FFFFFFE0
FFFFFFE0
FFFFFFE0
FFFFFFE0
FFFFFFE0
FF800000
FF800000
FF800000
FF800000
FF800000
FF800000
FF800000
FF800000
FF800000
FF800000
FF800000
FF800000
FFFFFFFE
FFFFFFFE
FFFFFFFE
FFFFFFFE
FFFFFFFE
FFFFFFFE
FFFFFFFE
FFFFFFFE
ENDCHAR
STARTCHAR 0113
ENCODING 275
SWIDTH 570 0
DWIDTH 38 0
BBX 33 46 3 -1
BITMAP
03FFFFE000
03FFFFE000
03FFFFE000
03FFFFE000
0000000000
0000000000
0000000000
0000000000
0000000000
000FF80000
007FFF0000
01FFFFC000
03FFFFE000
07FFFFF000
0FFFFFF800
1FFFFFFC00
3FF80FFC00
3FE003FE00
7FE003FE00
7FC001FF00
7F8001FF00
FF8000FF00
FF8000FF00
FF8000FF00
FFFFFFFF80
FFFFFFFF80
FFFFFFFF80
FFFFFFFF80
FFFFFFFF80
FFFFFFFF80
FF80000000
FF80000000
FF80000000
7F80000000
7FC001FF00
7FC003FF00
3FE007FE00
3FF80FFE00
1FFFFFFC00
1FFFFFFC00
0FFFFFF800
07FFFFF000
01FFFFE000
00FFFF8000
003FFE0000
0000800000
ENDCHAR
STARTCHAR 0116
ENCODING 278
SWIDTH 555 0
DWIDTH 37 0
BBX 31 63 4 0
BITMAP
00078000
001FE000
001FF000
003FF000
003FF000
003FF000
003FF000
001FF000
001FE000
000FC000
00000000
00000000
00000000
00000000
00000000
00000000
FFFFFFFE
FFFFFFFE
FFFFFFFE
FFFFFFFE
FFFFFFFE
FFFFFFFE
FFFFFFFE
FFFFFFFE
FF800000
FF800000
FF800000
FF800000
FF800000
FF800000
FF800000
FF800000
FF800000
FF800000
FF800000
FF800000
FFFFFFE0
FFFFFFE0
FFFFFFE0
FFFFFFE0
FFFFFFE0
FFFFFFE0
FFFFFFE0
FF800000
FF800000
FF800000
FF800000
FF800000
FF800000
FF800000
FF800000
FF800000
FF800000
FF800000
FF800000
FFFFFFFE
FFFFFFFE
FFFFFFFE
FFFFFFFE
FFFFFFFE
FFFFFFFE
FFFFFFFE
FFFFFFFE
ENDCHAR
STARTCHAR 0117
ENCODING 279
SWIDTH 570 0
DWIDTH 38 0
BBX 33 53 3 -1
BITMAP
0000800000
0007F00000
000FF80000
000FF80000
001FFC0000
001FFC0000
001FFC0000
000FF80000
000FF80000
0007F00000
0001C00000
0000000000
0000000000
0000000000
0000000000
0000000000
000FF80000
007FFF0000
01FFFFC000
03FFFFE000
07FFFFF000
0FFFFFF800
1FFFFFFC00
3FF80FFC00
3FE003FE00
7FE003FE00
7FC001FF00
7F8001FF00
FF8000FF00
FF8000FF00
FF8000FF00
FFFFFFFF80
FFFFFFFF80
FFFFFFFF80
FFFFFFFF80
FFFFFFFF80
FFFFFFFF80
FF80000000
FF80000000
FF80000000
7F80000000
7FC001FF00
7FC003FF00
3FE007FE00
3FF80FFE00
1FFFFFFC00
1FFFFFFC00
0FFFFFF800
07FFFFF000
01FFFFE000
00FFFF8000
003FFE0000
0000800000
ENDCHAR
STARTCHAR 0118
ENCODING 280
SWIDTH 555 0
DWIDTH 37 0
BBX 33 59 4 -12
BITMAP
FFFFFFFE00
FFFFFFFE00
FFFFFFFE00
FFFFFFFE00
FFFFFFFE00
FFFFFFFE00
FFFFFFFE00
FFFFFFFE00
FF80000000
FF80000000
FF80000000
FF80000000
FF80000000
FF80000000
FF80000000
FF80000000
FF80000000
FF80000000
FF80000000
FF80000000
FFFFFFE000
FFFFFFE000
FFFFFFE000
FFFFFFE000
FFFFFFE000
FFFFFFE000
FFFFFFE000
FF80000000
FF80000000
FF80000000
FF80000000
FF80000000
FF80000000
FF80000000
FF80000000
FF80000000
FF80000000
FF80000000
FF80000000
FFFFFFFE00
FFFFFFFE00
FFFFFFFE00
FFFFFFFE00
FFFFFFFE00
FFFFFFFE00
FFFFFFFE00
FFFFFFFE00
000001FC00
000003F800
000003F000
000007E000
000007E000
000007F000
000007F800
000003FF80
000003FF80
000001FF80
000000FF80
0000000600
ENDCHAR
STARTCHAR 0119
ENCODING 281
SWIDTH 570 0
DWIDTH 38 0
BBX 33 48 3 -12
BITMAP
000FF80000
007FFF0000
01FFFFC000
03FFFFE000
07FFFFF000
0FFFFFF800
1FFFFFFC00
3FF80FFC00
3FE003FE00
7FE003FE00
7FC001FF00
7F8001FF00
FF8000FF00
FF8000FF00
FF8000FF00
FFFFFFFF80
FFFFFFFF80
FFFFFFFF80
FFFFFFFF80
FFFFFFFF80
FFFFFFFF80
FF80000000
FF80000000
FF80000000
7F80000000
7FC001FF00
7FC003FF00
3FE007FE00
3FF80FFE00
1FFFFFFC00
1FFFFFFC00
0FFFFFF800
07FFFFF000
03FFFFE000
00FFFF8000
003FFE0000
000FE00000
001FC00000
003F800000
003F000000
003F000000
003F000000
003F800000
003FFC0000
001FFC0000
001FFC0000
000FFC0000
0003FC0000
ENDCHAR
STARTCHAR 011A
ENCODING 282
SWIDTH 555 0
DWIDTH 37 0
BBX 31 61 4 0
BITMAP
1FE01FF0
0FF03FC0
07F87F80
03FCFF80
01FFFF00
00FFFE00
00FFFC00
007FF800
003FF000
001FE000
00000000
00000000
00000000
00000000
FFFFFFFE
FFFFFFFE
FFFFFFFE
FFFFFFFE
FFFFFFFE
FFFFFFFE
FFFFFFFE
FFFFFFFE
FF800000
FF800000
FF800000
FF800000
FF800000
FF800000
FF800000
FF800000
FF800000
FF800000
FF800000
FF800000
FFFFFFE0
FFFFFFE0
FFFFFFE0
FFFFFFE0
FFFFFFE0
FFFFFFE0
FFFFFFE0
FF800000
FF800000
FF800000
FF800000
FF800000
FF800000
FF800000
FF800000
FF800000
FF800000
FF800000
FF800000
FFFFFFFE
FFFFFFFE
FFFFFFFE
FFFFFFFE
FFFFFFFE
FFFFFFFE
FFFFFFFE
FFFFFFFE
ENDCHAR
STARTCHAR 011B
ENCODING 283
SWIDTH 570 0
DWIDTH 38 0
BBX 33 51 3 -1
BITMAP
0FF007F800
07F80FF000
03FC1FE000
01FE3FC000
00FF7F8000
007FFF8000
007FFF0000
003FFE0000
001FFC0000
000FF80000
0007F00000
0000000000
0000000000
0000000000
000FF80000
007FFF0000
01FFFFC000
03FFFFE000
07FFFFF000
0FFFFFF800
1FFFFFFC00
3FF80FFC00
3FE003FE00
7FE003FE00
7FC001FF00
7F8001FF00
FF8000FF00
FF8000FF00
FF8000FF00
FFFFFFFF80
FFFFFFFF80
FFFFFFFF80
FFFFFFFF80
FFFFFFFF80
FFFFFFFF80
FF80000000
FF80000000
FF80000000
7F80000000
7FC001FF00
7FC003FF00
3FE007FE00
3FF80FFE00
1FFFFFFC00
1FFFFFFC00
0FFFFFF800
07FFFFF000
01FFFFE000
00FFFF8000
003FFE0000
0000800000
ENDCHAR
STARTCHAR 011E
ENCODING 286
SWIDTH 705 0
DWIDTH 47 0
BBX 41 61 3 -1
BITMAP
007F003F8000
007F807F8000
003FC0FF0000
001FFFFE0000
000FFFFC0000
0007FFF80000
0003FFF00000
0000FFC00000
000000000000
000000000000
000000000000
000000000000
00001E000000
0003FFF00000
000FFFFE0000
003FFFFF0000
00FFFFFFC000
01FFFFFFE000
03FFFFFFF000
07FFFFFFF800
07FFFFFFF800
0FFF003FFC00
1FFE000FFE00
1FFC0007FE00
3FF80003FF00
3FF00003FF00
3FE00001FF80
7FE00001FF80
7FE000000000
7FC000000000
7FC000000000
FFC000000000
FFC000000000
FF8000000000
FF8000000000
FF8003FFFF80
FF8003FFFF80
FF8003FFFF80
FF8003FFFF80
FF8003FFFF80
FF8003FFFF80
FFC00000FF80
FFC00000FF80
7FC00000FF80
7FC00000FF80
7FE00000FF80
7FE00001FF80
3FF00001FF80
3FF00003FF80
1FF80003FF80
1FFC0007FF80
0FFE000FFF80
0FFFC03FFF80
07FFFFFFFF80
03FFFFFFBF80
01FFFFFF3F80
00FFFFFE3F80
007FFFFC3F80
001FFFF83F80
0007FFE03F80
000004000000
ENDCHAR
STARTCHAR 011F
ENCODING 287
SWIDTH 615 0
DWIDTH 41 0
BBX 34 63 3 -15
BITMAP
07F803F800
03FC07F800
01FE1FF000
01FFFFE000
00FFFFC000
003FFF8000
001FFE0000
0003F00000
0000000000
0000000000
0000000000
0000000000
003FC00000
01FFF07FC0
03FFF87FC0
07FFFC7FC0
0FFFFE7FC0
1FFFFF7FC0
3FFFFF7FC0
3FFF3FFFC0
7FF807FFC0
7FF003FFC0
7FE001FFC0
FFE000FFC0
FFC000FFC0
FFC000FFC0
FF80007FC0
FF80007FC0
FF80007FC0
FF80007FC0
FF80007FC0
FF80007FC0
FF80007FC0
FFC000FFC0
FFC000FFC0
FFC000FFC0
FFE001FFC0
7FE001FFC0
7FF003FFC0
3FFC0FFFC0
3FFFFFFFC0
1FFFFF7FC0
1FFFFF7FC0
0FFFFE7FC0
07FFFC7FC0
03FFF87FC0
00FFE07FC0
001F007FC0
0000007FC0
000000FFC0
000000FFC0
000000FF80
000001FF80
000003FF80
00100FFF00
001FFFFF00
001FFFFE00
001FFFFC00
001FFFFC00
001FFFF800
001FFFE000
001FFF8000
0003FC0000
ENDCHAR
STARTCHAR 0120
ENCODING 288
SWIDTH 705 0
DWIDTH 47 0
BBX 41 64 3 -1
BITMAP
00001E000000
00007F800000
00007F800000
0000FFC00000
0000FFC00000
0000FFC00000
0000FFC00000
0000FFC00000
00007F800000
00003F000000
000000000000
000000000000
000000000000
000000000000
000000000000
00001E000000
0003FFF00000
000FFFFE0000
003FFFFF0000
00FFFFFFC000
01FFFFFFE000
03FFFFFFF000
07FFFFFFF800
07FFFFFFF800
0FFF003FFC00
1FFE000FFE00
1FFC0007FE00
3FF80003FF00
3FF00003FF00
3FE00001FF80
7FE00001FF80
7FE000000000
7FC000000000
7FC000000000
FFC000000000
FFC000000000
FF8000000000
FF8000000000
FF8003FFFF80
FF8003FFFF80
FF8003FFFF80
FF8003FFFF80
FF8003FFFF80
FF8003FFFF80
FFC00000FF80
FFC00000FF80
7FC00000FF80
7FC00000FF80
7FE00000FF80
7FE00001FF80
3FF00001FF80
3FF00003FF80
1FF80003FF80
1FFC0007FF80
0FFE000FFF80
0FFFC03FFF80
07FFFFFFFF80
03FFFFFFBF80
01FFFFFF3F80
00FFFFFE3F80
007FFFFC3F80
001FFFF83F80
0007FFE03F80
000004000000
ENDCHAR
STARTCHAR 0121
ENCODING 289
SWIDTH 615 0
DWIDTH 41 0
BBX 34 66 3 -14
BITMAP
0003F00000
0007F80000
0007FC0000
000FFC0000
000FFC0000
000FFC0000
000FFC0000
0007FC0000
0003F80000
0000E00000
0000000000
0000000000
0000000000
0000000000
0000000000
003FC00000
01FFF07FC0
03FFF87FC0
07FFFC7FC0
0FFFFE7FC0
1FFFFF7FC0
3FFFFF7FC0
3FFF3FFFC0
7FF807FFC0
7FF003FFC0
7FE001FFC0
FFE000FFC0
FFC000FFC0
FFC000FFC0
FF80007FC0
FF80007FC0
FF80007FC0
FF80007FC0
FF80007FC0
FF80007FC0
FF80007FC0
FFC000FFC0
FFC000FFC0
FFC000FFC0
FFE001FFC0
7FE001FFC0
7FF003FFC0
3FFC0FFFC0
3FFFFFFFC0
1FFFFF7FC0
1FFFFF7FC0
0FFFFE7FC0
07FFFC7FC0
03FFF87FC0
00FFE07FC0
001F007FC0
0000007FC0
000000FFC0
000000FFC0
000000FF80
000001FF80
000003FF80
00100FFF00
001FFFFF00
001FFFFE00
001FFFFC00
001FFFFC00
001FFFF800
001FFFE000
001FFF8000
0003FC0000
ENDCHAR
STARTCHAR 0126
ENCODING 294
SWIDTH 690 0
DWIDTH 46 0
BBX 44 47 1 0
BITMAP
1FF80000FF80
1FF80000FF80
1FF80000FF80
1FF80000FF80
1FF80000FF80
1FF80000FF80
FFFFFFFFFFF0
FFFFFFFFFFF0
FFFFFFFFFFF0
FFFFFFFFFFF0
FFFFFFFFFFF0
FFFFFFFFFFF0
FFFFFFFFFFF0
FFFFFFFFFFF0
1FF80000FF80
1FF80000FF80
1FF80000FF80
1FF80000FF80
1FF80000FF80
1FF80000FF80
1FFFFFFFFF80
1FFFFFFFFF80
1FFFFFFFFF80
1FFFFFFFFF80
1FFFFFFFFF80
1FFFFFFFFF80
1FFFFFFFFF80
1FF80000FF80
1FF80000FF80
1FF80000FF80
1FF80000FF80
1FF80000FF80
1FF80000FF80
1FF80000FF80
1FF80000FF80
1FF80000FF80
1FF80000FF80
1FF80000FF80
1FF80000FF80
1FF80000FF80
1FF80000FF80
1FF80000FF80
1FF80000FF80
1FF80000FF80
1FF80000FF80
1FF80000FF80
1FF80000FF80
ENDCHAR
STARTCHAR 0127
ENCODING 295
SWIDTH 600 0
DWIDTH 40 0
BBX 37 50 1 0
BITMAP
0FF8000000
0FF8000000
0FF8000000
0FF8000000
0FF8000000
FFFFF80000
FFFFF80000
FFFFF80000
FFFFF80000
FFFFF80000
FFFFF80000
0FF8000000
0FF8000000
0FF8000000
0FF807F800
0FF83FFF00
0FF87FFF80
0FF8FFFFC0
0FF9FFFFC0
0FFBFFFFE0
0FFBFFFFE0
0FFFFFFFF0
0FFF807FF0
0FFF003FF0
0FFE003FF0
0FFC001FF0
0FFC001FF8
0FFC001FF8
0FF8001FF8
0FF8001FF8
0FF8001FF8
0FF8001FF8
0FF8001FF8
0FF8001FF8
0FF8001FF8
0FF8001FF8
0FF8001FF8
0FF8001FF8
0FF8001FF8
0FF8001FF8
0FF8001FF8
0FF8001FF8
0FF8001FF8
0FF8001FF8
0FF8001FF8
0FF8001FF8
0FF8001FF8
0FF8001FF8
0FF8001FF8
0FF8001FF8
ENDCHAR
STARTCHAR 0128
ENCODING 296
SWIDTH 255 0
DWIDTH 17 0
BBX 22 61 -2 0
BITMAP
0FC07C
3FF07C
7FFEF8
7FFFF8
7FFFF8
FFFFF8
F87FF0
F81FE0
F80000
000000
000000
000000
000000
000000
03FF00
03FF00
03FF00
03FF00
03FF00
03FF00
03FF00
03FF00
03FF00
03FF00
03FF00
03FF00
03FF00
03FF00
03FF00
03FF00
03FF00
03FF00
03FF00
03FF00
03FF00
03FF00
03FF00
03FF00
03FF00
03FF00
03FF00
03FF00
03FF00
03FF00
03FF00
03FF00
03FF00
03FF00
03FF00
03FF00
03FF00
03FF00
03FF00
03FF00
03FF00
03FF00
03FF00
03FF00
03FF00
03FF00
03FF00
ENDCHAR
STARTCHAR 0129
ENCODING 297
SWIDTH 270 0
DWIDTH 18 0
BBX 21 50 -1 0
BITMAP
0F00F8
3FE0F8
7FF8F8
7FFFF8
FFFFF8
FFFFF0
F8FFF0
F83FE0
F80F80
000000
000000
000000
000000
000000
000000
03FE00
03FE00
03FE00
03FE00
03FE00
03FE00
03FE00
03FE00
03FE00
03FE00
03FE00
03FE00
03FE00
03FE00
03FE00
03FE00
03FE00
03FE00
03FE00
03FE00
03FE00
03FE00
03FE00
03FE00
03FE00
03FE00
03FE00
03FE00
03FE00
03FE00
03FE00
03FE00
03FE00
03FE00
03FE00
ENDCHAR
STARTCHAR 012A
ENCODING 298
SWIDTH 255 0
DWIDTH 17 0
BBX 22 57 -2 0
BITMAP
FFFFFC
FFFFFC
FFFFFC
FFFFFC
000000
000000
000000
000000
000000
000000
03FF00
03FF00
03FF00
03FF00
03FF00
03FF00
03FF00
03FF00
03FF00
03FF00
03FF00
03FF00
03FF00
03FF00
03FF00
03FF00
03FF00
03FF00
03FF00
03FF00
03FF00
03FF00
03FF00
03FF00
03FF00
03FF00
03FF00
03FF00
03FF00
03FF00
03FF00
03FF00
03FF00
03FF00
03FF00
03FF00
03FF00
03FF00
03FF00
03FF00
03FF00
03FF00
03FF00
03FF00
03FF00
03FF00
03FF00
ENDCHAR
STARTCHAR 012B
ENCODING 299
SWIDTH 270 0
DWIDTH 18 0
BBX 21 45 -1 0
BITMAP
FFFFF8
FFFFF8
FFFFF8
FFFFF8
000000
000000
000000
000000
000000
000000
03FE00
03FE00
03FE00
03FE00
03FE00
03FE00
03FE00
03FE00
03FE00
03FE00
03FE00
03FE00
03FE00
03FE00
03FE00
03FE00
03FE00
03FE00
03FE00
03FE00
03FE00
03FE00
03FE00
03FE00
03FE00
03FE00
03FE00
03FE00
03FE00
03FE00
03FE00
03FE00
03FE00
03FE00
03FE00
ENDCHAR
STARTCHAR 012E
ENCODING 302
SWIDTH 255 0
DWIDTH 17 0
BBX 12 59 4 -12
BITMAP
FFC0
FFC0
FFC0
FFC0
FFC0
FFC0
FFC0
FFC0
FFC0
FFC0
FFC0
FFC0
FFC0
FFC0
FFC0
FFC0
FFC0
FFC0
FFC0
FFC0
FFC0
FFC0
FFC0
FFC0
FFC0
FFC0
FFC0
FFC0
FFC0
FFC0
FFC0
FFC0
FFC0
FFC0
FFC0
FFC0
FFC0
FFC0
FFC0
FFC0
FFC0
FFC0
FFC0
FFC0
FFC0
FFC0
FFC0
3F80
7E00
7E00
FC00
FC00
FE00
FF10
7FF0
7FF0
3FF0
1FF0
00C0
ENDCHAR
STARTCHAR 012F
ENCODING 303
SWIDTH 270 0
DWIDTH 18 0
BBX 12 64 4 -12
BITMAP
0400
3F80
7FC0
7FC0
FFC0
FFE0
FFC0
7FC0
7FC0
3F80
0E00
0000
0000
0000
0000
0000
0000
7FC0
7FC0
7FC0
7FC0
7FC0
7FC0
7FC0
7FC0
7FC0
7FC0
7FC0
7FC0
7FC0
7FC0
7FC0
7FC0
7FC0
7FC0
7FC0
7FC0
7FC0
7FC0
7FC0
7FC0
7FC0
7FC0
7FC0
7FC0
7FC0
7FC0
7FC0
7FC0
7FC0
7FC0
7FC0
3F80
7F00
7E00
7E00
7E00
7E00
7F00
7FF0
3FF0
3FF0
0FF0
00E0
ENDCHAR
STARTCHAR 0130
ENCODING 304
SWIDTH 255 0
DWIDTH 17 0
BBX 10 63 4 0
BITMAP
1E00
7F80
FF80
FFC0
FFC0
FFC0
FFC0
FF80
7F80
3F00
0000
0000
0000
0000
0000
0000
FFC0
FFC0
FFC0
FFC0
FFC0
FFC0
FFC0
FFC0
FFC0
FFC0
FFC0
FFC0
FFC0
FFC0
FFC0
FFC0
FFC0
FFC0
FFC0
FFC0
FFC0
FFC0
FFC0
FFC0
FFC0
FFC0
FFC0
FFC0
FFC0
FFC0
FFC0
FFC0
FFC0
FFC0
FFC0
FFC0
FFC0
FFC0
FFC0
FFC0
FFC0
FFC0
FFC0
FFC0
FFC0
FFC0
FFC0
ENDCHAR
STARTCHAR 0131
ENCODING 305
SWIDTH 270 0
DWIDTH 18 0
BBX 9 35 5 0
BITMAP
FF80
FF80
FF80
FF80
FF80
FF80
FF80
FF80
FF80
FF80
FF80
FF80
FF80
FF80
FF80
FF80
FF80
FF80
FF80
FF80
FF80
FF80
FF80
FF80
FF80
FF80
FF80
FF80
FF80
FF80
FF80
FF80
FF80
FF80
FF80
ENDCHAR
STARTCHAR 0139
ENCODING 313
SWIDTH 525 0
DWIDTH 35 0
BBX 29 65 4 0
BITMAP
01FF8000
01FF0000
03FE0000
03FE0000
07FC0000
07F80000
0FF80000
0FF00000
1FE00000
1FE00000
3FC00000
3F800000
7F800000
00000000
00000000
00000000
00000000
00000000
FF800000
FF800000
FF800000
FF800000
FF800000
FF800000
FF800000
FF800000
FF800000
FF800000
FF800000
FF800000
FF800000
FF800000
FF800000
FF800000
FF800000
FF800000
FF800000
FF800000
FF800000
FF800000
FF800000
FF800000
FF800000
FF800000
FF800000
FF800000
FF800000
FF800000
FF800000
FF800000
FF800000
FF800000
FF800000
FF800000
FF800000
FF800000
FF800000
FFFFFFF8
FFFFFFF8
FFFFFFF8
FFFFFFF8
FFFFFFF8
FFFFFFF8
FFFFFFF8
FFFFFFF8
ENDCHAR
STARTCHAR 013A
ENCODING 314
SWIDTH 330 0
DWIDTH 22 0
BBX 17 68 4 0
BITMAP
00FF80
01FF00
01FF00
03FE00
03FE00
07FC00
07F800
0FF800
0FF000
1FE000
1FE000
3FC000
3F8000
1F8000
000000
000000
000000
000000
FF8000
FF8000
FF8000
FF8000
FF8000
FF8000
FF8000
FF8000
FF8000
FF8000
FF8000
FF8000
FF8000
FF8000
FF8000
FF8000
FF8000
FF8000
FF8000
FF8000
FF8000
FF8000
FF8000
FF8000
FF8000
FF8000
FF8000
FF8000
FF8000
FF8000
FF8000
FF8000
FF8000
FF8000
FF8000
FF8000
FF8000
FF8000
FF8000
FFC000
FFC000
FFC000
FFE000
7FF800
7FFF00
7FFF00
7FFF00
3FFF00
1FFF00
07FF00
ENDCHAR
STARTCHAR 013D
ENCODING 317
SWIDTH 525 0
DWIDTH 35 0
BBX 37 61 -4 0
BITMAP
FF80FF8000
7FC1FF0000
3FC3FE0000
1FE7FC0000
0FFFF80000
07FFF00000
03FFE00000
01FFC00000
00FF800000
00FF000000
0000000000
0000000000
0000000000
0000000000
00FF800000
00FF800000
00FF800000
00FF800000
00FF800000
00FF800000
00FF800000
00FF800000
00FF800000
00FF800000
00FF800000
00FF800000
00FF800000
00FF800000
00FF800000
00FF800000
00FF800000
00FF800000
00FF800000
00FF800000
00FF800000
00FF800000
00FF800000
00FF800000
00FF800000
00FF800000
00FF800000
00FF800000
00FF800000
00FF800000
00FF800000
00FF800000
00FF800000
00FF800000
00FF800000
00FF800000
00FF800000
00FF800000
00FF800000
00FFFFFFF8
00FFFFFFF8
00FFFFFFF8
00FFFFFFF8
00FFFFFFF8
00FFFFFFF8
00FFFFFFF8
00FFFFFFF8
ENDCHAR
STARTCHAR 013E
ENCODING 318
SWIDTH 420 0
DWIDTH 28 0
BBX 24 54 4 0
BITMAP
0001F8
0007FC
0007FE
000FFE
FF8FFF
FF8FFF
FF8FFF
FF87FF
FF87FF
FF807F
FF801F
FF801F
FF801E
FF801E
FF801E
FF803C
FF807C
FF81F8
FF81F0
FF81C0
FF8100
FF8000
FF8000
FF8000
FF8000
FF8000
FF8000
FF8000
FF8000
FF8000
FF8000
FF8000
FF8000
FF8000
FF8000
FF8000
FF8000
FF8000
FF8000
FF8000
FF8000
FF8000
FF8000
FFC000
FFC000
FFC000
FFE000
7FF800
7FFF00
7FFF00
7FFF00
3FFF00
1FFF00
07FF00
ENDCHAR
STARTCHAR 0143
ENCODING 323
SWIDTH 690 0
DWIDTH 46 0
BBX 39 65 4 0
BITMAP
000003FF00
000003FE00
000007FC00
000007FC00
00000FF800
00000FF000
00001FF000
00001FE000
00003FC000
00003FC000
00007F8000
00007F0000
0000FF0000
0000000000
0000000000
0000000000
0000000000
0000000000
FFE00003FE
FFE00003FE
FFF00003FE
FFF00003FE
FFF80003FE
FFFC0003FE
FFFC0003FE
FFFE0003FE
FFFE0003FE
FFFF0003FE
FFFF8003FE
FFFF8003FE
FFFFC003FE
FFFFC003FE
FFFFE003FE
FFFFE003FE
FFBFF003FE
FFBFF803FE
FF9FF803FE
FF8FFC03FE
FF8FFC03FE
FF87FE03FE
FF87FF03FE
FF83FF03FE
FF81FF83FE
FF81FF83FE
FF80FFC3FE
FF80FFE3FE
FF807FE3FE
FF803FF3FE
FF803FF3FE
FF801FFBFE
FF801FFBFE
FF800FFFFE
FF8007FFFE
FF8007FFFE
FF8003FFFE
FF8003FFFE
FF8001FFFE
FF8000FFFE
FF8000FFFE
FF80007FFE
FF80007FFE
FF80003FFE
FF80001FFE
FF80001FFE
FF80000FFE
ENDCHAR
STARTCHAR 0144
ENCODING 324
SWIDTH 600 0
DWIDTH 40 0
BBX 32 53 4 0
BITMAP
00001FF0
00003FE0
00003FE0
00007FC0
00007F80
0000FF80
0000FF00
0001FE00
0001FE00
0003FC00
0003F800
0007F800
0007F000
00000000
00000000
00000000
00000000
0000FF00
FF83FFE0
FF8FFFF0
FF9FFFF8
FF9FFFFC
FFBFFFFC
FFFFFFFE
FFFFFFFE
FFF80FFF
FFE007FF
FFE003FF
FFC003FF
FFC001FF
FF8001FF
FF8001FF
FF8001FF
FF8001FF
FF8001FF
FF8001FF
FF8001FF
FF8001FF
FF8001FF
FF8001FF
FF8001FF
FF8001FF
FF8001FF
FF8001FF
FF8001FF
FF8001FF
FF8001FF
FF8001FF
FF8001FF
FF8001FF
FF8001FF
FF8001FF
FF8001FF
ENDCHAR
STARTCHAR 0147
ENCODING 327
SWIDTH 690 0
DWIDTH 46 0
BBX 39 61 4 0
BITMAP
01FF01FF00
00FF83FE00
007F87FC00
003FCFF800
001FFFF000
000FFFE000
0007FFC000
0003FF8000
0001FF0000
0001FE0000
0000000000
0000000000
0000000000
0000000000
FFE00003FE
FFE00003FE
FFF00003FE
FFF00003FE
FFF80003FE
FFFC0003FE
FFFC0003FE
FFFE0003FE
FFFE0003FE
FFFF0003FE
FFFF8003FE
FFFF8003FE
FFFFC003FE
FFFFC003FE
FFFFE003FE
FFFFE003FE
FFBFF003FE
FFBFF803FE
FF9FF803FE
FF8FFC03FE
FF8FFC03FE
FF87FE03FE
FF87FF03FE
FF83FF03FE
FF81FF83FE
FF81FF83FE
FF80FFC3FE
FF80FFE3FE
FF807FE3FE
FF803FF3FE
FF803FF3FE
FF801FFBFE
FF801FFBFE
FF800FFFFE
FF8007FFFE
FF8007FFFE
FF8003FFFE
FF8003FFFE
FF8001FFFE
FF8000FFFE
FF8000FFFE
FF80007FFE
FF80007FFE
FF80003FFE
FF80001FFE
FF80001FFE
FF80000FFE
ENDCHAR
STARTCHAR 0148
ENCODING 328
SWIDTH 600 0
DWIDTH 40 0
BBX 32 50 4 0
BITMAP
0FF00FF8
0FF81FF0
07FC3FE0
03FE7FC0
01FE7F80
00FFFF00
007FFE00
003FFC00
001FF800
000FF000
0007F000
00000000
00000000
00000000
0000FF00
FF83FFE0
FF8FFFF0
FF9FFFF8
FF9FFFFC
FFBFFFFC
FFFFFFFE
FFFFFFFE
FFF80FFF
FFE007FF
FFE003FF
FFC003FF
FFC001FF
FF8001FF
FF8001FF
FF8001FF
FF8001FF
FF8001FF
FF8001FF
FF8001FF
FF8001FF
FF8001FF
FF8001FF
FF8001FF
FF8001FF
FF8001FF
FF8001FF
FF8001FF
FF8001FF
FF8001FF
FF8001FF
FF8001FF
FF8001FF
FF8001FF
FF8001FF
FF8001FF
ENDCHAR
STARTCHAR 014C
ENCODING 332
SWIDTH 720 0
DWIDTH 48 0
BBX 42 58 3 -1
BITMAP
003FFFFF0000
003FFFFF0000
003FFFFF0000
003FFFFF0000
000000000000
000000000000
000000000000
000000000000
000000000000
00001F000000
0003FFF00000
000FFFFE0000
003FFFFF8000
00FFFFFFC000
01FFFFFFE000
03FFFFFFF000
07FFFFFFF800
0FFFFFFFFC00
0FFF807FFC00
1FFE001FFE00
1FFC000FFF00
3FF80007FF00
3FF00003FF00
7FF00003FF80
7FE00001FF80
7FE00001FF80
FFE00000FFC0
FFC00000FFC0
FFC00000FFC0
FFC00000FFC0
FFC00000FFC0
FFC000007FC0
FFC000007FC0
FFC000007FC0
FFC000007FC0
FFC000007FC0
FFC00000FFC0
FFC00000FFC0
FFC00000FFC0
FFC00000FFC0
FFC00000FFC0
7FE00001FFC0
7FE00001FF80
7FF00003FF80
3FF00003FF80
3FF80007FF00
3FFC000FFF00
1FFE001FFE00
0FFF807FFE00
0FFFFFFFFC00
07FFFFFFF800
03FFFFFFF000
01FFFFFFE000
00FFFFFFC000
003FFFFF8000
001FFFFE0000
0003FFF00000
000016000000
ENDCHAR
STARTCHAR 014D
ENCODING 333
SWIDTH 585 0
DWIDTH 39 0
BBX 33 46 3 -1
BITMAP
03FFFFE000
03FFFFE000
03FFFFE000
03FFFFE000
0000000000
0000000000
0000000000
0000000000
0000000000
000FF80000
007FFF0000
01FFFFC000
03FFFFE000
07FFFFF000
0FFFFFF800
1FFFFFFC00
3FFF7FFE00
3FF80FFE00
7FE003FF00
7FE003FF00
7FC001FF00
FFC001FF80
FF8000FF80
FF8000FF80
FF8000FF80
FF8000FF80
FF8000FF80
FF8000FF80
FF8000FF80
FF8000FF80
FF8000FF80
FF8000FF80
FFC000FF80
7FC001FF80
7FC001FF00
7FE003FF00
3FF007FE00
3FFC1FFE00
1FFFFFFC00
1FFFFFFC00
0FFFFFF800
07FFFFF000
03FFFFE000
00FFFF8000
003FFE0000
0000800000
ENDCHAR
STARTCHAR 0152
ENCODING 338
SWIDTH 960 0
DWIDTH 64 0
BBX 60 47 2 0
BITMAP
00001FFFFFFFFFF0
0003FFFFFFFFFFF0
000FFFFFFFFFFFF0
003FFFFFFFFFFFF0
007FFFFFFFFFFFF0
00FFFFFFFFFFFFF0
01FFFFFFFFFFFFF0
03FFFFFFFFFFFFF0
07FFFC07FC000000
0FFF8007FC000000
0FFE0007FC000000
1FFC0007FC000000
1FFC0007FC000000
3FF80007FC000000
3FF00007FC000000
3FF00007FC000000
7FE00007FC000000
7FE00007FC000000
7FE00007FC000000
7FE00007FC000000
7FC00007FFFFFF00
7FC00007FFFFFF00
FFC00007FFFFFF00
FFC00007FFFFFF00
FFC00007FFFFFF00
7FC00007FFFFFF00
7FC00007FFFFFF00
7FE00007FC000000
7FE00007FC000000
7FE00007FC000000
7FE00007FC000000
7FF00007FC000000
3FF00007FC000000
3FF80007FC000000
3FF80007FC000000
1FFC0007FC000000
1FFE0007FC000000
0FFF8007FC000000
07FFF007FC000000
07FFFFFFFFFFFFF0
03FFFFFFFFFFFFF0
01FFFFFFFFFFFFF0
00FFFFFFFFFFFFF0
007FFFFFFFFFFFF0
001FFFFFFFFFFFF0
0007FFFFFFFFFFF0
00007FFFFFFFFFF0
ENDCHAR
STARTCHAR 0153
ENCODING 339
SWIDTH 945 0
DWIDTH 63 0
BBX 57 37 3 -1
BITMAP
0007F00007FC0000
007FFE003FFF8000
01FFFF807FFFC000
03FFFFC0FFFFF000
07FFFFE1FFFFF800
0FFFFFF3FFFFFC00
1FFFFFFFFFFFFC00
3FFFFFFFFC07FE00
3FF80FFFF003FE00
7FE007FFE001FF00
7FE003FFE000FF00
7FC001FFC000FF80
FFC001FFC000FF80
FF8001FFC0007F80
FF8000FFC0007F80
FF8000FFFFFFFF80
FF8000FFFFFFFF80
FF8000FFFFFFFF80
FF8000FFFFFFFF80
FF8000FFFFFFFF80
FF8000FFFFFFFF80
FF8000FFC0000000
FF8000FFC0000000
FF8001FFC0000000
FFC001FFC0000000
7FC003FFE000FF80
7FE003FFF001FF00
3FF007FFF803FF00
3FF81FFFFC07FE00
1FFFFFFFFFFFFE00
1FFFFFF7FFFFFC00
0FFFFFF3FFFFF800
07FFFFE1FFFFF000
03FFFFC0FFFFE000
00FFFF007FFFC000
003FFE001FFE0000
0007C00000600000
ENDCHAR
STARTCHAR 0154
ENCODING 340
SWIDTH 600 0
DWIDTH 40 0
BBX 34 65 4 0
BITMAP
00003FF000
00003FE000
00007FC000
00007FC000
0000FF8000
0000FF0000
0001FF0000
0001FE0000
0003FC0000
0003FC0000
0007F80000
0007F00000
000FF00000
0000000000
0000000000
0000000000
0000000000
0000000000
FFFFF00000
FFFFFF0000
FFFFFFE000
FFFFFFF000
FFFFFFF800
FFFFFFFC00
FFFFFFFE00
FFFFFFFF00
FF807FFF00
FF8007FF80
FF8001FF80
FF8000FF80
FF8000FFC0
FF80007FC0
FF80007FC0
FF80007FC0
FF80007FC0
FF80007FC0
FF8000FFC0
FF8000FF80
FF8001FF80
FF8007FF80
FF80FFFF00
FFFFFFFF00
FFFFFFFE00
FFFFFFFC00
FFFFFFF800
FFFFFFE000
FFFFFFC000
FFFFFF8000
FF81FF8000
FF80FFC000
FF807FC000
FF807FE000
FF803FE000
FF803FF000
FF801FF800
FF801FF800
FF800FFC00
FF8007FC00
FF8007FE00
FF8003FF00
FF8003FF00
FF8001FF80
FF8000FF80
FF8000FFC0
FF80007FC0
ENDCHAR
STARTCHAR 0155
ENCODING 341
SWIDTH 375 0
DWIDTH 25 0
BBX 22 53 4 0
BITMAP
0007FC
000FF8
000FF8
001FF0
001FE0
003FE0
003FC0
007F80
007F80
00FF00
00FE00
01FE00
01FC00
000000
000000
000000
000000
000000
FF81F8
FF87F8
FF8FF8
FF9FF8
FFBFF8
FFFFF8
FFFFF8
FFFFF8
FFFC00
FFF000
FFE000
FFC000
FFC000
FFC000
FF8000
FF8000
FF8000
FF8000
FF8000
FF8000
FF8000
FF8000
FF8000
FF8000
FF8000
FF8000
FF8000
FF8000
FF8000
FF8000
FF8000
FF8000
FF8000
FF8000
FF8000
ENDCHAR
STARTCHAR 0158
ENCODING 344
SWIDTH 600 0
DWIDTH 40 0
BBX 34 61 4 0
BITMAP
1FF01FF000
0FF83FE000
07FC7FC000
03FCFF8000
01FFFF0000
00FFFE0000
007FFC0000
003FF80000
001FF00000
001FE00000
0000000000
0000000000
0000000000
0000000000
FFFFF00000
FFFFFF0000
FFFFFFE000
FFFFFFF000
FFFFFFF800
FFFFFFFC00
FFFFFFFE00
FFFFFFFF00
FF807FFF00
FF8007FF80
FF8001FF80
FF8000FF80
FF8000FFC0
FF80007FC0
FF80007FC0
FF80007FC0
FF80007FC0
FF80007FC0
FF8000FFC0
FF8000FF80
FF8001FF80
FF8007FF80
FF80FFFF00
FFFFFFFF00
FFFFFFFE00
FFFFFFFC00
FFFFFFF800
FFFFFFE000
FFFFFFC000
FFFFFF8000
FF81FF8000
FF80FFC000
FF807FC000
FF807FE000
FF803FE000
FF803FF000
FF801FF800
FF801FF800
FF800FFC00
FF8007FC00
FF8007FE00
FF8003FF00
FF8003FF00
FF8001FF80
FF8000FF80
FF8000FFC0
FF80007FC0
ENDCHAR
STARTCHAR 0159
ENCODING 345
SWIDTH 375 0
DWIDTH 25 0
BBX 25 50 1 0
BITMAP
FF807F80
7FC0FF80
3FE1FF00
1FF3FE00
0FF7FC00
07FFF800
03FFF000
01FFE000
00FFC000
007F8000
007F0000
00000000
00000000
00000000
00000000
1FF03F00
1FF0FF00
1FF1FF00
1FF3FF00
1FF7FF00
1FFFFF00
1FFFFF00
1FFFFF00
1FFF8000
1FFE0000
1FFC0000
1FF80000
1FF80000
1FF80000
1FF00000
1FF00000
1FF00000
1FF00000
1FF00000
1FF00000
1FF00000
1FF00000
1FF00000
1FF00000
1FF00000
1FF00000
1FF00000
1FF00000
1FF00000
1FF00000
1FF00000
1FF00000
1FF00000
1FF00000
1FF00000
ENDCHAR
STARTCHAR 015A
ENCODING 346
SWIDTH 600 0
DWIDTH 40 0
BBX 35 66 3 -1
BITMAP
000003FF00
000003FE00
000007FC00
000007FC00
00000FF800
00000FF000
00001FF000
00001FE000
00003FC000
00003FC000
00007F8000
00007F0000
0000FF0000
0000000000
0000000000
0000000000
0000000000
0000E00000
003FFF0000
00FFFFC000
03FFFFF000
07FFFFF800
0FFFFFFC00
1FFFFFFE00
1FFFFFFF00
3FFE1FFF80
3FF007FF80
7FE003FF80
7FE001FFC0
7FC000FFC0
7FC000FFC0
7FC000FFC0
7FE0000000
7FE0000000
7FF0000000
3FF8000000
3FFF000000
3FFFF00000
1FFFFF0000
0FFFFFE000
07FFFFF800
03FFFFFC00
00FFFFFE00
003FFFFF00
0003FFFF80
00001FFFC0
000003FFC0
000001FFC0
000000FFE0
0000007FE0
FFC0007FE0
FFC0007FE0
FFC0007FE0
FFE0007FE0
7FE000FFC0
7FF001FFC0
7FFC03FFC0
3FFFFFFF80
3FFFFFFF80
1FFFFFFF00
0FFFFFFE00
07FFFFFC00
01FFFFF800
00FFFFE000
001FFF8000
0000E00000
ENDCHAR
STARTCHAR 015B
ENCODING 347
SWIDTH 480 0
DWIDTH 32 0
BBX 28 55 3 -1
BITMAP
00007FC0
0000FF80
0000FF00
0001FF00
0001FE00
0003FE00
0003FC00
0007F800
0007F800
000FF000
000FE000
001FE000
001FC000
00000000
00000000
00000000
00000000
00000000
007FC000
03FFF800
0FFFFE00
1FFFFF00
3FFFFF80
3FFFFF80
7FFFFFC0
7FC0FFC0
7F807FE0
FF803FE0
FF803FE0
FF800000
7F800000
7FE00000
7FFC0000
3FFFE000
3FFFFC00
1FFFFE00
07FFFF80
03FFFFC0
007FFFC0
0007FFE0
00007FE0
00003FF0
FF801FF0
FF801FF0
FF801FF0
FFC03FE0
FFE07FE0
7FFFFFE0
7FFFFFC0
3FFFFFC0
1FFFFF80
0FFFFF00
07FFFC00
00FFF000
00080000
ENDCHAR
STARTCHAR 015E
ENCODING 350
SWIDTH 600 0
DWIDTH 40 0
BBX 35 65 3 -17
BITMAP
0000E00000
003FFF0000
00FFFFC000
03FFFFF000
07FFFFF800
0FFFFFFC00
1FFFFFFE00
1FFFFFFF00
3FFE1FFF80
3FF007FF80
7FE003FF80
7FE001FFC0
7FC000FFC0
7FC000FFC0
7FC000FFC0
7FE0000000
7FE0000000
7FF0000000
3FF8000000
3FFF000000
3FFFF00000
1FFFFF0000
0FFFFFE000
07FFFFF800
03FFFFFC00
00FFFFFE00
003FFFFF00
0003FFFF80
00001FFFC0
000003FFC0
000001FFC0
000000FFE0
0000007FE0
FFC0007FE0
FFC0007FE0
FFC0007FE0
FFE0007FE0
7FE000FFC0
7FF001FFC0
7FFC03FFC0
3FFFFFFF80
3FFFFFFF80
1FFFFFFF00
0FFFFFFE00
07FFFFFC00
01FFFFF800
00FFFFE000
003FFF8000
0001F00000
0001E00000
0003E00000
0003FE0000
0003FF8000
0003FF8000
0007FFC000
000007C000
000003C000
000003E000
000003C000
00030FC000
0003FFC000
0003FF8000
0003FF0000
0003FE0000
0000700000
ENDCHAR
STARTCHAR 015F
ENCODING 351
SWIDTH 480 0
DWIDTH 32 0
BBX 28 53 3 -17
BITMAP
007FC000
03FFF800
0FFFFE00
1FFFFF00
3FFFFF80
3FFFFF80
7FFFFFC0
7FC0FFC0
7F807FE0
FF803FE0
FF803FE0
FF800000
7F800000
7FE00000
7FFC0000
3FFFE000
3FFFFC00
1FFFFE00
07FFFF80
03FFFFC0
007FFFC0
0007FFE0
00007FE0
00003FF0
FF801FF0
FF801FF0
FF801FF0
FFC03FE0
FFE07FE0
7FFFFFE0
7FFFFFC0
3FFFFFC0
1FFFFF80
0FFFFF00
07FFFC00
01FFF000
000F8000
000F0000
001F0000
001FF000
001FFC00
001FFE00
003FFE00
00001E00
00001F00
00001F00
00001F00
00187E00
001FFE00
001FFC00
001FF800
001FF000
00010000
ENDCHAR
STARTCHAR 0160
ENCODING 352
SWIDTH 600 0
DWIDTH 40 0
BBX 35 62 3 -1
BITMAP
01FF01FF00
00FF03FE00
007F87FC00
003FCFF800
001FFFF000
000FFFE000
0007FFC000
0007FF8000
0003FF0000
0001FE0000
0000000000
0000000000
0000000000
0000E00000
003FFF0000
00FFFFC000
03FFFFF000
07FFFFF800
0FFFFFFC00
1FFFFFFE00
1FFFFFFF00
3FFE1FFF80
3FF007FF80
7FE003FF80
7FE001FFC0
7FC000FFC0
7FC000FFC0
7FC000FFC0
7FE0000000
7FE0000000
7FF0000000
3FF8000000
3FFF000000
3FFFF00000
1FFFFF0000
0FFFFFE000
07FFFFF800
03FFFFFC00
00FFFFFE00
003FFFFF00
0003FFFF80
00001FFFC0
000003FFC0
000001FFC0
000000FFE0
0000007FE0
FFC0007FE0
FFC0007FE0
FFC0007FE0
FFE0007FE0
7FE000FFC0
7FF001FFC0
7FFC03FFC0
3FFFFFFF80
3FFFFFFF80
1FFFFFFF00
0FFFFFFE00
07FFFFFC00
01FFFFF800
00FFFFE000
001FFF8000
0000E00000
ENDCHAR
STARTCHAR 0161
ENCODING 353
SWIDTH 480 0
DWIDTH 32 0
BBX 28 52 3 -1
BITMAP
7FC03FE0
3FE07FC0
1FE0FF80
0FF1FF00
07F9FE00
03FFFC00
01FFF800
00FFF000
007FE000
007FC000
003FC000
00000000
00000000
00000000
00000000
007FC000
03FFF800
0FFFFE00
1FFFFF00
3FFFFF80
3FFFFF80
7FFFFFC0
7FC0FFC0
7F807FE0
FF803FE0
FF803FE0
FF800000
7F800000
7FE00000
7FFC0000
3FFFE000
3FFFFC00
1FFFFE00
07FFFF80
03FFFFC0
007FFFC0
0007FFE0
00007FE0
00003FF0
FF801FF0
FF801FF0
FF801FF0
FFC03FE0
FFE07FE0
7FFFFFE0
7FFFFFC0
3FFFFFC0
1FFFFF80
0FFFFF00
07FFFC00
00FFF000
00080000
ENDCHAR
STARTCHAR 0162
ENCODING 354
SWIDTH 585 0
DWIDTH 39 0
BBX 35 64 2 -17
BITMAP
FFFFFFFFE0
FFFFFFFFE0
FFFFFFFFE0
FFFFFFFFE0
FFFFFFFFE0
FFFFFFFFE0
FFFFFFFFE0
FFFFFFFFE0
0007FC0000
0007FC0000
0007FC0000
0007FC0000
0007FC0000
0007FC0000
0007FC0000
0007FC0000
0007FC0000
0007FC0000
0007FC0000
0007FC0000
0007FC0000
0007FC0000
0007FC0000
0007FC0000
0007FC0000
0007FC0000
0007FC0000
0007FC0000
0007FC0000
0007FC0000
0007FC0000
0007FC0000
0007FC0000
0007FC0000
0007FC0000
0007FC0000
0007FC0000
0007FC0000
0007FC0000
0007FC0000
0007FC0000
0007FC0000
0007FC0000
0007FC0000
0007FC0000
0007FC0000
0007FC0000
0003E00000
0003C00000
0003C00000
0007FC0000
0007FF0000
0007FF8000
000FFF8000
000007C000
000007C000
000007C000
000007C000
00061F8000
0007FF8000
0007FF0000
0007FF0000
0007FC0000
0000600000
ENDCHAR
STARTCHAR 0163
ENCODING 355
SWIDTH 420 0
DWIDTH 28 0
BBX 23 63 2 -16
BITMAP
03FE00
03FE00
03FE00
03FE00
03FE00
03FE00
03FE00
03FE00
03FE00
03FE00
03FE00
03FE00
FFFFFE
FFFFFE
FFFFFE
FFFFFE
FFFFFE
FFFFFE
FFFFFE
03FE00
03FE00
03FE00
03FE00
03FE00
03FE00
03FE00
03FE00
03FE00
03FE00
03FE00
03FE00
03FE00
03FE00
03FE00
03FE00
03FE00
03FE00
03FE00
03FE00
03FF00
03FFE6
03FFFE
03FFFE
01FFFE
00FFFE
007FFE
001FFE
000F00
001F00
001F00
001FF0
001FFC
003FFC
003FFE
00001E
00001E
00001E
00003E
001FFE
001FFC
001FFC
001FF8
001FE0
ENDCHAR
STARTCHAR 0164
ENCODING 356
SWIDTH 585 0
DWIDTH 39 0
BBX 35 61 2 0
BITMAP
07FC07FC00
01FE0FF800
01FF0FF000
00FF9FE000
007FFFC000
003FFF8000
001FFF0000
000FFE0000
0007FE0000
0003FC0000
0000000000
0000000000
0000000000
0000000000
FFFFFFFFE0
FFFFFFFFE0
FFFFFFFFE0
FFFFFFFFE0
FFFFFFFFE0
FFFFFFFFE0
FFFFFFFFE0
FFFFFFFFE0
0007FC0000
0007FC0000
0007FC0000
0007FC0000
0007FC0000
0007FC0000
0007FC0000
0007FC0000
0007FC0000
0007FC0000
0007FC0000
0007FC0000
0007FC0000
0007FC0000
0007FC0000
0007FC0000
0007FC0000
0007FC0000
0007FC0000
0007FC0000
0007FC0000
0007FC0000
0007FC0000
0007FC0000
0007FC0000
0007FC0000
0007FC0000
0007FC0000
0007FC0000
0007FC0000
0007FC0000
0007FC0000
0007FC0000
0007FC0000
0007FC0000
0007FC0000
0007FC0000
0007FC0000
0007FC0000
ENDCHAR
STARTCHAR 0165
ENCODING 357
SWIDTH 555 0
DWIDTH 37 0
BBX 34 54 2 0
BITMAP
0000007F00
000000FF80
000001FFC0
000001FFC0
000001FFC0
000001FFC0
000001FFC0
03FE01FFC0
03FE00FFC0
03FE000FC0
03FE0003C0
03FE0003C0
03FE0003C0
03FE0003C0
03FE000780
03FE000780
03FE000F00
03FE003E00
03FE007C00
FFFFFE7800
FFFFFE4000
FFFFFE0000
FFFFFE0000
FFFFFE0000
FFFFFE0000
FFFFFE0000
03FE000000
03FE000000
03FE000000
03FE000000
03FE000000
03FE000000
03FE000000
03FE000000
03FE000000
03FE000000
03FE000000
03FE000000
03FE000000
03FE000000
03FE000000
03FE000000
03FE000000
03FE000000
03FE000000
03FE000000
03FF000000
03FFE60000
03FFFE0000
03FFFE0000
01FFFE0000
00FFFE0000
007FFE0000
001FFE0000
ENDCHAR
STARTCHAR 0166
ENCODING 358
SWIDTH 585 0
DWIDTH 39 0
BBX 35 47 2 0
BITMAP
FFFFFFFFE0
FFFFFFFFE0
FFFFFFFFE0
FFFFFFFFE0
FFFFFFFFE0
FFFFFFFFE0
FFFFFFFFE0
FFFFFFFFE0
0007FC0000
0007FC0000
0007FC0000
0007FC0000
0007FC0000
0007FC0000
0007FC0000
0007FC0000
0007FC0000
0007FC0000
0007FC0000
0007FC0000
1FFFFFFF00
1FFFFFFF00
1FFFFFFF00
1FFFFFFF00
1FFFFFFF00
1FFFFFFF00
0007FC0000
0007FC0000
0007FC0000
0007FC0000
0007FC0000
0007FC0000
0007FC0000
0007FC0000
0007FC0000
0007FC0000
0007FC0000
0007FC0000
0007FC0000
0007FC0000
0007FC0000
0007FC0000
0007FC0000
0007FC0000
0007FC0000
0007FC0000
0007FC0000
ENDCHAR
STARTCHAR 0167
ENCODING 359
SWIDTH 420 0
DWIDTH 28 0
BBX 23 47 2 0
BITMAP
03FE00
03FE00
03FE00
03FE00
03FE00
03FE00
03FE00
03FE00
03FE00
03FE00
03FE00
03FE00
FFFFFE
FFFFFE
FFFFFE
FFFFFE
FFFFFE
FFFFFE
FFFFFE
03FE00
03FE00
03FE00
03FE00
03FE00
03FE00
FFFFFE
FFFFFE
FFFFFE
FFFFFE
FFFFFE
03FE00
03FE00
03FE00
03FE00
03FE00
03FE00
03FE00
03FE00
03FE00
03FF00
03FFE6
03FFFE
03FFFE
01FFFE
00FFFE
007FFE
001FFE
ENDCHAR
STARTCHAR 0168
ENCODING 360
SWIDTH 675 0
DWIDTH 45 0
BBX 38 62 4 -1
BITMAP
001FC07800
003FF0F800
007FFFF800
007FFFF800
00FFFFF800
00FFFFF000
00F87FF000
00F81FE000
00F8000000
0000000000
0000000000
0000000000
0000000000
0000000000
FF800007FC
FF800007FC
FF800007FC
FF800007FC
FF800007FC
FF800007FC
FF800007FC
FF800007FC
FF800007FC
FF800007FC
FF800007FC
FF800007FC
FF800007FC
FF800007FC
FF800007FC
FF800007FC
FF800007FC
FF800007FC
FF800007FC
FF800007FC
FF800007FC
FF800007FC
FF800007FC
FF800007FC
FF800007FC
FF800007FC
FF800007FC
FF800007FC
FF800007FC
FF800007FC
FF80000FFC
FFC0000FFC
FFC0000FF8
FFC0001FF8
7FE0001FF8
7FE0003FF8
7FF0003FF0
3FF800FFF0
3FFF03FFF0
1FFFFFFFE0
1FFFFFFFC0
0FFFFFFFC0
07FFFFFF80
03FFFFFF00
01FFFFFC00
007FFFF000
001FFFC000
0000780000
ENDCHAR
STARTCHAR 0169
ENCODING 361
SWIDTH 585 0
DWIDTH 39 0
BBX 32 51 4 -1
BITMAP
007007C0
01FE07C0
03FF87C0
07FFFFC0
07FFFF80
07FFFF80
07C7FF80
0781FF00
07807C00
00000000
00000000
00000000
00000000
00000000
00000000
FF8001FF
FF8001FF
FF8001FF
FF8001FF
FF8001FF
FF8001FF
FF8001FF
FF8001FF
FF8001FF
FF8001FF
FF8001FF
FF8001FF
FF8001FF
FF8001FF
FF8001FF
FF8001FF
FF8001FF
FF8001FF
FF8001FF
FF8001FF
FF8003FF
FF8003FF
FF8003FF
FFC003FF
FFC003FF
FFE007FF
FFE00FFF
7FF83FFF
7FFFFFFF
3FFFFDFF
3FFFF9FF
1FFFF9FF
1FFFF1FF
07FFE1FF
03FF81FF
00380000
ENDCHAR
STARTCHAR 016A
ENCODING 362
SWIDTH 675 0
DWIDTH 45 0
BBX 38 58 4 -1
BITMAP
00FFFFF800
00FFFFF800
00FFFFF800
00FFFFF800
0000000000
0000000000
0000000000
0000000000
0000000000
0000000000
FF800007FC
FF800007FC
FF800007FC
FF800007FC
FF800007FC
FF800007FC
FF800007FC
FF800007FC
FF800007FC
FF800007FC
FF800007FC
FF800007FC
FF800007FC
FF800007FC
FF800007FC
FF800007FC
FF800007FC
FF800007FC
FF800007FC
FF800007FC
FF800007FC
FF800007FC
FF800007FC
FF800007FC
FF800007FC
FF800007FC
FF800007FC
FF800007FC
FF800007FC
FF800007FC
FF80000FFC
FFC0000FFC
FFC0000FF8
FFC0001FF8
7FE0001FF8
7FE0003FF8
7FF0003FF0
3FF800FFF0
3FFF03FFF0
1FFFFFFFE0
1FFFFFFFC0
0FFFFFFFC0
07FFFFFF80
03FFFFFF00
01FFFFFC00
007FFFF000
001FFFC000
0000780000
ENDCHAR
STARTCHAR 016B
ENCODING 363
SWIDTH 585 0
DWIDTH 39 0
BBX 32 46 4 -1
BITMAP
07FFFFC0
07FFFFC0
07FFFFC0
07FFFFC0
00000000
00000000
00000000
00000000
00000000
00000000
FF8001FF
FF8001FF
FF8001FF
FF8001FF
FF8001FF
FF8001FF
FF8001FF
FF8001FF
FF8001FF
FF8001FF
FF8001FF
FF8001FF
FF8001FF
FF8001FF
FF8001FF
FF8001FF
FF8001FF
FF8001FF
FF8001FF
FF8001FF
FF8003FF
FF8003FF
FF8003FF
FFC003FF
FFC003FF
FFE007FF
FFE00FFF
7FF83FFF
7FFFFFFF
3FFFFDFF
3FFFF9FF
1FFFF9FF
1FFFF1FF
07FFE1FF
03FF81FF
00380000
ENDCHAR
STARTCHAR 016E
ENCODING 366
SWIDTH 675 0
DWIDTH 45 0
BBX 38 66 4 -1
BITMAP
0000300000
0001FE0000
0003FF0000
0007FF0000
00078F8000
000F078000
000F038000
000F078000
000F878000
0007CF8000
0007FF0000
0003FF0000
0001FC0000
0000000000
0000000000
0000000000
0000000000
0000000000
FF800007FC
FF800007FC
FF800007FC
FF800007FC
FF800007FC
FF800007FC
FF800007FC
FF800007FC
FF800007FC
FF800007FC
FF800007FC
FF800007FC
FF800007FC
FF800007FC
FF800007FC
FF800007FC
FF800007FC
FF800007FC
FF800007FC
FF800007FC
FF800007FC
FF800007FC
FF800007FC
FF800007FC
FF800007FC
FF800007FC
FF800007FC
FF800007FC
FF800007FC
FF800007FC
FF80000FFC
FFC0000FFC
FFC0000FF8
FFC0001FF8
7FE0001FF8
7FE0003FF8
7FF0003FF0
3FF800FFF0
3FFF03FFF0
1FFFFFFFE0
1FFFFFFFC0
0FFFFFFFC0
07FFFFFF80
03FFFFFF00
01FFFFFC00
007FFFF000
001FFFC000
0000780000
ENDCHAR
STARTCHAR 016F
ENCODING 367
SWIDTH 585 0
DWIDTH 39 0
BBX 32 54 4 -1
BITMAP
000FC000
001FF000
003FF800
007FF800
00787C00
00783C00
00783C00
00783C00
007C7800
007FF800
003FF000
001FE000
0007C000
00000000
00000000
00000000
00000000
00000000
FF8001FF
FF8001FF
FF8001FF
FF8001FF
FF8001FF
FF8001FF
FF8001FF
FF8001FF
FF8001FF
FF8001FF
FF8001FF
FF8001FF
FF8001FF
FF8001FF
FF8001FF
FF8001FF
FF8001FF
FF8001FF
FF8001FF
FF8001FF
FF8003FF
FF8003FF
FF8003FF
FFC003FF
FFC003FF
FFE007FF
FFE00FFF
7FF83FFF
7FFFFFFF
3FFFFDFF
3FFFF9FF
1FFFF9FF
1FFFF1FF
07FFE1FF
03FF81FF
00380000
ENDCHAR
STARTCHAR 0172
ENCODING 370
SWIDTH 675 0
DWIDTH 45 0
BBX 38 59 4 -12
BITMAP
FF800007FC
FF800007FC
FF800007FC
FF800007FC
FF800007FC
FF800007FC
FF800007FC
FF800007FC
FF800007FC
FF800007FC
FF800007FC
FF800007FC
FF800007FC
FF800007FC
FF800007FC
FF800007FC
FF800007FC
FF800007FC
FF800007FC
FF800007FC
FF800007FC
FF800007FC
FF800007FC
FF800007FC
FF800007FC
FF800007FC
FF800007FC
FF800007FC
FF800007FC
FF800007FC
FF80000FFC
FFC0000FFC
FFC0000FF8
FFC0001FF8
7FE0001FF8
7FE0003FF8
7FF0003FF0
3FF800FFF0
3FFF03FFF0
1FFFFFFFE0
1FFFFFFFC0
0FFFFFFFC0
07FFFFFF80
03FFFFFF00
01FFFFFC00
007FFFF800
001FFFC000
0001FE0000
0001F80000
0003F00000
0003F00000
0007E00000
0007F00000
0007F80000
0003FF8000
0003FF8000
0001FF8000
0000FF8000
00001F8000
ENDCHAR
STARTCHAR 0173
ENCODING 371
SWIDTH 585 0
DWIDTH 39 0
BBX 34 47 4 -12
BITMAP
FF8001FF00
FF8001FF00
FF8001FF00
FF8001FF00
FF8001FF00
FF8001FF00
FF8001FF00
FF8001FF00
FF8001FF00
FF8001FF00
FF8001FF00
FF8001FF00
FF8001FF00
FF8001FF00
FF8001FF00
FF8001FF00
FF8001FF00
FF8001FF00
FF8001FF00
FF8001FF00
FF8003FF00
FF8003FF00
FF8003FF00
FFC003FF00
FFC003FF00
FFE007FF00
FFE00FFF00
7FF83FFF00
7FFFFFFF00
3FFFFDFF00
3FFFF9FF00
1FFFF9FF00
1FFFF1FF00
07FFE1FF00
03FF81FF00
003800FE00
000001F800
000003F000
000003F000
000003F000
000003F000
000003FC40
000003FFC0
000001FFC0
000000FFC0
0000007FC0
0000000B80
ENDCHAR
STARTCHAR 0174
ENCODING 372
SWIDTH 990 0
DWIDTH 66 0
BBX 65 61 1 0
BITMAP
0000000FF800000000
0000001FF800000000
0000003FFC00000000
0000007FFE00000000
000000FFFF00000000
000001FF7F80000000
000001FE3FC0000000
000003FC3FE0000000
000007F81FF0000000
00000FF00FF8000000
000000000000000000
000000000000000000
000000000000000000
000000000000000000
FF80000FF00001FF80
FF80000FF80001FF00
FFC0001FF80001FF00
7FC0001FF80001FF00
7FC0001FF80003FF00
7FC0001FFC0003FE00
7FC0003FFC0003FE00
3FE0003FFC0003FE00
3FE0003FFE0007FE00
3FE0007FFE0007FC00
3FE0007FFE0007FC00
1FF0007FFF0007FC00
1FF000FFFF0007FC00
1FF000FFFF000FF800
1FF000FFFF800FF800
0FF801FFFF800FF800
0FF801FFFF800FF800
0FF801FF7FC01FF000
0FF801FF7FC01FF000
07F803FE7FC01FF000
07FC03FE3FC01FF000
07FC03FE3FE03FE000
07FC07FC3FE03FE000
03FC07FC3FE03FE000
03FE07FC1FF03FC000
03FE0FF81FF07FC000
03FE0FF81FF07FC000
01FE0FF80FF87FC000
01FF1FF80FF87F8000
01FF1FF00FF87F8000
01FF1FF007FCFF8000
00FF1FF007FCFF8000
00FFBFE007FCFF0000
00FFBFE007FCFF0000
007FBFE003FFFF0000
007FFFC003FFFF0000
007FFFC003FFFE0000
007FFFC001FFFE0000
003FFF8001FFFE0000
003FFF8001FFFE0000
003FFF8000FFFC0000
003FFF8000FFFC0000
001FFF0000FFFC0000
001FFF0000FFFC0000
001FFF00007FF80000
001FFE00007FF80000
000FFE00007FF80000
ENDCHAR
STARTCHAR 0175
ENCODING 373
SWIDTH 810 0
DWIDTH 54 0
BBX 51 50 2 0
BITMAP
000003F8000000
000007FC000000
00000FFE000000
00001FFF000000
00003FFF800000
00007FFFC00000
0000FFBFE00000
0001FF1FF00000
0003FE0FF80000
0003FC07FC0000
0007F803FE0000
00000000000000
00000000000000
00000000000000
00000000000000
FF0007FC001FE0
FF0007FC001FE0
FF8007FC003FE0
FF800FFE003FE0
7F800FFE003FC0
7F800FFE003FC0
7FC01FFE007FC0
7FC01FFF007FC0
3FC01FFF007F80
3FC01FFF007F80
3FC03FFF80FF80
3FE03FFF80FF80
1FE03FFF80FF00
1FE03FFF80FF00
1FE07FBFC0FF00
1FF07FBFC1FF00
0FF07FBFC1FE00
0FF0FF1FE1FE00
0FF0FF1FE1FE00
0FF8FF1FE3FE00
07F8FF0FE3FC00
07F9FE0FF3FC00
07F9FE0FF3FC00
03FDFE0FF7F800
03FFFC07FFF800
03FFFC07FFF800
03FFFC07FFF800
01FFFC07FFF000
01FFF803FFF000
01FFF803FFF000
01FFF803FFF000
00FFF803FFE000
00FFF001FFE000
00FFF001FFE000
00FFF001FFE000
ENDCHAR
STARTCHAR 0176
ENCODING 374
SWIDTH 630 0
DWIDTH 42 0
BBX 39 61 2 0
BITMAP
0001FF0000
0003FF8000
0007FFC000
0007FFE000
000FFFE000
001FEFF000
003FC7F800
007F83FC00
00FF01FE00
01FF00FF00
0000000000
0000000000
0000000000
0000000000
FF800003FE
FFC00007FE
7FC00007FC
7FE0000FFC
3FE0000FF8
3FF0001FF8
1FF0001FF0
1FF8003FF0
0FF8003FE0
0FFC007FE0
07FC007FC0
07FE00FFC0
03FE00FF80
03FF00FF80
01FF01FF00
01FF81FF00
00FF83FE00
00FFC3FE00
007FC7FC00
007FC7FC00
003FEFF800
003FFFF800
001FFFF000
001FFFF000
000FFFE000
000FFFE000
0007FFC000
0007FFC000
0003FF8000
0003FF8000
0001FF0000
0001FF0000
0001FF0000
0001FF0000
0001FF0000
0001FF0000
0001FF0000
0001FF0000
0001FF0000
0001FF0000
0001FF0000
0001FF0000
0001FF0000
0001FF0000
0001FF0000
0001FF0000
0001FF0000
ENDCHAR
STARTCHAR 0177
ENCODING 375
SWIDTH 540 0
DWIDTH 36 0
BBX 34 65 2 -15
BITMAP
0007F00000
000FF80000
001FFC0000
003FFE0000
007FFF0000
00FFFF8000
01FF7FC000
03FE3FE000
07FC1FF000
07F80FF800
0FF007FC00
0000000000
0000000000
0000000000
0000000000
FF8000FFC0
FF8000FF80
FFC000FF80
7FC000FF80
7FC001FF00
7FE001FF00
3FE001FE00
3FE003FE00
1FE003FE00
1FF003FC00
1FF007FC00
0FF007FC00
0FF807F800
0FF80FF800
07F80FF000
07FC0FF000
03FC1FF000
03FC1FE000
03FE1FE000
01FE3FC000
01FE3FC000
01FF3FC000
00FF7F8000
00FF7F8000
00FFFF8000
007FFF0000
007FFF0000
003FFE0000
003FFE0000
003FFE0000
001FFC0000
001FFC0000
001FF80000
000FF80000
000FF80000
000FF00000
001FF00000
001FF00000
003FE00000
003FE00000
007FC00000
00FFC00000
01FF800000
7FFF800000
7FFF000000
7FFF000000
7FFE000000
7FFC000000
7FF0000000
3F80000000
ENDCHAR
STARTCHAR 0178
ENCODING 376
SWIDTH 630 0
DWIDTH 42 0
BBX 39 63 2 0
BITMAP
007C003E00
00FE007F00
01FF00FF80
01FF01FF80
03FF81FF80
03FF81FFC0
03FF01FF80
01FF00FF80
00FE00FF00
007C003E00
0000000000
0000000000
0000000000
0000000000
0000000000
0000000000
FF800003FE
FFC00007FE
7FC00007FC
7FE0000FFC
3FE0000FF8
3FF0001FF8
1FF0001FF0
1FF8003FF0
0FF8003FE0
0FFC007FE0
07FC007FC0
07FE00FFC0
03FE00FF80
03FF00FF80
01FF01FF00
01FF81FF00
00FF83FE00
00FFC3FE00
007FC7FC00
007FC7FC00
003FEFF800
003FFFF800
001FFFF000
001FFFF000
000FFFE000
000FFFE000
0007FFC000
0007FFC000
0003FF8000
0003FF8000
0001FF0000
0001FF0000
0001FF0000
0001FF0000
0001FF0000
0001FF0000
0001FF0000
0001FF0000
0001FF0000
0001FF0000
0001FF0000
0001FF0000
0001FF0000
0001FF0000
0001FF0000
0001FF0000
0001FF0000
ENDCHAR
STARTCHAR 0179
ENCODING 377
SWIDTH 615 0
DWIDTH 41 0
BBX 35 65 3 0
BITMAP
000007FC00
00000FF800
00000FF800
00001FF000
00001FE000
00003FE000
00003FC000
00007F8000
00007F8000
0000FF0000
0000FE0000
0001FE0000
0001FC0000
0000000000
0000000000
0000000000
0000000000
0000000000
FFFFFFFFE0
FFFFFFFFE0
FFFFFFFFE0
FFFFFFFFE0
FFFFFFFFE0
FFFFFFFFE0
FFFFFFFFE0
FFFFFFFFE0
FFFFFFFFE0
000001FFC0
000001FF80
000003FF80
000007FF00
00000FFE00
00001FFC00
00001FF800
00003FF800
00007FF000
0000FFE000
0001FFC000
0001FF8000
0003FF8000
0007FF0000
000FFE0000
001FFC0000
001FF80000
003FF80000
007FF00000
00FFE00000
01FFC00000
01FF800000
03FF800000
07FF000000
0FFE000000
1FFC000000
1FF8000000
3FF8000000
7FF0000000
FFE0000000
FFFFFFFFE0
FFFFFFFFE0
FFFFFFFFE0
FFFFFFFFE0
FFFFFFFFE0
FFFFFFFFE0
FFFFFFFFE0
FFFFFFFFE0
ENDCHAR
STARTCHAR 017A
ENCODING 378
SWIDTH 495 0
DWIDTH 33 0
BBX 27 53 3 0
BITMAP
00007FC0
0000FF80
0000FF80
0001FF00
0001FE00
0003FE00
0003FC00
0007F800
0007F800
000FF000
000FE000
001FE000
001FC000
00000000
00000000
00000000
00000000
00000000
7FFFFFE0
7FFFFFE0
7FFFFFE0
7FFFFFE0
7FFFFFE0
7FFFFFE0
7FFFFFE0
00007FE0
0000FFC0
0001FF80
0001FF00
0003FF00
0007FE00
000FFC00
001FF800
001FF000
003FE000
007FE000
00FFC000
01FF8000
03FF0000
03FE0000
07FC0000
0FFC0000
1FF80000
3FF00000
7FE00000
7FC00000
FFFFFFE0
FFFFFFE0
FFFFFFE0
FFFFFFE0
FFFFFFE0
FFFFFFE0
FFFFFFE0
ENDCHAR
STARTCHAR 017B
ENCODING 379
SWIDTH 615 0
DWIDTH 41 0
BBX 35 63 3 0
BITMAP
0000F00000
0003F80000
0007FC0000
0007FE0000
0007FE0000
0007FE0000
0007FE0000
0007FC0000
0003FC0000
0001F80000
0000000000
0000000000
0000000000
0000000000
0000000000
0000000000
FFFFFFFFE0
FFFFFFFFE0
FFFFFFFFE0
FFFFFFFFE0
FFFFFFFFE0
FFFFFFFFE0
FFFFFFFFE0
FFFFFFFFE0
FFFFFFFFE0
000001FFC0
000001FF80
000003FF80
000007FF00
00000FFE00
00001FFC00
00001FF800
00003FF800
00007FF000
0000FFE000
0001FFC000
0001FF8000
0003FF8000
0007FF0000
000FFE0000
001FFC0000
001FF80000
003FF80000
007FF00000
00FFE00000
01FFC00000
01FF800000
03FF800000
07FF000000
0FFE000000
1FFC000000
1FF8000000
3FF8000000
7FF0000000
FFE0000000
FFFFFFFFE0
FFFFFFFFE0
FFFFFFFFE0
FFFFFFFFE0
FFFFFFFFE0
FFFFFFFFE0
FFFFFFFFE0
FFFFFFFFE0
ENDCHAR
STARTCHAR 017C
ENCODING 380
SWIDTH 495 0
DWIDTH 33 0
BBX 27 52 3 0
BITMAP
00040000
001F8000
003FC000
007FE000
007FE000
007FE000
007FE000
007FE000
003FC000
001F8000
00060000
00000000
00000000
00000000
00000000
00000000
00000000
7FFFFFE0
7FFFFFE0
7FFFFFE0
7FFFFFE0
7FFFFFE0
7FFFFFE0
7FFFFFE0
00007FE0
0000FFC0
0001FF80
0001FF00
0003FF00
0007FE00
000FFC00
001FF800
001FF000
003FE000
007FE000
00FFC000
01FF8000
03FF0000
03FE0000
07FC0000
0FFC0000
1FF80000
3FF00000
7FE00000
7FC00000
FFFFFFE0
FFFFFFE0
FFFFFFE0
FFFFFFE0
FFFFFFE0
FFFFFFE0
FFFFFFE0
ENDCHAR
STARTCHAR 017D
ENCODING 381
SWIDTH 615 0
DWIDTH 41 0
BBX 35 61 3 0
BITMAP
07FC07FC00
01FE07F800
00FF0FF000
00FF9FE000
007FFFC000
003FFF8000
001FFF8000
000FFF0000
0007FE0000
0003FC0000
0000000000
0000000000
0000000000
0000000000
FFFFFFFFE0
FFFFFFFFE0
FFFFFFFFE0
FFFFFFFFE0
FFFFFFFFE0
FFFFFFFFE0
FFFFFFFFE0
FFFFFFFFE0
FFFFFFFFE0
000001FFC0
000001FF80
000003FF80
000007FF00
00000FFE00
00001FFC00
00001FF800
00003FF800
00007FF000
0000FFE000
0001FFC000
0001FF8000
0003FF8000
0007FF0000
000FFE0000
001FFC0000
001FF80000
003FF80000
007FF00000
00FFE00000
01FFC00000
01FF800000
03FF800000
07FF000000
0FFE000000
1FFC000000
1FF8000000
3FF8000000
7FF0000000
FFE0000000
FFFFFFFFE0
FFFFFFFFE0
FFFFFFFFE0
FFFFFFFFE0
FFFFFFFFE0
FFFFFFFFE0
FFFFFFFFE0
FFFFFFFFE0
ENDCHAR
STARTCHAR 017E
ENCODING 382
SWIDTH 495 0
DWIDTH 33 0
BBX 27 50 3 0
BITMAP
7FC03FC0
3FE07FC0
1FF0FF80
0FF9FF00
07FBFE00
03FFFC00
01FFF800
00FFF000
007FE000
003FC000
003F8000
00000000
00000000
00000000
00000000
7FFFFFE0
7FFFFFE0
7FFFFFE0
7FFFFFE0
7FFFFFE0
7FFFFFE0
7FFFFFE0
00007FE0
0000FFC0
0001FF80
0001FF00
0003FF00
0007FE00
000FFC00
001FF800
001FF000
003FE000
007FE000
00FFC000
01FF8000
03FF0000
03FE0000
07FC0000
0FFC0000
1FF80000
3FF00000
7FE00000
7FC00000
FFFFFFE0
FFFFFFE0
FFFFFFE0
FFFFFFE0
FFFFFFE0
FFFFFFE0
FFFFFFE0
ENDCHAR
STARTCHAR 01A0
ENCODING 416
SWIDTH 720 0
DWIDTH 48 0
BBX 42 55 3 -1
BITMAP
000000003F80
000000003F80
000000003F80
000000003F80
000000003F80
000000003F80
00001E007F80
0003FFFFFF00
000FFFFFFF00
003FFFFFFE00
00FFFFFFF800
01FFFFFFE000
03FFFFFFF000
07FFFFFFF800
0FFFFFFFFC00
0FFF807FFC00
1FFE001FFE00
1FFC000FFF00
3FF80007FF00
3FF00003FF00
7FF00003FF80
7FE00001FF80
7FE00001FF80
FFE00000FFC0
FFC00000FFC0
FFC00000FFC0
FFC00000FFC0
FFC00000FFC0
FFC000007FC0
FFC000007FC0
FFC000007FC0
FFC000007FC0
FFC000007FC0
FFC00000FFC0
FFC00000FFC0
FFC00000FFC0
FFC00000FFC0
FFC00000FFC0
7FE00001FFC0
7FE00001FF80
7FF00003FF80
3FF00003FF80
3FF80007FF00
3FFC000FFF00
1FFE001FFE00
0FFF807FFE00
0FFFFFFFFC00
07FFFFFFF800
03FFFFFFF000
01FFFFFFE000
00FFFFFFC000
003FFFFF8000
001FFFFE0000
0003FFF00000
000016000000
ENDCHAR
STARTCHAR 01A1
ENCODING 417
SWIDTH 600 0
DWIDTH 40 0
BBX 35 43 3 -1
BITMAP
0000000FE0
0000000FE0
0000000FE0
0000000FE0
0000000FE0
0000000FE0
000FF83FE0
007FFFFFC0
01FFFFFF80
03FFFFFF00
07FFFFFC00
0FFFFFF800
1FFFFFFC00
3FFF7FFE00
3FF80FFE00
7FE003FF00
7FE003FF00
7FC001FF00
FFC001FF80
FF8000FF80
FF8000FF80
FF8000FF80
FF8000FF80
FF8000FF80
FF8000FF80
FF8000FF80
FF8000FF80
FF8000FF80
FF8000FF80
FFC000FF80
7FC001FF80
7FC001FF00
7FE003FF00
3FF007FE00
3FFC1FFE00
1FFFFFFC00
1FFFFFFC00
0FFFFFF800
07FFFFF000
03FFFFE000
00FFFF8000
003FFE0000
0000800000
ENDCHAR
STARTCHAR 01AF
ENCODING 431
SWIDTH 675 0
DWIDTH 45 0
BBX 45 55 4 -1
BITMAP
0000000001F8
0000000001F8
0000000001F8
0000000001F8
0000000001F8
0000000001F8
0000000003F8
FF800007FFF8
FF800007FFF0
FF800007FFE0
FF800007FF80
FF800007FC00
FF800007FC00
FF800007FC00
FF800007FC00
FF800007FC00
FF800007FC00
FF800007FC00
FF800007FC00
FF800007FC00
FF800007FC00
FF800007FC00
FF800007FC00
FF800007FC00
FF800007FC00
FF800007FC00
FF800007FC00
FF800007FC00
FF800007FC00
FF800007FC00
FF800007FC00
FF800007FC00
FF800007FC00
FF800007FC00
FF800007FC00
FF800007FC00
FF800007FC00
FF80000FFC00
FFC0000FFC00
FFC0000FF800
FFC0001FF800
7FE0001FF800
7FE0003FF800
7FF0003FF000
3FF800FFF000
3FFF03FFF000
1FFFFFFFE000
1FFFFFFFC000
0FFFFFFFC000
07FFFFFF8000
03FFFFFF0000
01FFFFFC0000
007FFFF00000
001FFFC00000
000078000000
ENDCHAR
STARTCHAR 01B0
ENCODING 432
SWIDTH 585 0
DWIDTH 39 0
BBX 40 43 4 -1
BITMAP
000000007F
000000007F
000000007F
000000007F
000000007F
00000000FE
00000001FE
FF8001FFFE
FF8001FFFC
FF8001FFF8
FF8001FFC0
FF8001FF00
FF8001FF00
FF8001FF00
FF8001FF00
FF8001FF00
FF8001FF00
FF8001FF00
FF8001FF00
FF8001FF00
FF8001FF00
FF8001FF00
FF8001FF00
FF8001FF00
FF8001FF00
FF8001FF00
FF8001FF00
FF8003FF00
FF8003FF00
FF8003FF00
FFC003FF00
FFC003FF00
FFE007FF00
FFE00FFF00
7FF83FFF00
7FFFFFFF00
3FFFFDFF00
3FFFF9FF00
1FFFF9FF00
1FFFF1FF00
07FFE1FF00
03FF81FF00
0038000000
ENDCHAR
STARTCHAR 02C6
ENCODING 710
SWIDTH 450 0
DWIDTH 30 0
BBX 26 11 2 39
BITMAP
007F8000
00FFC000
00FFE000
01FFF000
03FFF800
07FFFC00
0FF3FE00
1FE1FE00
3FC0FF00
7FC07F80
FF803FC0
ENDCHAR
STARTCHAR 02C7
ENCODING 711
SWIDTH 435 0
DWIDTH 29 0
BBX 25 11 2 39
BITMAP
FF807F80
7FC0FF80
3FE1FF00
1FE3FE00
0FF7FC00
07FFF800
03FFF000
01FFE000
00FFC000
007F8000
007F0000
ENDCHAR
STARTCHAR 02D8
ENCODING 728
SWIDTH 420 0
DWIDTH 28 0
BBX 24 8 2 40
BITMAP
FF007F
7F80FF
3FC3FE
1FFFFC
1FFFF8
07FFF0
03FFE0
007F00
ENDCHAR
STARTCHAR 02D9
ENCODING 729
SWIDTH 210 0
DWIDTH 14 0
BBX 10 11 3 41
BITMAP
0800
7F00
FF80
FF80
FFC0
FFC0
FFC0
FF80
FF80
7F00
1C00
ENDCHAR
STARTCHAR 02DA
ENCODING 730
SWIDTH 255 0
DWIDTH 17 0
BBX 13 13 2 40
BITMAP
1FC0
3FE0
7FF0
7FF8
F878
F078
F078
F078
F8F8
7FF0
7FF0
3FE0
0F80
ENDCHAR
STARTCHAR 02DB
ENCODING 731
SWIDTH 240 0
DWIDTH 16 0
BBX 12 14 2 -14
BITMAP
0600
1F00
3F80
7F00
FE00
FC00
FC00
FC00
FE00
FFF0
7FF0
3FF0
1FF0
03F0
ENDCHAR
STARTCHAR 02DC
ENCODING 732
SWIDTH 390 0
DWIDTH 26 0
BBX 21 9 3 41
BITMAP
0F00F8
3FE0F8
7FF8F8
7FFFF8
FFFFF8
FFFFF0
F8FFF0
F83FE0
F00F80
ENDCHAR
STARTCHAR 0300
ENCODING 768
SWIDTH 0 0
DWIDTH 0 0
BBX 15 13 -17 41
BITMAP
FF80
7FC0
7FC0
3FE0
1FE0
1FF0
0FF0
07F8
07F8
03FC
01FC
01FE
00FE
ENDCHAR
STARTCHAR 0301
ENCODING 769
SWIDTH 0 0
DWIDTH 0 0
BBX 15 13 -15 41
BITMAP
03FE
07FC
07FC
0FF8
0FF8
1FF0
1FE0
3FE0
3FC0
7F80
7F80
FF00
FE00
ENDCHAR
STARTCHAR 0302
ENCODING 770
SWIDTH 0 0
DWIDTH 0 0
BBX 26 11 -26 39
BITMAP
003F8000
007FC000
00FFE000
01FFF000
03FFF800
07FFFC00
0FF3FE00
1FF1FF00
3FE0FF80
7FC07F80
FF803FC0
ENDCHAR
STARTCHAR 0303
ENCODING 771
SWIDTH 0 0
DWIDTH 0 0
BBX 21 9 -23 41
BITMAP
0F00F8
3FE0F8
7FF8F8
7FFFF8
FFFFF8
FFFFF0
F8FFF0
F83FE0
F80F80
ENDCHAR
STARTCHAR 0304
ENCODING 772
SWIDTH 0 0
DWIDTH 0 0
BBX 21 4 -27 43
BITMAP
FFFFF8
FFFFF8
FFFFF8
FFFFF8
ENDCHAR
STARTCHAR 0306
ENCODING 774
SWIDTH 0 0
DWIDTH 0 0
BBX 24 8 -25 40
BITMAP
FE00FF
7F01FE
7FC3FC
3FFFFC
1FFFF8
0FFFF0
03FFC0
007E00
ENDCHAR
STARTCHAR 0307
ENCODING 775
SWIDTH 0 0
DWIDTH 0 0
BBX 10 11 -14 41
BITMAP
0C00
3F00
7F80
FFC0
FFC0
FFC0
FFC0
FFC0
7F80
3F00
0C00
ENDCHAR
STARTCHAR 0308
ENCODING 776
SWIDTH 0 0
DWIDTH 0 0
BBX 27 11 -31 41
BITMAP
00000400
3F001F80
7F803FC0
FFC07FE0
FFC07FE0
FFC07FE0
FFC07FE0
FFC07FE0
7F803FC0
3F001F80
0C000600
ENDCHAR
STARTCHAR 0309
ENCODING 777
SWIDTH 0 0
DWIDTH 0 0
BBX 17 14 -19 41
BITMAP
03C000
1FFC00
3FFE00
7FFF00
FFFF00
FE3F80
FC1F80
001F80
001F80
003F00
007F00
01FE00
03F800
07F000
ENDCHAR
STARTCHAR 030A
ENCODING 778
SWIDTH 0 0
DWIDTH 0 0
BBX 14 13 -17 40
BITMAP
0FC0
1FF0
3FF0
7FF8
7878
F03C
F03C
783C
7878
7FF8
3FF0
1FE0
07C0
ENDCHAR
STARTCHAR 030C
ENCODING 780
SWIDTH 0 0
DWIDTH 0 0
BBX 25 11 -28 39
BITMAP
FF807F80
7FC0FF00
3FC1FE00
1FE3FE00
0FF7FC00
07FFF800
03FFF000
01FFE000
01FFC000
00FF8000
007F0000
ENDCHAR
STARTCHAR 031B
ENCODING 795
SWIDTH 0 0
DWIDTH 0 0
BBX 14 11 -15 40
BITMAP
01FC
01FC
01FC
01FC
01F8
03F8
0FF8
FFF0
FFF0
FFC0
FE00
ENDCHAR
STARTCHAR 0323
ENCODING 803
SWIDTH 0 0
DWIDTH 0 0
BBX 9 9 -10 -16
BITMAP
3F00
7F00
FF80
FF80
FF80
FF80
FF80
7F00
3E00
ENDCHAR
STARTCHAR 0327
ENCODING 807
SWIDTH 0 0
DWIDTH 0 0
BBX 13 17 -15 -17
BITMAP
7C00
7C00
7800
7F80
FFE0
FFF0
FFF0
00F8
0078
0078
00F8
C1F8
FFF0
FFF0
FFE0
FFC0
0C00
ENDCHAR
STARTCHAR 0328
ENCODING 808
SWIDTH 0 0
DWIDTH 0 0
BBX 12 14 -14 -14
BITMAP
0C00
1F00
7F80
7E00
FC00
FC00
FC00
FC00
FE00
FFF0
FFF0
7FF0
3FF0
03E0
ENDCHAR
STARTCHAR 1E80
ENCODING 7808
SWIDTH 990 0
DWIDTH 66 0
BBX 65 65 1 0
BITMAP
00000FF80000000000
000007FC0000000000
000007FC0000000000
000003FE0000000000
000001FE0000000000
000001FF0000000000
000000FF0000000000
0000007F8000000000
0000007F8000000000
0000003FC000000000
0000001FC000000000
0000001FE000000000
0000000FE000000000
000000000000000000
000000000000000000
000000000000000000
000000000000000000
000000000000000000
FF80000FF00001FF80
FF80000FF80001FF00
FFC0001FF80001FF00
7FC0001FF80001FF00
7FC0001FF80003FF00
7FC0001FFC0003FE00
7FC0003FFC0003FE00
3FE0003FFC0003FE00
3FE0003FFE0007FE00
3FE0007FFE0007FC00
3FE0007FFE0007FC00
1FF0007FFF0007FC00
1FF000FFFF0007FC00
1FF000FFFF000FF800
1FF000FFFF800FF800
0FF801FFFF800FF800
0FF801FFFF800FF800
0FF801FF7FC01FF000
0FF801FF7FC01FF000
07F803FE7FC01FF000
07FC03FE3FC01FF000
07FC03FE3FE03FE000
07FC07FC3FE03FE000
03FC07FC3FE03FE000
03FE07FC1FF03FC000
03FE0FF81FF07FC000
03FE0FF81FF07FC000
01FE0FF80FF87FC000
01FF1FF80FF87F8000
01FF1FF00FF87F8000
01FF1FF007FCFF8000
00FF1FF007FCFF8000
00FFBFE007FCFF0000
00FFBFE007FCFF0000
007FBFE003FFFF0000
007FFFC003FFFF0000
007FFFC003FFFE0000
007FFFC001FFFE0000
003FFF8001FFFE0000
003FFF8001FFFE0000
003FFF8000FFFC0000
003FFF8000FFFC0000
001FFF0000FFFC0000
001FFF0000FFFC0000
001FFF00007FF80000
001FFE00007FF80000
000FFE00007FF80000
ENDCHAR
STARTCHAR 1E81
ENCODING 7809
SWIDTH 810 0
DWIDTH 54 0
BBX 51 53 2 0
BITMAP
0003FE00000000
0003FE00000000
0001FF00000000
0000FF00000000
0000FF80000000
00007F80000000
00003FC0000000
00003FC0000000
00001FE0000000
00000FE0000000
00000FF0000000
000007F0000000
000003F8000000
00000000000000
00000000000000
00000000000000
00000000000000
00000000000000
FF0007FC001FE0
FF0007FC001FE0
FF8007FC003FE0
FF800FFE003FE0
7F800FFE003FC0
7F800FFE003FC0
7FC01FFE007FC0
7FC01FFF007FC0
3FC01FFF007F80
3FC01FFF007F80
3FC03FFF80FF80
3FE03FFF80FF80
1FE03FFF80FF00
1FE03FFF80FF00
1FE07FBFC0FF00
1FF07FBFC1FF00
0FF07FBFC1FE00
0FF0FF1FE1FE00
0FF0FF1FE1FE00
0FF8FF1FE3FE00
07F8FF0FE3FC00
07F9FE0FF3FC00
07F9FE0FF3FC00
03FDFE0FF7F800
03FFFC07FFF800
03FFFC07FFF800
03FFFC07FFF800
01FFFC07FFF000
01FFF803FFF000
01FFF803FFF000
01FFF803FFF000
00FFF803FFE000
00FFF001FFE000
00FFF001FFE000
00FFF001FFE000
ENDCHAR
STARTCHAR 1E82
ENCODING 7810
SWIDTH 990 0
DWIDTH 66 0
BBX 65 65 1 0
BITMAP
000000001FF0000000
000000001FF0000000
000000003FE0000000
000000003FC0000000
000000007FC0000000
000000007F80000000
00000000FF00000000
00000000FF00000000
00000001FE00000000
00000001FC00000000
00000003FC00000000
00000007F800000000
00000007F800000000
000000000000000000
000000000000000000
000000000000000000
000000000000000000
000000000000000000
FF80000FF00001FF80
FF80000FF80001FF00
FFC0001FF80001FF00
7FC0001FF80001FF00
7FC0001FF80003FF00
7FC0001FFC0003FE00
7FC0003FFC0003FE00
3FE0003FFC0003FE00
3FE0003FFE0007FE00
3FE0007FFE0007FC00
3FE0007FFE0007FC00
1FF0007FFF0007FC00
1FF000FFFF0007FC00
1FF000FFFF000FF800
1FF000FFFF800FF800
0FF801FFFF800FF800
0FF801FFFF800FF800
0FF801FF7FC01FF000
0FF801FF7FC01FF000
07F803FE7FC01FF000
07FC03FE3FC01FF000
07FC03FE3FE03FE000
07FC07FC3FE03FE000
03FC07FC3FE03FE000
03FE07FC1FF03FC000
03FE0FF81FF07FC000
03FE0FF81FF07FC000
01FE0FF80FF87FC000
01FF1FF80FF87F8000
01FF1FF00FF87F8000
01FF1FF007FCFF8000
00FF1FF007FCFF8000
00FFBFE007FCFF0000
00FFBFE007FCFF0000
007FBFE003FFFF0000
007FFFC003FFFF0000
007FFFC003FFFE0000
007FFFC001FFFE0000
003FFF8001FFFE0000
003FFF8001FFFE0000
003FFF8000FFFC0000
003FFF8000FFFC0000
001FFF0000FFFC0000
001FFF0000FFFC0000
001FFF00007FF80000
001FFE00007FF80000
000FFE00007FF80000
ENDCHAR
STARTCHAR 1E83
ENCODING 7811
SWIDTH 810 0
DWIDTH 54 0
BBX 51 53 2 0
BITMAP
0000000FF80000
0000000FF80000
0000001FF00000
0000001FE00000
0000003FE00000
0000003FC00000
0000007F800000
0000007F800000
000000FF000000
000000FE000000
000001FE000000
000001FC000000
000003F8000000
00000000000000
00000000000000
00000000000000
00000000000000
00000000000000
FF0007FC001FE0
FF0007FC001FE0
FF8007FC003FE0
FF800FFE003FE0
7F800FFE003FC0
7F800FFE003FC0
7FC01FFE007FC0
7FC01FFF007FC0
3FC01FFF007F80
3FC01FFF007F80
3FC03FFF80FF80
3FE03FFF80FF80
1FE03FFF80FF00
1FE03FFF80FF00
1FE07FBFC0FF00
1FF07FBFC1FF00
0FF07FBFC1FE00
0FF0FF1FE1FE00
0FF0FF1FE1FE00
0FF8FF1FE3FE00
07F8FF0FE3FC00
07F9FE0FF3FC00
07F9FE0FF3FC00
03FDFE0FF7F800
03FFFC07FFF800
03FFFC07FFF800
03FFFC07FFF800
01FFFC07FFF000
01FFF803FFF000
01FFF803FFF000
01FFF803FFF000
00FFF803FFE000
00FFF001FFE000
00FFF001FFE000
00FFF001FFE000
ENDCHAR
STARTCHAR 1E84
ENCODING 7812
SWIDTH 990 0
DWIDTH 66 0
BBX 65 63 1 0
BITMAP
000003C001E0000000
00000FF007F8000000
00000FF807F8000000
00001FF80FFC000000
00001FF80FFC000000
00001FF80FFC000000
00001FF80FFC000000
00000FF80FFC000000
00000FF007F8000000
000007E003F0000000
000000000000000000
000000000000000000
000000000000000000
000000000000000000
000000000000000000
000000000000000000
FF80000FF00001FF80
FF80000FF80001FF00
FFC0001FF80001FF00
7FC0001FF80001FF00
7FC0001FF80003FF00
7FC0001FFC0003FE00
7FC0003FFC0003FE00
3FE0003FFC0003FE00
3FE0003FFE0007FE00
3FE0007FFE0007FC00
3FE0007FFE0007FC00
1FF0007FFF0007FC00
1FF000FFFF0007FC00
1FF000FFFF000FF800
1FF000FFFF800FF800
0FF801FFFF800FF800
0FF801FFFF800FF800
0FF801FF7FC01FF000
0FF801FF7FC01FF000
07F803FE7FC01FF000
07FC03FE3FC01FF000
07FC03FE3FE03FE000
07FC07FC3FE03FE000
03FC07FC3FE03FE000
03FE07FC1FF03FC000
03FE0FF81FF07FC000
03FE0FF81FF07FC000
01FE0FF80FF87FC000
01FF1FF80FF87F8000
01FF1FF00FF87F8000
01FF1FF007FCFF8000
00FF1FF007FCFF8000
00FFBFE007FCFF0000
00FFBFE007FCFF0000
007FBFE003FFFF0000
007FFFC003FFFF0000
007FFFC003FFFE0000
007FFFC001FFFE0000
003FFF8001FFFE0000
003FFF8001FFFE0000
003FFF8000FFFC0000
003FFF8000FFFC0000
001FFF0000FFFC0000
001FFF0000FFFC0000
001FFF00007FF80000
001FFE00007FF80000
000FFE00007FF80000
ENDCHAR
STARTCHAR 1E85
ENCODING 7813
SWIDTH 810 0
DWIDTH 54 0
BBX 51 52 2 0
BITMAP
00004000200000
0003F801FC0000
0007FC03FE0000
0007FC03FE0000
000FFC07FE0000
000FFE07FF0000
000FFE07FE0000
0007FC03FE0000
0007FC03FE0000
0003F801FC0000
0000E000700000
00000000000000
00000000000000
00000000000000
00000000000000
00000000000000
00000000000000
FF0007FC001FE0
FF0007FC001FE0
FF8007FC003FE0
FF800FFE003FE0
7F800FFE003FC0
7F800FFE003FC0
7FC01FFE007FC0
7FC01FFF007FC0
3FC01FFF007F80
3FC01FFF007F80
3FC03FFF80FF80
3FE03FFF80FF80
1FE03FFF80FF00
1FE03FFF80FF00
1FE07FBFC0FF00
1FF07FBFC1FF00
0FF07FBFC1FE00
0FF0FF1FE1FE00
0FF0FF1FE1FE00
0FF8FF1FE3FE00
07F8FF0FE3FC00
07F9FE0FF3FC00
07F9FE0FF3FC00
03FDFE0FF7F800
03FFFC07FFF800
03FFFC07FFF800
03FFFC07FFF800
01FFFC07FFF000
01FFF803FFF000
01FFF803FFF000
01FFF803FFF000
00FFF803FFE000
00FFF001FFE000
00FFF001FFE000
00FFF001FFE000
ENDCHAR
STARTCHAR 1EA0
ENCODING 7840
SWIDTH 675 0
DWIDTH 45 0
BBX 42 63 2 -16
BITMAP
0000FF800000
0000FF800000
0000FFC00000
0001FFC00000
0001FFE00000
0003FFE00000
0003FFE00000
0003FFF00000
0007FFF00000
0007FFF00000
0007FFF80000
000FFFF80000
000FF7F80000
000FF7FC0000
001FE3FC0000
001FE3FC0000
003FE3FE0000
003FC1FE0000
003FC1FF0000
007FC1FF0000
007FC0FF0000
007F80FF8000
00FF80FF8000
00FF807F8000
00FF007FC000
01FF007FC000
01FF003FC000
01FE003FE000
03FFFFFFE000
03FFFFFFE000
07FFFFFFF000
07FFFFFFF000
07FFFFFFF800
0FFFFFFFF800
0FFFFFFFF800
0FFFFFFFFC00
1FF00007FC00
1FF00007FC00
1FF00003FE00
3FE00003FE00
3FE00003FE00
3FE00001FF00
7FC00001FF00
7FC00001FF00
FFC00000FF80
FF800000FF80
FF800000FFC0
000000000000
000000000000
000000000000
000000000000
000000000000
000000000000
000000000000
00003F000000
00007F800000
0000FF800000
0000FF800000
0000FF800000
0000FF800000
0000FF800000
00007F000000
00003E000000
ENDCHAR
STARTCHAR 1EA1
ENCODING 7841
SWIDTH 615 0
DWIDTH 41 0
BBX 35 52 2 -16
BITMAP
003FE00000
00FFF83FE0
03FFFC3FE0
07FFFE3FE0
0FFFFF3FE0
0FFFFFBFE0
1FFFFFFFE0
1FFFBFFFE0
3FFC03FFE0
3FF801FFE0
7FF000FFE0
7FE000FFE0
7FE0007FE0
7FC0007FE0
7FC0007FE0
FFC0007FE0
FFC0003FE0
FFC0003FE0
FFC0003FE0
FFC0003FE0
FFC0007FE0
7FC0007FE0
7FC0007FE0
7FE0007FE0
7FE000FFE0
7FF000FFE0
3FF001FFE0
3FF803FFE0
3FFE07FFE0
1FFFFFFFE0
1FFFFFBFE0
0FFFFF3FE0
07FFFE3FE0
03FFFC3FE0
01FFF83FE0
007FF03FE0
0002000000
0000000000
0000000000
0000000000
0000000000
0000000000
0000000000
0001F80000
0003FC0000
0003FE0000
0003FE0000
0003FE0000
0003FE0000
0003FE0000
0001FC0000
0000F80000
ENDCHAR
STARTCHAR 1EA2
ENCODING 7842
SWIDTH 675 0
DWIDTH 45 0
BBX 42 65 2 0
BITMAP
0000FF800000
0003FFE00000
0007FFF00000
0007FFF00000
000FFFF80000
000FE1F80000
000FC1F80000
000001F80000
000003F00000
000007F00000
00000FE00000
00003FC00000
00007F800000
000000000000
000000000000
000000000000
000000000000
000000000000
0000FF800000
0000FF800000
0000FFC00000
0001FFC00000
0001FFE00000
0003FFE00000
0003FFE00000
0003FFF00000
0007FFF00000
0007FFF00000
0007FFF80000
000FFFF80000
000FF7F80000
000FF7FC0000
001FE3FC0000
001FE3FC0000
003FE3FE0000
003FC1FE0000
003FC1FF0000
007FC1FF0000
007FC0FF0000
007F80FF8000
00FF80FF8000
00FF807F8000
00FF007FC000
01FF007FC000
01FF003FC000
01FE003FE000
03FFFFFFE000
03FFFFFFE000
07FFFFFFF000
07FFFFFFF000
07FFFFFFF800
0FFFFFFFF800
0FFFFFFFF800
0FFFFFFFFC00
1FF00007FC00
1FF00007FC00
1FF00003FE00
3FE00003FE00
3FE00003FE00
3FE00001FF00
7FC00001FF00
7FC00001FF00
FFC00000FF80
FF800000FF80
FF800000FFC0
ENDCHAR
STARTCHAR 1EA3
ENCODING 7843
SWIDTH 615 0
DWIDTH 41 0
BBX 35 55 2 -1
BITMAP
0001FC0000
0007FF0000
000FFF8000
001FFFC000
003FFFE000
003F8FE000
003F07E000
000007E000
00000FE000
00000FC000
00003F8000
00007F0000
0000FE0000
0001FC0000
0000000000
0000000000
0000000000
0000000000
003FE00000
00FFF83FE0
03FFFC3FE0
07FFFE3FE0
0FFFFF3FE0
0FFFFFBFE0
1FFFFFFFE0
1FFFBFFFE0
3FFC03FFE0
3FF801FFE0
7FF000FFE0
7FE000FFE0
7FE0007FE0
7FC0007FE0
7FC0007FE0
FFC0007FE0
FFC0003FE0
FFC0003FE0
FFC0003FE0
FFC0003FE0
FFC0007FE0
7FC0007FE0
7FC0007FE0
7FE0007FE0
7FE000FFE0
7FF000FFE0
3FF001FFE0
3FF803FFE0
3FFE07FFE0
1FFFFFFFE0
1FFFFFBFE0
0FFFFF3FE0
07FFFE3FE0
03FFFC3FE0
01FFF83FE0
007FF03FE0
0002000000
ENDCHAR
STARTCHAR 1EA4
ENCODING 7844
SWIDTH 675 0
DWIDTH 45 0
BBX 45 73 2 0
BITMAP
000000000FF8
000000001FF0
000000001FF0
000000003FE0
000000003FE0
000000007FC0
000000007F80
00000000FF80
00000000FF00
00000001FE00
00000001FE00
00000003FC00
0000FF83F800
0001FFC1F800
0001FFE00000
0003FFF00000
0007FFF80000
000FF7F80000
001FE3FC0000
003FC1FE0000
007F80FF0000
00FF807F8000
000000000000
000000000000
000000000000
000000000000
0000FF800000
0000FF800000
0000FFC00000
0001FFC00000
0001FFE00000
0003FFE00000
0003FFE00000
0003FFF00000
0007FFF00000
0007FFF00000
0007FFF80000
000FFFF80000
000FF7F80000
000FF7FC0000
001FE3FC0000
001FE3FC0000
003FE3FE0000
003FC1FE0000
003FC1FF0000
007FC1FF0000
007FC0FF0000
007F80FF8000
00FF80FF8000
00FF807F8000
00FF007FC000
01FF007FC000
01FF003FC000
01FE003FE000
03FFFFFFE000
03FFFFFFE000
07FFFFFFF000
07FFFFFFF000
07FFFFFFF800
0FFFFFFFF800
0FFFFFFFF800
0FFFFFFFFC00
1FF00007FC00
1FF00007FC00
1FF00003FE00
3FE00003FE00
3FE00003FE00
3FE00001FF00
7FC00001FF00
7FC00001FF00
FFC00000FF80
FF800000FF80
FF800000FFC0
ENDCHAR
STARTCHAR 1EA5
ENCODING 7845
SWIDTH 615 0
DWIDTH 41 0
BBX 43 62 2 -1
BITMAP
000000003FE0
000000007FC0
000000007F80
00000000FF80
00000000FF00
00000001FE00
00000001FE00
00000003FC00
00000007FC00
00000007F800
0000000FF000
0001FC0FF000
0003FE1FE000
0007FF000000
000FFF800000
001FFFC00000
003FFFE00000
007FDFF00000
00FF8FF80000
01FF07FC0000
01FE03FE0000
03FC01FF0000
000000000000
000000000000
000000000000
003FE0000000
00FFF83FE000
03FFFC3FE000
07FFFE3FE000
0FFFFF3FE000
0FFFFFBFE000
1FFFFFFFE000
1FFFBFFFE000
3FFC03FFE000
3FF801FFE000
7FF000FFE000
7FE000FFE000
7FE0007FE000
7FC0007FE000
7FC0007FE000
FFC0007FE000
FFC0003FE000
FFC0003FE000
FFC0003FE000
FFC0003FE000
FFC0007FE000
7FC0007FE000
7FC0007FE000
7FE0007FE000
7FE000FFE000
7FF000FFE000
3FF001FFE000
3FF803FFE000
3FFE07FFE000
1FFFFFFFE000
1FFFFFBFE000
0FFFFF3FE000
07FFFE3FE000
03FFFC3FE000
01FFF83FE000
007FF03FE000
000200000000
ENDCHAR
STARTCHAR 1EA6
ENCODING 7846
SWIDTH 675 0
DWIDTH 45 0
BBX 42 73 2 0
BITMAP
000003FE0000
000003FE0000
000001FF0000
000000FF0000
000000FF8000
0000007F8000
0000003FC000
0000003FC000
0000001FE000
0000000FE000
0000000FF000
00000007F000
0000FF83F800
0001FFC3E000
0001FFE00000
0003FFF00000
0007FFF80000
000FF7F80000
001FE3FC0000
003FC1FE0000
007F80FF0000
00FF807F8000
000000000000
000000000000
000000000000
000000000000
0000FF800000
0000FF800000
0000FFC00000
0001FFC00000
0001FFE00000
0003FFE00000
0003FFE00000
0003FFF00000
0007FFF00000
0007FFF00000
0007FFF80000
000FFFF80000
000FF7F80000
000FF7FC0000
001FE3FC0000
001FE3FC0000
003FE3FE0000
003FC1FE0000
003FC1FF0000
007FC1FF0000
007FC0FF0000
007F80FF8000
00FF80FF8000
00FF807F8000
00FF007FC000
01FF007FC000
01FF003FC000
01FE003FE000
03FFFFFFE000
03FFFFFFE000
07FFFFFFF000
07FFFFFFF000
07FFFFFFF800
0FFFFFFFF800
0FFFFFFFF800
0FFFFFFFFC00
1FF00007FC00
1FF00007FC00
1FF00003FE00
3FE00003FE00
3FE00003FE00
3FE00001FF00
7FC00001FF00
7FC00001FF00
FFC00000FF80
FF800000FF80
FF800000FFC0
ENDCHAR
STARTCHAR 1EA7
ENCODING 7847
SWIDTH 615 0
DWIDTH 41 0
BBX 35 62 2 -1
BITMAP
00000FF800
000007FC00
000007FC00
000003FE00
000001FE00
000001FF00
000000FF00
0000007F80
0000007F80
0000003FC0
0000003FC0
0001FC1FE0
0003FE0FE0
0007FF0000
000FFF8000
001FFFC000
003FFFE000
007FDFF000
00FF8FF800
01FF07FC00
01FE03FE00
03FC01FF00
0000000000
0000000000
0000000000
003FE00000
00FFF83FE0
03FFFC3FE0
07FFFE3FE0
0FFFFF3FE0
0FFFFFBFE0
1FFFFFFFE0
1FFFBFFFE0
3FFC03FFE0
3FF801FFE0
7FF000FFE0
7FE000FFE0
7FE0007FE0
7FC0007FE0
7FC0007FE0
FFC0007FE0
FFC0003FE0
FFC0003FE0
FFC0003FE0
FFC0003FE0
FFC0007FE0
7FC0007FE0
7FC0007FE0
7FE0007FE0
7FE000FFE0
7FF000FFE0
3FF001FFE0
3FF803FFE0
3FFE07FFE0
1FFFFFFFE0
1FFFFFBFE0
0FFFFF3FE0
07FFFE3FE0
03FFFC3FE0
01FFF83FE0
007FF03FE0
0002000000
ENDCHAR
STARTCHAR 1EA8
ENCODING 7848
SWIDTH 675 0
DWIDTH 45 0
BBX 42 74 2 0
BITMAP
00000003F800
0000001FFE00
0000003FFF00
0000007FFF80
0000007FFF80
000000FF1F80
000000FE1F80
000000001F80
000000001F80
000000003F80
000000007F00
00000001FE00
00000003FC00
0000FF87F800
0001FFC00000
0003FFE00000
0003FFF00000
0007FFF80000
000FF7F80000
001FE3FC0000
003FC1FE0000
007F80FF0000
00FF807F8000
000000000000
000000000000
000000000000
000000000000
0000FF800000
0000FF800000
0000FFC00000
0001FFC00000
0001FFE00000
0003FFE00000
0003FFE00000
0003FFF00000
0007FFF00000
0007FFF00000
0007FFF80000
000FFFF80000
000FF7F80000
000FF7FC0000
001FE3FC0000
001FE3FC0000
003FE3FE0000
003FC1FE0000
003FC1FF0000
007FC1FF0000
007FC0FF0000
007F80FF8000
00FF80FF8000
00FF807F8000
00FF007FC000
01FF007FC000
01FF003FC000
01FE003FE000
03FFFFFFE000
03FFFFFFE000
07FFFFFFF000
07FFFFFFF000
07FFFFFFF800
0FFFFFFFF800
0FFFFFFFF800
0FFFFFFFFC00
1FF00007FC00
1FF00007FC00
1FF00003FE00
3FE00003FE00
3FE00003FE00
3FE00001FF00
7FC00001FF00
7FC00001FF00
FFC00000FF80
FF800000FF80
FF800000FFC0
ENDCHAR
STARTCHAR 1EA9
ENCODING 7849
SWIDTH 615 0
DWIDTH 41 0
BBX 39 63 2 -1
BITMAP
0000003FF0
0000007FF8
000000FFFC
000001FFFE
000001FFFE
000003F87E
000003F87E
000000007E
00000000FE
00000001FC
00000003F8
00000007F0
0001FC0FE0
0003FE0000
0007FF0000
000FFF8000
001FFFC000
003FFFE000
007FDFF000
00FF8FF800
01FF07FC00
01FE03FE00
03FC01FF00
0000000000
0000000000
0000000000
003FE00000
00FFF83FE0
03FFFC3FE0
07FFFE3FE0
0FFFFF3FE0
0FFFFFBFE0
1FFFFFFFE0
1FFFBFFFE0
3FFC03FFE0
3FF801FFE0
7FF000FFE0
7FE000FFE0
7FE0007FE0
7FC0007FE0
7FC0007FE0
FFC0007FE0
FFC0003FE0
FFC0003FE0
FFC0003FE0
FFC0003FE0
FFC0007FE0
7FC0007FE0
7FC0007FE0
7FE0007FE0
7FE000FFE0
7FF000FFE0
3FF001FFE0
3FF803FFE0
3FFE07FFE0
1FFFFFFFE0
1FFFFFBFE0
0FFFFF3FE0
07FFFE3FE0
03FFFC3FE0
01FFF83FE0
007FF03FE0
0002000000
ENDCHAR
STARTCHAR 1EAA
ENCODING 7850
SWIDTH 675 0
DWIDTH 45 0
BBX 42 73 2 0
BITMAP
0003E03E0000
000FF83E0000
001FFE3E0000
001FFFFE0000
003FFFFE0000
003FFFFC0000
003E3FFC0000
003E0FF80000
003E00E00000
000000000000
000000000000
000000000000
0000FF800000
0001FFC00000
0003FFE00000
0007FFF00000
0007FFF00000
000FF7F80000
001FE3FC0000
003FC1FE0000
007F80FF0000
00FF00FF8000
000000000000
000000000000
000000000000
000000000000
0000FF800000
0000FF800000
0000FFC00000
0001FFC00000
0001FFE00000
0003FFE00000
0003FFE00000
0003FFF00000
0007FFF00000
0007FFF00000
0007FFF80000
000FFFF80000
000FF7F80000
000FF7FC0000
001FE3FC0000
001FE3FC0000
003FE3FE0000
003FC1FE0000
003FC1FF0000
007FC1FF0000
007FC0FF0000
007F80FF8000
00FF80FF8000
00FF807F8000
00FF007FC000
01FF007FC000
01FF003FC000
01FE003FE000
03FFFFFFE000
03FFFFFFE000
07FFFFFFF000
07FFFFFFF000
07FFFFFFF800
0FFFFFFFF800
0FFFFFFFF800
0FFFFFFFFC00
1FF00007FC00
1FF00007FC00
1FF00003FE00
3FE00003FE00
3FE00003FE00
3FE00001FF00
7FC00001FF00
7FC00001FF00
FFC00000FF80
FF800000FF80
FF800000FFC0
ENDCHAR
STARTCHAR 1EAB
ENCODING 7851
SWIDTH 615 0
DWIDTH 41 0
BBX 35 63 2 -1
BITMAP
000000F800
001FC0F800
007FF0F800
007FFFF800
00FFFFF800
00FFFFF000
00FDFFF000
00F87FE000
00F80FC000
0000000000
0000000000
0000000000
0001FC0000
0003FE0000
0007FF0000
000FFF8000
001FFFC000
003FFFE000
007F9FF000
00FF8FF800
01FF07FC00
03FE03FC00
07FC01FE00
0000000000
0000000000
0000000000
003FE00000
00FFF83FE0
03FFFC3FE0
07FFFE3FE0
0FFFFF3FE0
0FFFFFBFE0
1FFFFFFFE0
1FFFBFFFE0
3FFC03FFE0
3FF801FFE0
7FF000FFE0
7FE000FFE0
7FE0007FE0
7FC0007FE0
7FC0007FE0
FFC0007FE0
FFC0003FE0
FFC0003FE0
FFC0003FE0
FFC0003FE0
FFC0007FE0
7FC0007FE0
7FC0007FE0
7FE0007FE0
7FE000FFE0
7FF000FFE0
3FF001FFE0
3FF803FFE0
3FFE07FFE0
1FFFFFFFE0
1FFFFFBFE0
0FFFFF3FE0
07FFFE3FE0
03FFFC3FE0
01FFF83FE0
007FF03FE0
0002000000
ENDCHAR
STARTCHAR 1EAC
ENCODING 7852
SWIDTH 675 0
DWIDTH 45 0
BBX 42 77 2 -16
BITMAP
0000FF800000
0001FFC00000
0001FFE00000
0003FFF00000
0007FFF80000
000FF7F80000
001FE3FC0000
003FC1FE0000
007F80FF0000
00FF807F8000
000000000000
000000000000
000000000000
000000000000
0000FF800000
0000FF800000
0000FFC00000
0001FFC00000
0001FFE00000
0003FFE00000
0003FFE00000
0003FFF00000
0007FFF00000
0007FFF00000
0007FFF80000
000FFFF80000
000FF7F80000
000FF7FC0000
001FE3FC0000
001FE3FC0000
003FE3FE0000
003FC1FE0000
003FC1FF0000
007FC1FF0000
007FC0FF0000
007F80FF8000
00FF80FF8000
00FF807F8000
00FF007FC000
01FF007FC000
01FF003FC000
01FE003FE000
03FFFFFFE000
03FFFFFFE000
07FFFFFFF000
07FFFFFFF000
07FFFFFFF800
0FFFFFFFF800
0FFFFFFFF800
0FFFFFFFFC00
1FF00007FC00
1FF00007FC00
1FF00003FE00
3FE00003FE00
3FE00003FE00
3FE00001FF00
7FC00001FF00
7FC00001FF00
FFC00000FF80
FF800000FF80
FF800000FFC0
000000000000
000000000000
000000000000
000000000000
000000000000
000000000000
000000000000
00003F000000
00007F800000
0000FF800000
0000FF800000
0000FF800000
0000FF800000
0000FF800000
00007F000000
00003E000000
ENDCHAR
STARTCHAR 1EAD
ENCODING 7853
SWIDTH 615 0
DWIDTH 41 0
BBX 35 66 2 -16
BITMAP
0001FC0000
0003FE0000
0007FF0000
000FFF8000
001FFFC000
003FFFE000
007FDFF000
00FF8FF800
01FF07FC00
01FE03FE00
03FC01FF00
0000000000
0000000000
0000000000
003FE00000
00FFF83FE0
03FFFC3FE0
07FFFE3FE0
0FFFFF3FE0
0FFFFFBFE0
1FFFFFFFE0
1FFFBFFFE0
3FFC03FFE0
3FF801FFE0
7FF000FFE0
7FE000FFE0
7FE0007FE0
7FC0007FE0
7FC0007FE0
FFC0007FE0
FFC0003FE0
FFC0003FE0
FFC0003FE0
FFC0003FE0
FFC0007FE0
7FC0007FE0
7FC0007FE0
7FE0007FE0
7FE000FFE0
7FF000FFE0
3FF001FFE0
3FF803FFE0
3FFE07FFE0
1FFFFFFFE0
1FFFFFBFE0
0FFFFF3FE0
07FFFE3FE0
03FFFC3FE0
01FFF83FE0
007FF03FE0
0002000000
0000000000
0000000000
0000000000
0000000000
0000000000
0000000000
0001F80000
0003FC0000
0003FE0000
0003FE0000
0003FE0000
0003FE0000
0003FE0000
0001FC0000
0000F80000
ENDCHAR
STARTCHAR 1EAE
ENCODING 7854
SWIDTH 675 0
DWIDTH 45 0
BBX 42 76 2 0
BITMAP
000001FF8000
000001FF0000
000003FE0000
000003FE0000
000007FC0000
000007F80000
00000FF80000
00000FF00000
00001FE00000
00001FE00000
00003FC00000
00003F800000
00007F800000
000000000000
000000000000
000000000000
00FF007F8000
007F007F0000
007F81FE0000
003FFFFE0000
001FFFFC0000
000FFFF80000
0007FFE00000
0001FFC00000
000000000000
000000000000
000000000000
000000000000
000000000000
0000FF800000
0000FF800000
0000FFC00000
0001FFC00000
0001FFE00000
0003FFE00000
0003FFE00000
0003FFF00000
0007FFF00000
0007FFF00000
0007FFF80000
000FFFF80000
000FF7F80000
000FF7FC0000
001FE3FC0000
001FE3FC0000
003FE3FE0000
003FC1FE0000
003FC1FF0000
007FC1FF0000
007FC0FF0000
007F80FF8000
00FF80FF8000
00FF807F8000
00FF007FC000
01FF007FC000
01FF003FC000
01FE003FE000
03FFFFFFE000
03FFFFFFE000
07FFFFFFF000
07FFFFFFF000
07FFFFFFF800
0FFFFFFFF800
0FFFFFFFF800
0FFFFFFFFC00
1FF00007FC00
1FF00007FC00
1FF00003FE00
3FE00003FE00
3FE00003FE00
3FE00001FF00
7FC00001FF00
7FC00001FF00
FFC00000FF80
FF800000FF80
FF800000FFC0
ENDCHAR
STARTCHAR 1EAF
ENCODING 7855
SWIDTH 615 0
DWIDTH 41 0
BBX 35 65 2 -1
BITMAP
000007FC00
000007FC00
00000FF800
00000FF000
00001FF000
00001FE000
00003FC000
00003FC000
00007F8000
0000FF0000
0000FF0000
0001FE0000
0001FC0000
0000000000
0000000000
0000000000
03FC01FC00
01FE03FC00
00FF0FF800
007FFFF000
007FFFE000
001FFFC000
000FFF8000
0001FC0000
0000000000
0000000000
0000000000
0000000000
003FE00000
00FFF83FE0
03FFFC3FE0
07FFFE3FE0
0FFFFF3FE0
0FFFFFBFE0
1FFFFFFFE0
1FFFBFFFE0
3FFC03FFE0
3FF801FFE0
7FF000FFE0
7FE000FFE0
7FE0007FE0
7FC0007FE0
7FC0007FE0
FFC0007FE0
FFC0003FE0
FFC0003FE0
FFC0003FE0
FFC0003FE0
FFC0007FE0
7FC0007FE0
7FC0007FE0
7FE0007FE0
7FE000FFE0
7FF000FFE0
3FF001FFE0
3FF803FFE0
3FFE07FFE0
1FFFFFFFE0
1FFFFFBFE0
0FFFFF3FE0
07FFFE3FE0
03FFFC3FE0
01FFF83FE0
007FF03FE0
0002000000
ENDCHAR
STARTCHAR 1EB0
ENCODING 7856
SWIDTH 675 0
DWIDTH 45 0
BBX 42 76 2 0
BITMAP
007FC0000000
007FC0000000
003FE0000000
001FE0000000
001FF0000000
000FF0000000
0007F8000000
0007F8000000
0003FC000000
0001FC000000
0001FE000000
0000FE000000
00007F000000
000000000000
000000000000
000000000000
007F003F8000
007F807F0000
003FC0FF0000
003FFFFE0000
001FFFFC0000
000FFFF80000
0003FFF00000
0000FFC00000
000000000000
000000000000
000000000000
000000000000
000000000000
0000FF800000
0000FF800000
0000FFC00000
0001FFC00000
0001FFE00000
0003FFE00000
0003FFE00000
0003FFF00000
0007FFF00000
0007FFF00000
0007FFF80000
000FFFF80000
000FF7F80000
000FF7FC0000
001FE3FC0000
001FE3FC0000
003FE3FE0000
003FC1FE0000
003FC1FF0000
007FC1FF0000
007FC0FF0000
007F80FF8000
00FF80FF8000
00FF807F8000
00FF007FC000
01FF007FC000
01FF003FC000
01FE003FE000
03FFFFFFE000
03FFFFFFE000
07FFFFFFF000
07FFFFFFF000
07FFFFFFF800
0FFFFFFFF800
0FFFFFFFF800
0FFFFFFFFC00
1FF00007FC00
1FF00007FC00
1FF00003FE00
3FE00003FE00
3FE00003FE00
3FE00001FF00
7FC00001FF00
7FC00001FF00
FFC00000FF80
FF800000FF80
FF800000FFC0
ENDCHAR
STARTCHAR 1EB1
ENCODING 7857
SWIDTH 615 0
DWIDTH 41 0
BBX 35 65 2 -1
BITMAP
01FF000000
00FF800000
00FF800000
007FC00000
003FC00000
003FE00000
001FE00000
000FF00000
000FF00000
0007F80000
0003F80000
0003FC0000
0001FC0000
0000000000
0000000000
0000000000
01FC01FE00
01FE03FC00
00FF87F800
007FFFF800
003FFFF000
001FFFC000
0007FF8000
0001FC0000
0000000000
0000000000
0000000000
0000000000
003FE00000
00FFF83FE0
03FFFC3FE0
07FFFE3FE0
0FFFFF3FE0
0FFFFFBFE0
1FFFFFFFE0
1FFFBFFFE0
3FFC03FFE0
3FF801FFE0
7FF000FFE0
7FE000FFE0
7FE0007FE0
7FC0007FE0
7FC0007FE0
FFC0007FE0
FFC0003FE0
FFC0003FE0
FFC0003FE0
FFC0003FE0
FFC0007FE0
7FC0007FE0
7FC0007FE0
7FE0007FE0
7FE000FFE0
7FF000FFE0
3FF001FFE0
3FF803FFE0
3FFE07FFE0
1FFFFFFFE0
1FFFFFBFE0
0FFFFF3FE0
07FFFE3FE0
03FFFC3FE0
01FFF83FE0
007FF03FE0
0002000000
ENDCHAR
STARTCHAR 1EB2
ENCODING 7858
SWIDTH 675 0
DWIDTH 45 0
BBX 42 76 2 0
BITMAP
0000FF800000
0003FFE00000
0007FFF00000
0007FFF00000
000FF7F80000
000FE1F80000
000FC1F80000
000001F80000
000003F00000
000007F00000
00000FE00000
00003FC00000
00007F800000
000000000000
000000000000
000000000000
00FF007F8000
007F007F0000
007F81FE0000
003FFFFE0000
001FFFFC0000
000FFFF80000
0007FFE00000
0001FFC00000
000000000000
000000000000
000000000000
000000000000
000000000000
0000FF800000
0000FF800000
0000FFC00000
0001FFC00000
0001FFE00000
0003FFE00000
0003FFE00000
0003FFF00000
0007FFF00000
0007FFF00000
0007FFF80000
000FFFF80000
000FF7F80000
000FF7FC0000
001FE3FC0000
001FE3FC0000
003FE3FE0000
003FC1FE0000
003FC1FF0000
007FC1FF0000
007FC0FF0000
007F80FF8000
00FF80FF8000
00FF807F8000
00FF007FC000
01FF007FC000
01FF003FC000
01FE003FE000
03FFFFFFE000
03FFFFFFE000
07FFFFFFF000
07FFFFFFF000
07FFFFFFF800
0FFFFFFFF800
0FFFFFFFF800
0FFFFFFFFC00
1FF00007FC00
1FF00007FC00
1FF00003FE00
3FE00003FE00
3FE00003FE00
3FE00001FF00
7FC00001FF00
7FC00001FF00
FFC00000FF80
FF800000FF80
FF800000FFC0
ENDCHAR
STARTCHAR 1EB3
ENCODING 7859
SWIDTH 615 0
DWIDTH 41 0
BBX 35 66 2 -1
BITMAP
0001FC0000
0007FF0000
000FFF8000
001FFFC000
003FFFE000
003F8FE000
003F07E000
000007E000
00000FE000
00000FC000
00003F8000
00007F0000
0000FE0000
0001FC0000
0000000000
0000000000
0000000000
03FC01FC00
01FE03FC00
00FF0FF800
007FFFF000
007FFFE000
001FFFC000
000FFF8000
0001FC0000
0000000000
0000000000
0000000000
0000000000
003FE00000
00FFF83FE0
03FFFC3FE0
07FFFE3FE0
0FFFFF3FE0
0FFFFFBFE0
1FFFFFFFE0
1FFFBFFFE0
3FFC03FFE0
3FF801FFE0
7FF000FFE0
7FE000FFE0
7FE0007FE0
7FC0007FE0
7FC0007FE0
FFC0007FE0
FFC0003FE0
FFC0003FE0
FFC0003FE0
FFC0003FE0
FFC0007FE0
7FC0007FE0
7FC0007FE0
7FE0007FE0
7FE000FFE0
7FF000FFE0
3FF001FFE0
3FF803FFE0
3FFE07FFE0
1FFFFFFFE0
1FFFFFBFE0
0FFFFF3FE0
07FFFE3FE0
03FFFC3FE0
01FFF83FE0
007FF03FE0
0002000000
ENDCHAR
STARTCHAR 1EB4
ENCODING 7860
SWIDTH 675 0
DWIDTH 45 0
BBX 42 72 2 0
BITMAP
0007F03E0000
000FFC3E0000
001FFFFE0000
001FFFFE0000
003FFFFE0000
003FFFFC0000
003E1FFC0000
003E07F00000
000000000000
000000000000
000000000000
000000000000
00FF007F8000
007F007F0000
003FC0FF0000
003FFFFE0000
001FFFFC0000
000FFFF80000
0007FFF00000
0001FFC00000
000000000000
000000000000
000000000000
000000000000
000000000000
0000FF800000
0000FF800000
0000FFC00000
0001FFC00000
0001FFE00000
0003FFE00000
0003FFE00000
0003FFF00000
0007FFF00000
0007FFF00000
0007FFF80000
000FFFF80000
000FF7F80000
000FF7FC0000
001FE3FC0000
001FE3FC0000
003FE3FE0000
003FC1FE0000
003FC1FF0000
007FC1FF0000
007FC0FF0000
007F80FF8000
00FF80FF8000
00FF807F8000
00FF007FC000
01FF007FC000
01FF003FC000
01FE003FE000
03FFFFFFE000
03FFFFFFE000
07FFFFFFF000
07FFFFFFF000
07FFFFFFF800
0FFFFFFFF800
0FFFFFFFF800
0FFFFFFFFC00
1FF00007FC00
1FF00007FC00
1FF00003FE00
3FE00003FE00
3FE00003FE00
3FE00001FF00
7FC00001FF00
7FC00001FF00
FFC00000FF80
FF800000FF80
FF800000FFC0
ENDCHAR
STARTCHAR 1EB5
ENCODING 7861
SWIDTH 615 0
DWIDTH 41 0
BBX 35 62 2 -1
BITMAP
000F00F800
003FE0F800
007FF8F800
007FFFF800
00FFFFF800
00FFFFF000
00F8FFF000
00F83FE000
00F8078000
0000000000
0000000000
0000000000
0000000000
01FC01FC00
01FE03FC00
00FF8FF800
007FFFF000
003FFFE000
001FFFC000
000FFF8000
0001FC0000
0000000000
0000000000
0000000000
0000000000
003FE00000
00FFF83FE0
03FFFC3FE0
07FFFE3FE0
0FFFFF3FE0
0FFFFFBFE0
1FFFFFFFE0
1FFFBFFFE0
3FFC03FFE0
3FF801FFE0
7FF000FFE0
7FE000FFE0
7FE0007FE0
7FC0007FE0
7FC0007FE0
FFC0007FE0
FFC0003FE0
FFC0003FE0
FFC0003FE0
FFC0003FE0
FFC0007FE0
7FC0007FE0
7FC0007FE0
7FE0007FE0
7FE000FFE0
7FF000FFE0
3FF001FFE0
3FF803FFE0
3FFE07FFE0
1FFFFFFFE0
1FFFFFBFE0
0FFFFF3FE0
07FFFE3FE0
03FFFC3FE0
01FFF83FE0
007FF03FE0
0002000000
ENDCHAR
STARTCHAR 1EB6
ENCODING 7862
SWIDTH 675 0
DWIDTH 45 0
BBX 42 76 2 -16
BITMAP
00FF007F8000
007F007F0000
007F81FE0000
003FFFFE0000
001FFFFC0000
000FFFF80000
0007FFE00000
0001FF800000
000000000000
000000000000
000000000000
000000000000
000000000000
0000FF800000
0000FF800000
0000FFC00000
0001FFC00000
0001FFE00000
0003FFE00000
0003FFE00000
0003FFF00000
0007FFF00000
0007FFF00000
0007FFF80000
000FFFF80000
000FF7F80000
000FF7FC0000
001FE3FC0000
001FE3FC0000
003FE3FE0000
003FC1FE0000
003FC1FF0000
007FC1FF0000
007FC0FF0000
007F80FF8000
00FF80FF8000
00FF807F8000
00FF007FC000
01FF007FC000
01FF003FC000
01FE003FE000
03FFFFFFE000
03FFFFFFE000
07FFFFFFF000
07FFFFFFF000
07FFFFFFF800
0FFFFFFFF800
0FFFFFFFF800
0FFFFFFFFC00
1FF00007FC00
1FF00007FC00
1FF00003FE00
3FE00003FE00
3FE00003FE00
3FE00001FF00
7FC00001FF00
7FC00001FF00
FFC00000FF80
FF800000FF80
FF800000FFC0
000000000000
000000000000
000000000000
000000000000
000000000000
000000000000
000000000000
00003F000000
00007F800000
0000FF800000
0000FF800000
0000FF800000
0000FF800000
0000FF800000
00007F000000
00003E000000
ENDCHAR
STARTCHAR 1EB7
ENCODING 7863
SWIDTH 615 0
DWIDTH 41 0
BBX 35 64 2 -16
BITMAP
01FC01FC00
01FE03FC00
00FF8FF800
007FFFF000
003FFFE000
001FFFC000
000FFF8000
0001FC0000
0000000000
0000000000
0000000000
0000000000
003FE00000
00FFF83FE0
03FFFC3FE0
07FFFE3FE0
0FFFFF3FE0
0FFFFFBFE0
1FFFFFFFE0
1FFFBFFFE0
3FFC03FFE0
3FF801FFE0
7FF000FFE0
7FE000FFE0
7FE0007FE0
7FC0007FE0
7FC0007FE0
FFC0007FE0
FFC0003FE0
FFC0003FE0
FFC0003FE0
FFC0003FE0
FFC0007FE0
7FC0007FE0
7FC0007FE0
7FE0007FE0
7FE000FFE0
7FF000FFE0
3FF001FFE0
3FF803FFE0
3FFE07FFE0
1FFFFFFFE0
1FFFFFBFE0
0FFFFF3FE0
07FFFE3FE0
03FFFC3FE0
01FFF83FE0
007FF03FE0
0002000000
0000000000
0000000000
0000000000
0000000000
0000000000
0000000000
0001F80000
0003FC0000
0003FE0000
0003FE0000
0003FE0000
0003FE0000
0003FE0000
0001FC0000
0000F80000
ENDCHAR
STARTCHAR 1EB8
ENCODING 7864
SWIDTH 555 0
DWIDTH 37 0
BBX 31 63 4 -16
BITMAP
FFFFFFFE
FFFFFFFE
FFFFFFFE
FFFFFFFE
FFFFFFFE
FFFFFFFE
FFFFFFFE
FFFFFFFE
FF800000
FF800000
FF800000
FF800000
FF800000
FF800000
FF800000
FF800000
FF800000
FF800000
FF800000
FF800000
FFFFFFE0
FFFFFFE0
FFFFFFE0
FFFFFFE0
FFFFFFE0
FFFFFFE0
FFFFFFE0
FF800000
FF800000
FF800000
FF800000
FF800000
FF800000
FF800000
FF800000
FF800000
FF800000
FF800000
FF800000
FFFFFFFE
FFFFFFFE
FFFFFFFE
FFFFFFFE
FFFFFFFE
FFFFFFFE
FFFFFFFE
FFFFFFFE
00000000
00000000
00000000
00000000
00000000
00000000
00000000
000FC000
001FE000
001FF000
003FF000
003FF000
003FF000
001FF000
001FE000
000FC000
ENDCHAR
STARTCHAR 1EB9
ENCODING 7865
SWIDTH 570 0
DWIDTH 38 0
BBX 33 52 3 -16
BITMAP
000FF80000
007FFF0000
01FFFFC000
03FFFFE000
07FFFFF000
0FFFFFF800
1FFFFFFC00
3FF80FFC00
3FE003FE00
7FE003FE00
7FC001FF00
7F8001FF00
FF8000FF00
FF8000FF00
FF8000FF00
FFFFFFFF80
FFFFFFFF80
FFFFFFFF80
FFFFFFFF80
FFFFFFFF80
FFFFFFFF80
FF80000000
FF80000000
FF80000000
7F80000000
7FC001FF00
7FC003FF00
3FE007FE00
3FF80FFE00
1FFFFFFC00
1FFFFFFC00
0FFFFFF800
07FFFFF000
01FFFFE000
00FFFF8000
003FFE0000
0000800000
0000000000
0000000000
0000000000
0000000000
0000000000
0000000000
0003F00000
0007F80000
000FF80000
000FF80000
000FFC0000
000FF80000
000FF80000
0007F00000
0003E00000
ENDCHAR
STARTCHAR 1EBA
ENCODING 7866
SWIDTH 555 0
DWIDTH 37 0
BBX 31 65 4 0
BITMAP
003FF000
007FF800
00FFFC00
01FFFE00
01FFFE00
01F87E00
03F87F00
00007E00
00007E00
0000FC00
0003FC00
0007F000
000FE000
00000000
00000000
00000000
00000000
00000000
FFFFFFFE
FFFFFFFE
FFFFFFFE
FFFFFFFE
FFFFFFFE
FFFFFFFE
FFFFFFFE
FFFFFFFE
FF800000
FF800000
FF800000
FF800000
FF800000
FF800000
FF800000
FF800000
FF800000
FF800000
FF800000
FF800000
FFFFFFE0
FFFFFFE0
FFFFFFE0
FFFFFFE0
FFFFFFE0
FFFFFFE0
FFFFFFE0
FF800000
FF800000
FF800000
FF800000
FF800000
FF800000
FF800000
FF800000
FF800000
FF800000
FF800000
FF800000
FFFFFFFE
FFFFFFFE
FFFFFFFE
FFFFFFFE
FFFFFFFE
FFFFFFFE
FFFFFFFE
FFFFFFFE
ENDCHAR
ENDFONT
